<svg width="336" height="330" viewBox="0 0 336 330" fill="none" xmlns="http://www.w3.org/2000/svg">
<mask id="mask0_196_6236" style="mask-type:alpha" maskUnits="userSpaceOnUse" x="0" y="10" width="290" height="290">
<circle cx="144.71" cy="155.087" r="142.507" transform="rotate(155.632 144.71 155.087)" fill="#C4C4C4" stroke="#F8BB54" stroke-width="3.98621"/>
</mask>
<g mask="url(#mask0_196_6236)">
<path d="M380.374 149.585C380.374 149.585 331.936 183.329 333.821 223.788C335.659 262.559 285.916 295.735 285.916 295.735" stroke="#104CBA" stroke-width="4.48062" stroke-miterlimit="10"/>
<path d="M372.911 133.109C372.911 133.109 313.163 173.795 315.194 222.738C317.154 269.452 255.839 309.358 255.839 309.358" stroke="#104CBA" stroke-width="4.48062" stroke-miterlimit="10"/>
<path d="M365.427 116.586C365.427 116.586 294.436 164.241 296.572 221.575C298.67 276.39 225.762 322.982 225.762 322.982" stroke="#104CBA" stroke-width="4.48062" stroke-miterlimit="10"/>
<path d="M357.964 100.11C357.964 100.11 275.663 154.707 277.945 220.525C280.165 283.282 195.686 336.605 195.686 336.605" stroke="#104CBA" stroke-width="4.48062" stroke-miterlimit="10"/>
<path d="M350.501 83.6334C350.501 83.6334 256.89 145.174 259.297 219.429C261.66 290.175 165.655 350.207 165.655 350.207" stroke="#104CBA" stroke-width="4.48062" stroke-miterlimit="10"/>
<path d="M343.017 67.1113C343.017 67.1113 238.142 135.574 240.696 218.313C243.13 297.134 135.579 363.83 135.579 363.83" stroke="#104CBA" stroke-width="4.48062" stroke-miterlimit="10"/>
<path d="M335.554 50.6348C335.554 50.6348 219.39 126.087 222.048 217.217C224.625 304.026 105.502 377.453 105.502 377.453" stroke="#104CBA" stroke-width="4.48062" stroke-miterlimit="10"/>
<path d="M328.091 34.1584C328.091 34.1584 200.617 116.553 203.467 216.146C206.12 310.919 75.4257 391.076 75.4257 391.076" stroke="#104CBA" stroke-width="4.48062" stroke-miterlimit="10"/>
<path d="M320.607 17.6359C320.607 17.6359 181.87 106.953 184.799 215.004C187.636 317.857 45.3949 404.679 45.3949 404.679" stroke="#104CBA" stroke-width="4.48062" stroke-miterlimit="10"/>
<path d="M313.145 1.16079C313.145 1.16079 163.097 97.4194 166.197 213.887C169.131 324.75 15.3185 418.302 15.3185 418.302" stroke="#104CBA" stroke-width="4.48062" stroke-miterlimit="10"/>
<path d="M305.661 -15.3616C305.661 -15.3616 144.324 87.8863 147.549 212.792C150.626 331.642 -14.7578 431.925 -14.7578 431.925" stroke="#104CBA" stroke-width="4.48062" stroke-miterlimit="10"/>
<path d="M298.198 -31.8395C298.198 -31.8395 125.597 78.3317 128.948 211.675C132.142 338.58 -44.8335 445.548 -44.8335 445.548" stroke="#104CBA" stroke-width="4.48062" stroke-miterlimit="10"/>
<path d="M290.736 -48.3139C290.736 -48.3139 106.824 68.7982 110.321 210.625C113.637 345.473 -74.9099 459.171 -74.9099 459.171" stroke="#104CBA" stroke-width="4.48062" stroke-miterlimit="10"/>
<path d="M283.252 -64.8363C283.252 -64.8363 88.0508 59.2648 91.6529 209.483C95.1319 352.365 -104.942 472.774 -104.942 472.774" stroke="#104CBA" stroke-width="4.48062" stroke-miterlimit="10"/>
<path d="M275.788 -81.3141C275.788 -81.3141 69.3239 49.7105 73.0719 208.412C76.6475 359.304 -135.018 486.397 -135.018 486.397" stroke="#104CBA" stroke-width="4.48062" stroke-miterlimit="10"/>
<path d="M268.325 -97.7919C268.325 -97.7919 50.5508 40.1771 54.4244 207.316C58.1428 366.196 -165.095 500.02 -165.095 500.02" stroke="#104CBA" stroke-width="4.48062" stroke-miterlimit="10"/>
<path d="M260.841 -114.314C260.841 -114.314 31.7578 30.5989 35.8227 206.199C39.638 373.089 -195.171 513.643 -195.171 513.643" stroke="#104CBA" stroke-width="4.48062" stroke-miterlimit="10"/>
<path d="M253.379 -130.789C253.379 -130.789 13.0508 21.0893 17.1752 205.104C21.1537 380.027 -225.203 527.246 -225.203 527.246" stroke="#104CBA" stroke-width="4.48062" stroke-miterlimit="10"/>
</g>
</svg>
