<svg xmlns="http://www.w3.org/2000/svg" width="133.74" height="158.504" viewBox="0 0 133.74 158.504">
  <g id="_1" data-name="1" transform="translate(-132.32 -232.907)">
    <path id="Path_571" data-name="Path 571" d="M262.241,258.573,201.563,233.38a6.2,6.2,0,0,0-4.749,0l-60.678,25.194a6.19,6.19,0,0,0-3.817,5.718v30.624a103.687,103.687,0,0,0,64.53,96.037,6.2,6.2,0,0,0,4.681,0,103.692,103.692,0,0,0,64.53-96.037V264.292A6.194,6.194,0,0,0,262.241,258.573Zm-8.565,36.343a91.326,91.326,0,0,1-54.487,83.579A91.328,91.328,0,0,1,144.7,294.916V268.424L199.189,245.8l54.487,22.621Zm-61.33,20.869,26.612-26.612a6.191,6.191,0,0,1,8.756,8.756l-30.991,30.991a6.191,6.191,0,0,1-8.756,0l-17.3-17.3a6.191,6.191,0,0,1,8.756-8.756Z" transform="translate(0 0)" fill="#104cba"/>
  </g>
</svg>
