<svg xmlns="http://www.w3.org/2000/svg" width="158.5" height="158.504" viewBox="0 0 158.5 158.504">
  <g id="_2" data-name="2" transform="translate(-296.954 -363.699)">
    <g id="Group_3015" data-name="Group 3015" transform="translate(320.784 398.057)">
      <g id="Group_3014" data-name="Group 3014">
        <path id="Path_572" data-name="Path 572" d="M323.277,374.625a5.856,5.856,0,0,0-8.281,0,40.025,40.025,0,0,0-11.448,32.44,5.858,5.858,0,0,0,5.823,5.274c.194,0,.392-.011.589-.03a5.857,5.857,0,0,0,5.244-6.412,28.366,28.366,0,0,1,8.072-23A5.851,5.851,0,0,0,323.277,374.625Z" transform="translate(-303.343 -372.91)" fill="#104cba"/>
      </g>
    </g>
    <g id="Group_3017" data-name="Group 3017" transform="translate(296.954 363.699)">
      <g id="Group_3016" data-name="Group 3016">
        <path id="Path_573" data-name="Path 573" d="M363.908,363.7a66.954,66.954,0,1,0,66.954,66.954A67.031,67.031,0,0,0,363.908,363.7Zm0,122.2a55.242,55.242,0,1,1,55.242-55.242A55.3,55.3,0,0,1,363.908,485.9Z" transform="translate(-296.954 -363.699)" fill="#104cba"/>
      </g>
    </g>
    <g id="Group_3019" data-name="Group 3019" transform="translate(401.191 467.94)">
      <g id="Group_3018" data-name="Group 3018">
        <path id="Path_574" data-name="Path 574" d="M377.447,435.912,334.895,393.36a5.855,5.855,0,0,0-8.281,8.281l42.552,42.552a5.855,5.855,0,0,0,8.281-8.281Z" transform="translate(-324.899 -391.645)" fill="#104cba"/>
      </g>
    </g>
  </g>
</svg>
