<svg xmlns="http://www.w3.org/2000/svg" width="160.501" height="160.522" viewBox="0 0 160.501 160.522">
  <g id="_3" data-name="3" transform="translate(-448.63 -233.239)">
    <path id="Path_576" data-name="Path 576" d="M509.508,273.68a20.452,20.452,0,1,0-20.452,20.452A20.476,20.476,0,0,0,509.508,273.68Zm-20.449,15.342A15.338,15.338,0,1,1,504.4,273.683,15.355,15.355,0,0,1,489.059,289.022Z" transform="translate(39.832 39.826)" fill="#104cba" stroke="#104cba" stroke-width="2"/>
    <path id="Path_577" data-name="Path 577" d="M597.857,311.2a68.548,68.548,0,0,0-5.058-23.784v-6.614a4.991,4.991,0,0,1,2.2-4.19,23,23,0,0,0-15.1-42.206,23.164,23.164,0,0,0-19.724,17.585,69.059,69.059,0,0,0-54.3-3.573V234.257H490.541v40.9h-5.114V244.485H470.089v30.677h-5.114V254.709H449.636v25.563H468.39a68.829,68.829,0,0,0-4.553,56.243,10.111,10.111,0,0,0-1.423,5.114H457.3a7.68,7.68,0,0,0-7.671,7.671v12.781h5.114a5.114,5.114,0,0,1,0,10.228H449.63V385.09a7.68,7.68,0,0,0,7.671,7.671h30.677a7.68,7.68,0,0,0,7.671-7.671V372.309h-5.114a5.114,5.114,0,0,1,0-10.228h5.114V349.3a7.68,7.68,0,0,0-7.671-7.671h-5.114A10.234,10.234,0,0,0,472.639,331.4a10.062,10.062,0,0,0-4.7,1.2,63.587,63.587,0,0,1-2.854-16.541h30.565v6.924l4.667,1.649c.158.4.326.8.5,1.206l-2.138,4.469,13.407,13.407,4.469-2.139c.4.177.8.344,1.206.5l1.643,4.664h6.924v30.609a63.191,63.191,0,0,1-24.395-5.876l-2.157,4.633a69.06,69.06,0,0,0,82.794-19.231V375.47l6.794,13.59a6.695,6.695,0,0,0,11.976,0l6.794-13.594V323.734a12.781,12.781,0,0,0-10.274-12.53Zm-137.99-36.042h-5.114V259.823h5.114ZM564.834,254.9a17.965,17.965,0,0,1,15.645-15.413,18.768,18.768,0,0,1,2.12-.118,17.675,17.675,0,0,1,11.892,4.547,17.882,17.882,0,0,1-2.253,28.4,9.97,9.97,0,0,0-4.516,7.959h-2.591V264.466a7.671,7.671,0,1,0-5.114,0v15.809h-2.594a9.961,9.961,0,0,0-4.469-7.931,17.826,17.826,0,0,1-8.12-17.443Zm22.854,30.485v2.557a2.561,2.561,0,0,1-2.557,2.557h-5.114a2.561,2.561,0,0,1-2.557-2.557v-2.557Zm-7.668-28.12a2.557,2.557,0,1,1,2.557,2.557A2.561,2.561,0,0,1,580.02,257.266Zm-48.572-7.587a63.82,63.82,0,0,1,28.129,7.785A22.83,22.83,0,0,0,570.2,276.649a5.023,5.023,0,0,1,2.148,4.262v7.029a7.68,7.68,0,0,0,7.671,7.671h5.114a7.59,7.59,0,0,0,4.63-1.6,63.537,63.537,0,0,1,2.978,16.935H562.128v-6.924l-4.668-1.649c-.158-.4-.325-.8-.5-1.206L559.1,296.7,545.69,283.294l-4.469,2.138c-.4-.177-.8-.344-1.2-.5l-1.643-4.664h-6.924V249.679Zm-35.791-10.308h5.114v35.791h-5.114ZM475.206,249.6h5.114v25.563h-5.114Zm-7.671,97.144v-5.114a5.114,5.114,0,1,1,10.228,0v5.114h10.225a2.561,2.561,0,0,1,2.557,2.557v7.671a10.225,10.225,0,1,0,0,20.449v7.671a2.561,2.561,0,0,1-2.557,2.557H457.31a2.561,2.561,0,0,1-2.557-2.557v-7.671a10.225,10.225,0,1,0,0-20.449V349.3a2.562,2.562,0,0,1,2.557-2.557Zm28.123-42.711v6.924H465.071a63.585,63.585,0,0,1,9.261-30.677h31.554v-26.39a63.386,63.386,0,0,1,20.452-4.224v30.615h-6.924l-1.649,4.668c-.4.158-.8.325-1.206.5l-4.469-2.139-13.408,13.408,2.138,4.469c-.177.4-.344.8-.5,1.206Zm27.373,37.6-1.255-3.558-1.172-.4a25.217,25.217,0,0,1-2.932-1.221l-1.113-.546-3.409,1.63-8.288-8.288,1.63-3.409-.545-1.113a25.785,25.785,0,0,1-1.221-2.932l-.4-1.172-3.555-1.252V307.645l3.558-1.255.4-1.172a25.225,25.225,0,0,1,1.221-2.932l.545-1.113-1.63-3.409,8.288-8.288,3.409,1.63,1.113-.545a25.747,25.747,0,0,1,2.932-1.221l1.172-.4,1.252-3.555h11.721l1.255,3.558,1.172.4a25.193,25.193,0,0,1,2.932,1.221l1.113.545,3.409-1.63,8.288,8.288-1.63,3.409.545,1.113a25.74,25.74,0,0,1,1.221,2.932l.4,1.171,3.555,1.252v11.722l-3.558,1.255-.4,1.172a25.2,25.2,0,0,1-1.221,2.932l-.546,1.113,1.63,3.409-8.288,8.287-3.409-1.63-1.113.545a25.745,25.745,0,0,1-2.932,1.221l-1.172.4-1.252,3.555Zm59.544-17.9v24.432a63.578,63.578,0,0,1-51.129,29.17v-30.6h6.924l1.649-4.668c.4-.158.8-.325,1.206-.5l4.469,2.139L559.1,330.3l-2.138-4.469c.177-.4.344-.8.5-1.2l4.664-1.643v-6.924H585.2a12.641,12.641,0,0,0-2.628,7.671Zm5.114,7.668H592.8v40.9h-5.114Zm9.084,55.372a1.639,1.639,0,0,1-2.823,0l-4.677-9.354h12.18Zm6.254-14.468h-5.114V331.4h5.114Zm0-46.015H587.688v-2.557a7.671,7.671,0,1,1,15.342,0v2.557Z" transform="translate(0 0)" fill="#104cba" stroke="#104cba" stroke-width="2"/>
    <path id="Path_578" data-name="Path 578" d="M478.26,293.29a58.855,58.855,0,0,0,34.994-18.165l-3.741-3.487a53.775,53.775,0,0,1-31.948,16.587Z" transform="translate(58.646 78.474)" fill="#104cba" stroke="#104cba" stroke-width="2"/>
    <path id="Path_579" data-name="Path 579" d="M496.794,271.045l-4.426-2.557a54.227,54.227,0,0,1-3.189,4.881l4.122,3.025A58.164,58.164,0,0,0,496.794,271.045Z" transform="translate(83.025 71.861)" fill="#104cba" stroke="#104cba" stroke-width="2"/>
  </g>
</svg>
