<svg xmlns="http://www.w3.org/2000/svg" width="158.5" height="158.504" viewBox="0 0 158.5 158.504">
  <path id="_5" data-name="5" d="M911.429,310.866H892.111a17.77,17.77,0,0,0-17.75,17.75v49.943a17.77,17.77,0,0,0,17.75,17.75h19.318a17.77,17.77,0,0,0,17.75-17.75V328.616A17.77,17.77,0,0,0,911.429,310.866Zm5.369,67.689a5.37,5.37,0,0,1-5.365,5.365H892.115a5.37,5.37,0,0,1-5.365-5.365V328.612a5.37,5.37,0,0,1,5.365-5.365h19.318a5.37,5.37,0,0,1,5.365,5.365ZM825.5,305.5V255.555a17.77,17.77,0,0,0-17.75-17.75H788.429a17.77,17.77,0,0,0-17.75,17.75V305.5a17.77,17.77,0,0,0,17.75,17.75h19.318A17.77,17.77,0,0,0,825.5,305.5Zm-42.433,0V255.555a5.371,5.371,0,0,1,5.369-5.365H807.75a5.373,5.373,0,0,1,5.369,5.365V305.5a5.371,5.371,0,0,1-5.369,5.365H788.432A5.369,5.369,0,0,1,783.063,305.5ZM875.85,250.19a19.752,19.752,0,0,0-19.729,19.729v94.276a32.112,32.112,0,0,1-64.224,0V341.412a6.191,6.191,0,1,1,12.381,0v22.783a19.729,19.729,0,0,0,39.458,0V269.919a32.112,32.112,0,0,1,64.224,0v22.786a6.191,6.191,0,1,1-12.381,0V269.919A19.752,19.752,0,0,0,875.85,250.19Z" transform="translate(-770.679 -237.805)" fill="#104cba"/>
</svg>
