<svg xmlns="http://www.w3.org/2000/svg" width="168.283" height="162.504" viewBox="0 0 168.283 162.504">
  <g id="_6" data-name="6" transform="translate(-929.322 -363.533)">
    <path id="Path_550" data-name="Path 550" d="M1084.777,365.533H942.15a10.835,10.835,0,0,0-10.828,10.82v104.8a10.835,10.835,0,0,0,10.828,10.82h49.9l-2.076,10.552h-9.633a10.778,10.778,0,0,0-10.775,10.756v6.77a4,4,0,0,0,4,3.986h83.117a3.992,3.992,0,0,0,3.99-3.986v-6.77a10.778,10.778,0,0,0-10.775-10.756h-9.633l-2.069-10.552h46.583a10.835,10.835,0,0,0,10.828-10.82v-104.8a10.835,10.835,0,0,0-10.828-10.82Zm-49.416,137h-14.75a2.405,2.405,0,1,0,0,4.811H1049.9a5.959,5.959,0,0,1,5.96,5.945v5.945H974.384v-5.945a5.959,5.959,0,0,1,5.96-5.945H1009.5a2.405,2.405,0,0,0,0-4.811H994.883l2.076-10.552h36.334Zm55.433-21.372a6.021,6.021,0,0,1-6.017,6.01H942.146a6.021,6.021,0,0,1-6.017-6.01v-104.8a6.021,6.021,0,0,1,6.017-6.01h142.627a6.021,6.021,0,0,1,6.017,6.01v104.8Z" transform="translate(0 0)" fill="#104cba" stroke="#104cba" stroke-width="4"/>
    <path id="Path_551" data-name="Path 551" d="M1068.782,369.008H938.96a4.19,4.19,0,0,0-4.19,4.179v91.8a4.192,4.192,0,0,0,4.19,4.187l60.94-.008a2.405,2.405,0,0,0,0-4.811l-60.316.008V373.819H1068.15v90.538l-57.135-.008h0a2.405,2.405,0,0,0,0,4.811l57.767.008a4.189,4.189,0,0,0,4.179-4.187v-91.8a4.177,4.177,0,0,0-4.179-4.175Z" transform="translate(9.592 9.668)" fill="#104cba" stroke="#104cba" stroke-width="4"/>
    <path id="Path_552" data-name="Path 552" d="M962.388,400.419V387.405a2.405,2.405,0,0,0-4.811,0v13.014a2.405,2.405,0,1,0,4.811,0Z" transform="translate(73.042 54.158)" fill="#104cba" stroke="#104cba" stroke-width="4"/>
    <path id="Path_553" data-name="Path 553" d="M966.679,409.984V383.967a2.405,2.405,0,0,0-4.811,0v26.016a2.405,2.405,0,1,0,4.811,0Z" transform="translate(84.979 44.593)" fill="#104cba" stroke="#104cba" stroke-width="4"/>
    <path id="Path_554" data-name="Path 554" d="M970.969,423.955v-45.01a2.405,2.405,0,0,0-4.811,0v45.01a2.405,2.405,0,1,0,4.811,0Z" transform="translate(96.914 30.622)" fill="#104cba" stroke="#104cba" stroke-width="4"/>
    <path id="Path_555" data-name="Path 555" d="M994.372,416.775c.31-.651.59-1.312.844-1.978h1.2a5.323,5.323,0,0,0,5.325-5.314v-7.734a5.333,5.333,0,0,0-5.325-5.325h-1.044c-.257-.711-.548-1.414-.866-2.107l.737-.734a5.334,5.334,0,0,0,0-7.522l-5.484-5.469a5.343,5.343,0,0,0-7.526,0l-.73.73c-.692-.318-1.4-.609-2.11-.866v-1.048a5.326,5.326,0,0,0-5.325-5.314H966.32A5.323,5.323,0,0,0,961,379.413v1.2c-.666.253-1.327.533-1.974.843l-.874-.874a5.336,5.336,0,0,0-7.515.008l-5.476,5.469a5.318,5.318,0,0,0,0,7.519l1.017,1.021c-.268.6-.518,1.21-.737,1.827h-1.456a5.328,5.328,0,0,0-5.325,5.325v7.734a5.326,5.326,0,0,0,5.325,5.314h1.611q.329.862.715,1.7l-1.142,1.142a5.319,5.319,0,0,0,0,7.522l5.469,5.461a5.248,5.248,0,0,0,3.752,1.562,5.327,5.327,0,0,0,3.774-1.554l1.146-1.142q.834.386,1.7.715v1.607a5.326,5.326,0,0,0,5.325,5.314h7.742a5.323,5.323,0,0,0,5.325-5.314V430.36q.919-.335,1.826-.738l1.014,1.014a5.3,5.3,0,0,0,3.763,1.554h.011a5.266,5.266,0,0,0,3.744-1.554l5.488-5.473a5.334,5.334,0,0,0,0-7.522Zm-4.648,2.16,2.1,2.1a.523.523,0,0,1,.008.719l-5.492,5.48a.473.473,0,0,1-.348.14.512.512,0,0,1-.363-.147L983.4,425a2.41,2.41,0,0,0-2.829-.424,21.527,21.527,0,0,1-4.243,1.709,2.4,2.4,0,0,0-1.759,2.318v3.207a.515.515,0,0,1-.514.5h-7.742a.523.523,0,0,1-.514-.5v-3.324a2.4,2.4,0,0,0-1.7-2.3,22.261,22.261,0,0,1-4.126-1.736,2.407,2.407,0,0,0-2.855.408l-2.375,2.371a.506.506,0,0,1-.363.148.44.44,0,0,1-.355-.148l-5.484-5.476a.465.465,0,0,1-.14-.344.5.5,0,0,1,.147-.359l2.375-2.371a2.407,2.407,0,0,0,.408-2.859A21.748,21.748,0,0,1,949.6,411.7a2.409,2.409,0,0,0-2.3-1.706h-3.328a.523.523,0,0,1-.514-.5v-7.734a.519.519,0,0,1,.514-.511h3.211a2.41,2.41,0,0,0,2.318-1.755,21.063,21.063,0,0,1,1.706-4.232,2.4,2.4,0,0,0-.42-2.833l-2.239-2.246a.465.465,0,0,1-.14-.344.5.5,0,0,1,.147-.359L954.025,384a.526.526,0,0,1,.719,0l2.11,2.107a2.4,2.4,0,0,0,2.882.393,21.122,21.122,0,0,1,4.349-1.853,2.409,2.409,0,0,0,1.717-2.307v-2.927a.52.52,0,0,1,.514-.5h7.742a.515.515,0,0,1,.514.5v2.8a2.41,2.41,0,0,0,1.747,2.315,22.136,22.136,0,0,1,4.5,1.846,2.4,2.4,0,0,0,2.852-.416l1.944-1.952a.528.528,0,0,1,.726,0l5.476,5.461a.522.522,0,0,1,.008.719l-1.963,1.963a2.4,2.4,0,0,0-.412,2.852,22.026,22.026,0,0,1,1.845,4.5,2.41,2.41,0,0,0,2.314,1.747h2.791a.514.514,0,0,1,.514.511v7.734a.515.515,0,0,1-.514.5h-2.92a2.412,2.412,0,0,0-2.307,1.717,21.139,21.139,0,0,1-1.857,4.349,2.4,2.4,0,0,0,.4,2.874Z" transform="translate(20.389 23.831)" fill="#104cba" stroke="#104cba" stroke-width="4"/>
    <path id="Path_556" data-name="Path 556" d="M954.175,379.853a9.754,9.754,0,1,0,9.758,9.75A9.767,9.767,0,0,0,954.175,379.853Zm0,14.693a4.939,4.939,0,1,1,4.943-4.943A4.954,4.954,0,0,1,954.175,394.546Z" transform="translate(36.411 39.838)" fill="#104cba" stroke="#104cba" stroke-width="4"/>
  </g>
</svg>
