<svg xmlns="http://www.w3.org/2000/svg" width="162.123" height="161.506" viewBox="0 0 162.123 161.506">
  <g id="_7" data-name="7" transform="translate(-1083.336 -231.398)">
    <path id="Path_559" data-name="Path 559" d="M1115.078,330.682a2.333,2.333,0,0,0,2.332-2.332V269.1a6.328,6.328,0,0,0-6.322-6.322h-19.93a6.328,6.328,0,0,0-6.322,6.322v59.251a2.331,2.331,0,0,0,2.332,2.332ZM1089.487,269.1a1.659,1.659,0,0,1,1.661-1.659h19.93a1.659,1.659,0,0,1,1.659,1.659v56.922h-23.25Z" transform="translate(0 60.718)" fill="#104cba" stroke="#104cba" stroke-width="3"/>
    <path id="Path_560" data-name="Path 560" d="M1105.067,257.623a6.328,6.328,0,0,0-6.322,6.322v74.884a2.331,2.331,0,0,0,2.332,2.332h27.914a2.331,2.331,0,0,0,2.332-2.332V263.945a6.328,6.328,0,0,0-6.322-6.322Zm21.589,6.322V336.5H1103.4V263.945a1.664,1.664,0,0,1,1.662-1.662h19.93A1.653,1.653,0,0,1,1126.656,263.945Z" transform="translate(28.264 50.242)" fill="#104cba" stroke="#104cba" stroke-width="3"/>
    <path id="Path_561" data-name="Path 561" d="M1145.231,349.3V258.789a6.328,6.328,0,0,0-6.322-6.322h-19.93a6.328,6.328,0,0,0-6.322,6.322V349.3a2.331,2.331,0,0,0,2.332,2.332H1142.9A2.322,2.322,0,0,0,1145.231,349.3Zm-4.639-2.329h-23.253V258.792A1.662,1.662,0,0,1,1119,257.13h19.93a1.662,1.662,0,0,1,1.659,1.662l0,88.183Z" transform="translate(56.536 39.765)" fill="#104cba" stroke="#104cba" stroke-width="3"/>
    <path id="Path_562" data-name="Path 562" d="M1128.9,362.111h27.914a2.333,2.333,0,0,0,2.332-2.332V253.634a6.328,6.328,0,0,0-6.322-6.322h-19.93a6.328,6.328,0,0,0-6.322,6.322V359.78A2.334,2.334,0,0,0,1128.9,362.111Zm2.335-108.477a1.659,1.659,0,0,1,1.658-1.659h19.93a1.662,1.662,0,0,1,1.662,1.659V357.448h-23.25Z" transform="translate(84.813 29.289)" fill="#104cba" stroke="#104cba" stroke-width="3"/>
    <path id="Path_563" data-name="Path 563" d="M1201.384,265.376a4.865,4.865,0,0,0,8.611-1.237l7.965-23.945a4.865,4.865,0,0,0-4.445-6.4L1188.3,232.9a4.865,4.865,0,0,0-4.166,7.638l2.635,3.79c-13.626,7.862-45.746,23.736-89.511,28.384a2.331,2.331,0,0,0,.494,4.636c47.186-5.009,81.152-22.847,93.565-30.285a2.352,2.352,0,0,0,.715-3.329s-3.993-5.749-4.066-5.855a.2.2,0,0,1,.173-.321s25.115.888,25.218.894a.2.2,0,0,1,.185.267s-7.953,23.9-7.965,23.942a.2.2,0,0,1-.361.052l-3.608-5.191a2.329,2.329,0,0,0-3.129-.661,210.729,210.729,0,0,1-26.986,13.7,2.332,2.332,0,1,0,1.828,4.29,220.753,220.753,0,0,0,25.707-12.874Z" transform="translate(21.001 0)" fill="#104cba" stroke="#104cba" stroke-width="3"/>
    <path id="Path_564" data-name="Path 564" d="M1104.837,250.947a2.331,2.331,0,0,0-.31-4.651c-5.057.334-10.151.5-15.139.5a2.331,2.331,0,0,0-2.332,2.332v16.746a2.333,2.333,0,0,0,2.332,2.332,260.188,260.188,0,0,0,91.018-16.783,2.331,2.331,0,0,0-1.65-4.36,255.762,255.762,0,0,1-87.037,16.467V251.447C1096.074,251.4,1100.47,251.235,1104.837,250.947Z" transform="translate(4.511 27.213)" fill="#104cba" stroke="#104cba" stroke-width="3"/>
  </g>
</svg>
