<svg xmlns="http://www.w3.org/2000/svg" width="158.503" height="158.504" viewBox="0 0 158.503 158.504">
  <g id="_8" data-name="8" transform="translate(-1249.759 -365.5)">
    <g id="Home-page-6_3_" transform="translate(1249.759 365.5)">
      <path id="ic-new-process-deliver_1_" d="M2586.01,2663.5a4.652,4.652,0,0,1,3.651,1.771c.078.084.183.2.317.341a71.144,71.144,0,0,1,18.12,35.655h33.945a13.946,13.946,0,0,1,13.931,13.93h0v78.944h4.644a4.644,4.644,0,0,1,4.644,4.644A23.242,23.242,0,0,1,2642.044,2822H2529.976a23.242,23.242,0,0,1-23.218-23.218,4.646,4.646,0,0,1,4.644-4.644h4.644V2715.2a13.946,13.946,0,0,1,13.931-13.93h33.934a70.6,70.6,0,0,1,18.155-35.684c.127-.137.232-.247.306-.327A4.635,4.635,0,0,1,2586.01,2663.5Zm69.177,139.905H2516.85a13.96,13.96,0,0,0,13.135,9.291h112.068a13.945,13.945,0,0,0,13.135-9.291Zm-13.131-92.871h-32.889q.068,1.522.07,3.049a83.872,83.872,0,0,1-4.591,27.587h0l7.876,7.875a4.643,4.643,0,0,1-6.566,6.566h0l-5-5c-.4.95-.747,1.8-1.007,2.5h0v13.142a18.45,18.45,0,0,0,18.578,9.286,18.943,18.943,0,0,1,13.24,5.39,18.255,18.255,0,0,1,5.643,13.185h9.287v-78.944a4.683,4.683,0,0,0-4.644-4.643Zm-51.4,46.436h-9.287v9.287a9.3,9.3,0,0,1-9.287,9.287,9.282,9.282,0,0,0-8.914,6.875,4.64,4.64,0,0,1-6.21,3.094,9.249,9.249,0,0,0-12.737,8.6h83.9a9.572,9.572,0,0,0-9.6-9.287,9.231,9.231,0,0,0-3.45.683,4.645,4.645,0,0,1-6.213-3.094,9.275,9.275,0,0,0-8.91-6.875,9.3,9.3,0,0,1-9.287-9.287h0v-9.287Zm-27.777-46.436h-32.886a4.653,4.653,0,0,0-4.644,4.647h0v78.944h9.6a123.723,123.723,0,0,1,37.152-27.861h0v-13.142c-.257-.694-.609-1.545-1.011-2.5h0l-4.995,5a4.643,4.643,0,0,1-6.566-6.565h0l7.886-7.886a85.119,85.119,0,0,1-4.6-27.573c0-1.016,0-2.037.067-3.057Zm32.882,27.882h-19.5c1.092,3.183,2.214,5.872,3.133,8.059.176.427.352.838.514,1.233h12.2c.18-.437.37-.887.567-1.355.9-2.163,2.032-4.8,3.088-7.936Zm2.851-37.141h-25.253a59.46,59.46,0,0,0-1.3,12.335,74.863,74.863,0,0,0,1.609,15.525h24.651a75.043,75.043,0,0,0,1.6-15.525,56.185,56.185,0,0,0-1.313-12.335Zm-12.6,9.259a4.644,4.644,0,1,1-4.644,4.644A4.644,4.644,0,0,1,2586.01,2710.534Zm0-35.381a61.759,61.759,0,0,0-9.851,16.81h19.7A63.406,63.406,0,0,0,2586.01,2675.153Z" transform="translate(-2506.759 -2663.5)" fill="#104cba"/>
    </g>
  </g>
</svg>
