<svg xmlns="http://www.w3.org/2000/svg" width="161.705" height="161.591" viewBox="0 0 161.705 161.591">
  <g id="_9" data-name="9" transform="translate(-1400.498 -232.05)">
    <path id="Path_557" data-name="Path 557" d="M1436.41,275.093a2.634,2.634,0,0,0-1.867-1.866l-14.726-3.944a2.64,2.64,0,0,0-2.55.684l-10.779,10.782a2.642,2.642,0,0,0-.684,2.547l3.944,14.726a2.634,2.634,0,0,0,1.866,1.866l14.726,3.944a2.627,2.627,0,0,0,2.547-.681l10.782-10.779a2.642,2.642,0,0,0,.684-2.551Zm-10.152,23.239-11.782-3.168-3.156-11.75,8.622-8.626,11.779,3.169,3.168,11.779Z" transform="translate(7.999 76.54)" fill="#104cba" stroke="#104cba" stroke-width="3"/>
    <path id="Path_558" data-name="Path 558" d="M1559.924,353.773l-14.947-14.947a2.616,2.616,0,0,0-1.876-.766,2.559,2.559,0,0,0-1.848.766l-1.794,1.8a23.778,23.778,0,0,1-5.678-12.967l-1.9-16.952a23.9,23.9,0,0,0-6.788-14.206l-.634-.634,3.408-3.433a2.47,2.47,0,0,1,1.876-.766,29,29,0,0,0,28.784-39.557,2.643,2.643,0,0,0-4.332-.924l-16.16,16.186-9.824-1.4-1.4-9.824L1543,239.986a2.615,2.615,0,0,0,.712-2.4,2.677,2.677,0,0,0-1.636-1.926,29,29,0,0,0-39.557,28.784,2.571,2.571,0,0,1-.766,1.876l-10.905,10.905-7.472-7.472a10.512,10.512,0,0,0-17.957,6.6,10.474,10.474,0,0,0-12.015,14.84,10.317,10.317,0,0,0-5.52,2.825,10.5,10.5,0,0,0-2.692,10.139,10.454,10.454,0,0,0-6.627,17.876l3.724,3.723-7.579,7.579a2.517,2.517,0,0,1-1.9.766c-.58-.025-1.135-.025-1.744-.054a29.048,29.048,0,0,0-.028,58.1h.079a29.031,29.031,0,0,0,29.021-29.043v-.006c0-.58-.025-1.163-.054-1.715a2.453,2.453,0,0,1,.767-1.9l7.579-7.579,29.891,29.866-1.876,1.876a2.641,2.641,0,0,0-.791,1.876,2.585,2.585,0,0,0,.791,1.847l3.724,3.749a2.7,2.7,0,0,0,1.876.766,2.74,2.74,0,0,0,1.875-.766,2.658,2.658,0,0,0,0-3.749l-1.875-1.847,41.061-41.089,13.071,13.071a2.658,2.658,0,0,0,3.748,0,2.605,2.605,0,0,0,.006-3.723Zm-54.448-83.736a7.7,7.7,0,0,0,2.3-5.915,23.747,23.747,0,0,1,28.333-24.717l-13.942,13.941a2.666,2.666,0,0,0-.766,2.245l1.876,13.071a2.641,2.641,0,0,0,2.245,2.245l13.071,1.876a2.664,2.664,0,0,0,2.245-.766l13.942-13.941a23.751,23.751,0,0,1-24.714,28.333,7.716,7.716,0,0,0-5.915,2.3l-3.433,3.433-7.472-7.472a10.826,10.826,0,0,0-14.947,0l-3.724-3.723Zm-33.324,3.433a5.442,5.442,0,0,1,7.472,0l14.947,14.947-7.472,7.472-14.947-14.947A5.309,5.309,0,0,1,1472.152,273.47Zm-13.083,9.348a5.386,5.386,0,0,1,7.472,0l16.82,16.794.315.4a7.8,7.8,0,0,0,0,6.681l-.315.4a5.442,5.442,0,0,1-7.472,0l-6.548-6.548-10.272-10.271a5.263,5.263,0,0,1-.006-7.44c.007,0,.007-.006.007-.009Zm-7.441,14.919a5.285,5.285,0,0,1,7.447,0l6.548,6.548,6.523,6.523h.025l3.724,3.749a5.283,5.283,0,0,1-7.472,7.472l-14.947-14.947-1.848-1.876a5.279,5.279,0,0,1,0-7.469s0,0,0,0ZM1440.72,314.56a5.258,5.258,0,0,1,1.557-3.749,5.328,5.328,0,0,1,3.724-1.532,5.231,5.231,0,0,1,3.749,1.532l14.947,14.947,1.848,1.876a5.283,5.283,0,1,1-7.471,7.472l-16.8-16.82a5.27,5.27,0,0,1-1.557-3.727Zm61.32,63.48-29.891-29.866,28.018-28.018a2.642,2.642,0,0,0-3.723-3.749L1457.1,355.753a7.756,7.756,0,0,0-2.3,5.915c.025.476.054.952.054,1.425a23.764,23.764,0,0,1-23.74,23.765h-.079a23.765,23.765,0,1,1,.025-47.53h0c.4,0,.978.025,1.454.054a7.85,7.85,0,0,0,5.914-2.3l7.579-7.6,9.348,9.348a10.532,10.532,0,0,0,17.668-10.06,10.456,10.456,0,0,0,8.61-15.051,10.379,10.379,0,0,0,5.467-2.9c.079-.054.107-.132.186-.186a13.253,13.253,0,0,0,16.637-1.665,2.681,2.681,0,0,1,3.724,0,2.559,2.559,0,0,1,.766,1.847,2.614,2.614,0,0,1-.766,1.876l-1.876,1.876a18.5,18.5,0,0,0,0,26.142l1.876,1.847a2.584,2.584,0,0,0,3.651.073c.025-.022.047-.047.072-.073a2.64,2.64,0,0,0,0-3.723l-1.848-1.876a13.2,13.2,0,0,1,0-18.67l1.848-1.876a7.9,7.9,0,0,0,.016-11.18l-.016-.016a8.116,8.116,0,0,0-11.2,0,7.919,7.919,0,0,1-11.2,0,2.639,2.639,0,0,1,0-3.723l13.071-13.071a5.387,5.387,0,0,1,7.472,0l11.829,11.8a18.816,18.816,0,0,1,5.306,11.063l1.9,16.952a29.134,29.134,0,0,0,7.157,16.107Z" transform="translate(0)" fill="#104cba" stroke="#104cba" stroke-width="3"/>
  </g>
</svg>
