<svg xmlns="http://www.w3.org/2000/svg" width="46.357" height="140.225" viewBox="0 0 46.357 140.225">
  <g id="right-arrow" transform="translate(0 140.225) rotate(-90)">
    <g id="Group_3749" data-name="Group 3749" transform="translate(0 0)">
      <path id="Path_2819" data-name="Path 2819" d="M.968,20.532l0,0L18.212,1.089a3.033,3.033,0,0,1,4.666.013,4.1,4.1,0,0,1-.011,5.287L11.291,19.44l125.634.758a3.54,3.54,0,0,1,3.3,3.739,3.54,3.54,0,0,1-3.3,3.738L11.292,26.917,22.867,39.969a4.1,4.1,0,0,1,.011,5.287,3.033,3.033,0,0,1-4.666.013L.971,25.829l0,0A4.1,4.1,0,0,1,.968,20.532Z" transform="translate(0 0)" fill="#d6e5ff"/>
    </g>
  </g>
</svg>
