<svg width="963" height="770" viewBox="0 0 963 770" fill="none" xmlns="http://www.w3.org/2000/svg">
<g clip-path="url(#clip0_196_6093)">
<path opacity="0.27" d="M838.891 224.582H466.688V457.702H838.891V224.582Z" fill="#D8E6FF"/>
<path d="M820.733 439.358H438.48V199.063H820.731V439.358H820.733ZM440.838 437H818.373V201.419H440.838V437Z" fill="#5B4F78"/>
<path d="M810.715 217.557H448.5V430.866H810.715V217.557Z" fill="#BAD6FF"/>
<path d="M720.078 270.562H574.918V276.598H720.078V270.562Z" fill="black"/>
<path d="M549.743 270.562H511.078V276.598H549.743V270.562Z" fill="#114DBA"/>
<path d="M720.078 329.593H574.918V335.629H720.078V329.593Z" fill="black"/>
<path d="M549.743 329.593H511.078V335.629H549.743V329.593Z" fill="#114DBA"/>
<path d="M720.078 349.612H598.805V355.648H720.078V349.612Z" fill="black"/>
<path d="M720.078 369.631H598.805V375.667H720.078V369.631Z" fill="black"/>
<path d="M221.158 38.1147H458.81C464.911 38.1147 469.855 43.0606 469.855 49.1651V523.83C469.855 529.932 464.909 534.88 458.81 534.88H221.158C215.06 534.88 210.113 529.932 210.113 523.83V49.1651C210.113 43.0629 215.06 38.1147 221.158 38.1147Z" fill="white" stroke="#104CBA"/>
<path d="M457.663 50.4634H223.427C220.875 50.4634 218.809 52.5309 218.809 55.0835V503.476C218.809 506.029 220.875 508.096 223.427 508.096H457.661C460.212 508.096 462.279 506.029 462.279 503.476V55.0835C462.281 52.5309 460.212 50.4634 457.663 50.4634Z" fill="#104CBA"/>
<path d="M399.587 123.177H330.293V133.944H399.587V123.177Z" fill="#FEFEFE"/>
<path d="M437.336 147.761H330.293V151.799H437.336V147.761Z" fill="#FEFEFE"/>
<path d="M437.336 163.379H330.293V167.417H437.336V163.379Z" fill="#FEFEFE"/>
<path d="M423.654 179H330.293V183.038H423.654V179Z" fill="#FEFEFE"/>
<path d="M437.335 212.237H243.754V213.746H437.335V212.237Z" fill="#FEFEFE"/>
<path opacity="0.57" d="M315.162 117.645H244.902V187.935H315.162V117.645Z" fill="url(#paint0_linear_196_6093)"/>
<path d="M371.353 66.5781C387.581 66.5781 403.809 66.5781 420.037 66.5781C424.493 66.5781 424.502 59.6479 420.037 59.6479C403.809 59.6479 387.581 59.6479 371.353 59.6479C366.896 59.6479 366.889 66.5781 371.353 66.5781Z" fill="#BAD6FF"/>
<path d="M433.324 66.5229C433.379 66.5483 433.435 66.5737 433.493 66.5968C436.273 67.7542 444.5 68.4472 444.287 63.6284C444.186 61.3183 442.089 60.4128 440.08 60.1587C437.39 59.8191 430.911 58.5278 430.775 62.843C430.726 64.3699 431.989 65.8876 433.324 66.5229Z" fill="#BAD6FF"/>
<path d="M441.957 262.555C443.238 283.757 443.467 305.005 442.64 326.227C442.467 330.688 449.394 330.679 449.568 326.227C450.394 305.002 450.168 283.757 448.884 262.555C448.616 258.122 441.687 258.092 441.957 262.555Z" fill="white"/>
<path d="M441.992 343.282C442.248 346.577 441.507 349.709 441.553 352.939C441.578 354.669 442.179 356.441 444.024 356.861C445.716 357.247 447.942 356.348 448.284 354.44C448.909 350.945 449.794 346.177 448.826 342.68C448.533 341.626 447.877 340.637 446.91 340.127C444.841 339.039 441.805 340.903 441.992 343.282Z" fill="white"/>
<path d="M675.991 17.196H533.135C526.76 17.196 521.59 22.3683 521.59 28.7464V105.173V111.752V126.069C521.59 129.269 525.294 131.045 527.787 129.04L549.301 111.752H675.993C682.368 111.752 687.538 106.579 687.538 100.201V28.7464C687.536 22.366 682.366 17.196 675.991 17.196Z" fill="url(#paint1_linear_196_6093)"/>
<path d="M664.335 1.38623H521.479C515.104 1.38623 509.934 6.55847 509.934 12.9366V89.3627V95.9418V110.257C509.934 113.457 513.637 115.233 516.131 113.228L537.644 95.9395H664.337C670.712 95.9395 675.882 90.7672 675.882 84.3892V12.9366C675.88 6.55847 670.71 1.38623 664.335 1.38623Z" fill="#FEFEFE"/>
<path d="M513.751 115.462C512.989 115.462 512.221 115.291 511.496 114.944C509.676 114.073 508.547 112.276 508.547 110.257V12.9364C508.547 5.80288 514.347 0 521.477 0H664.333C671.464 0 677.264 5.80288 677.264 12.9364V84.3913C677.264 91.5248 671.464 97.3276 664.333 97.3276H538.128L516.998 114.309C516.047 115.071 514.906 115.462 513.751 115.462ZM521.475 2.77208C515.873 2.77208 511.315 7.33214 511.315 12.9364V110.257C511.315 111.213 511.83 112.031 512.692 112.445C513.553 112.858 514.513 112.745 515.259 112.149L536.77 94.8605C537.017 94.6641 537.322 94.5556 537.638 94.5556H664.331C669.933 94.5556 674.491 89.9955 674.491 84.3913V12.9364C674.491 7.33214 669.933 2.77208 664.331 2.77208H521.475V2.77208Z" fill="#114CBA"/>
<path d="M650.481 30.5552H535.398V36.5914H650.481V30.5552Z" fill="#114CBA"/>
<path d="M650.481 55.8018H535.398V61.838H650.481V55.8018Z" fill="#114CBA"/>
<path d="M176.593 206.815H123.254V212.852H176.593V206.815Z" fill="#114DBA"/>
<path d="M176.593 227.442H123.254V233.478H176.593V227.442Z" fill="#114DBA"/>
<path d="M176.593 248.034H123.254V254.07H176.593V248.034Z" fill="#114DBA"/>
<path opacity="0.24" d="M576.276 540.719L573.769 476.961C571.769 461.475 557.596 450.543 542.116 452.544C532.576 453.777 524.78 459.643 520.659 467.582C517.098 452.435 502.588 442.135 486.824 444.172C473.628 445.879 463.512 455.734 460.794 468.021C455.042 456.829 442.754 449.871 429.56 451.576C418.954 452.948 410.323 459.583 405.929 468.511L394.331 378.721C392.156 361.888 376.752 350.005 359.926 352.181C343.1 354.357 331.222 369.767 333.398 386.601L352.56 534.944L576.276 540.719Z" fill="white"/>
<path d="M298.277 314.113H130.022C123.644 314.113 118.477 319.286 118.477 325.664V397.116C118.477 403.494 123.644 408.667 130.022 408.667H282.114L303.627 425.955C306.121 427.958 309.825 426.184 309.825 422.984V408.667V402.087V325.661C309.822 319.283 304.652 314.113 298.277 314.113Z" fill="url(#paint2_linear_196_6093)"/>
<path d="M312.066 295.522H143.811C137.433 295.522 132.266 300.694 132.266 307.072V378.525C132.266 384.903 137.433 390.075 143.811 390.075H295.903L317.416 407.364C319.91 409.366 323.614 407.592 323.614 404.393V390.075V383.496V307.07C323.611 300.694 318.444 295.522 312.066 295.522Z" fill="#FEFEFE"/>
<path d="M279.226 340.41L279.322 344.446L276.371 344.516L276.274 340.53C273.102 340.514 270.007 339.551 267.386 337.763L268.918 334.042C271.049 335.561 273.564 336.449 276.176 336.606L275.999 329.406C271.986 328.543 267.677 327.354 267.553 322.359C267.454 318.622 270.039 315.422 275.636 314.743L275.528 310.67L278.479 310.6L278.576 314.599C281.155 314.643 283.683 315.332 285.927 316.603L284.545 320.325C282.734 319.324 280.735 318.71 278.674 318.523L278.862 325.785C282.875 326.66 287.259 327.813 287.383 332.808C287.471 336.47 284.849 339.695 279.226 340.41ZM275.893 325.095L275.734 318.692C273.239 319.153 272.142 320.475 272.176 322.057C272.21 323.639 273.795 324.539 275.893 325.095ZM282.784 333.235C282.74 331.479 281.141 330.728 278.968 330.133L279.128 336.499C281.735 336.039 282.819 334.78 282.784 333.235Z" fill="#114DBA"/>
<path d="M319.791 409.6C318.634 409.6 317.493 409.207 316.547 408.447L295.414 391.464H143.81C136.679 391.464 130.879 385.661 130.879 378.527V307.075C130.879 299.941 136.679 294.138 143.81 294.138H312.065C319.195 294.138 324.995 299.941 324.995 307.075V404.395C324.995 406.412 323.866 408.207 322.047 409.08C321.324 409.427 320.555 409.6 319.791 409.6ZM143.81 296.908C138.208 296.908 133.65 301.47 133.65 307.072V378.525C133.65 384.129 138.208 388.689 143.81 388.689H295.902C296.218 388.689 296.523 388.795 296.77 388.994L318.283 406.283C319.027 406.881 319.987 406.989 320.851 406.578C321.712 406.165 322.227 405.349 322.227 404.393V307.072C322.227 301.468 317.669 296.908 312.067 296.908H143.81V296.908Z" fill="#3C81FE"/>
<path d="M287.217 354.534H164.988V360.571H287.217V354.534Z" fill="black"/>
<path d="M287.22 368.24H253.051V374.276H287.22V368.24Z" fill="#104CBA"/>
<path d="M890.741 564.254L845.974 515.713C843.097 512.594 838.174 512.594 835.297 515.713L790.529 564.254C786.236 568.909 789.536 576.449 795.867 576.449H807.683V621.789C807.683 625.801 810.934 629.056 814.947 629.056H866.328C870.339 629.056 873.592 625.803 873.592 621.789V576.449H885.408C891.734 576.449 895.034 568.909 890.741 564.254Z" fill="url(#paint3_linear_196_6093)"/>
<path d="M846.609 532.176C847.54 534.47 849.383 536.924 851.572 538.153C853.601 539.291 856.617 538.612 855.92 535.616C855.382 533.299 852.795 530.127 850.983 528.681C847.97 526.283 845.113 528.494 846.609 532.176Z" fill="white"/>
<path d="M857.875 546.085C862.865 551.939 868.172 557.513 873.771 562.787C874.808 563.764 876.606 563.894 877.622 562.787C878.597 561.727 878.731 559.978 877.622 558.934C872.023 553.66 866.717 548.084 861.727 542.232C860.799 541.144 858.818 541.207 857.875 542.232C856.813 543.392 856.885 544.923 857.875 546.085Z" fill="white"/>
<path d="M730.573 476.566H639.439C634.339 476.566 630.203 480.703 630.203 485.806V525.175C630.203 530.277 634.339 534.415 639.439 534.415H730.573C735.673 534.415 739.809 530.277 739.809 525.175V485.806C739.809 480.703 735.673 476.566 730.573 476.566Z" fill="#104CBA"/>
<path opacity="0.35" d="M682.309 476.566H639.439C634.339 476.566 630.203 480.703 630.203 485.806V525.175C630.203 530.277 634.339 534.415 639.439 534.415H685.114C684.408 515.121 683.466 495.839 682.309 476.566Z" fill="#104CBA"/>
<path d="M686.195 522.911L686.124 527.402L682.84 527.35L682.908 522.914C679.382 522.757 675.984 521.55 673.15 519.447L675.017 515.378C677.319 517.161 680.075 518.259 682.972 518.548L683.093 510.536C678.67 509.401 673.933 507.889 674.015 502.331C674.069 498.172 677.083 494.729 683.335 494.222L683.394 489.689L686.678 489.741L686.61 494.19C689.475 494.353 692.254 495.231 694.693 496.742L692.993 500.819C691.023 499.627 688.828 498.856 686.545 498.557L686.435 506.638C690.857 507.788 695.679 509.262 695.597 514.82C695.533 518.895 692.476 522.364 686.195 522.911ZM683.165 505.74L683.269 498.616C680.476 499.018 679.198 500.439 679.166 502.199C679.134 503.959 680.856 505.029 683.165 505.74ZM690.466 515.092C690.494 513.138 688.75 512.233 686.361 511.476L686.258 518.559C689.177 518.163 690.436 516.811 690.466 515.092Z" fill="white"/>
<path d="M701.186 487.336C706.159 487.701 711.144 487.819 716.13 487.692C717.487 487.657 718.792 486.52 718.727 485.093C718.665 483.714 717.584 482.457 716.13 482.494C711.144 482.621 706.157 482.503 701.186 482.138C699.828 482.039 698.528 483.404 698.588 484.737C698.655 486.229 699.731 487.23 701.186 487.336Z" fill="white"/>
<path d="M726.589 487.728C728.342 488.024 731.482 487.012 731.406 484.785C731.358 483.379 730.095 482.766 728.919 482.429C727.227 481.946 724.396 482.614 724.026 484.64C723.879 485.458 724.167 486.34 724.768 486.911C725.229 487.352 725.881 487.608 726.589 487.728Z" fill="white"/>
<path d="M596.89 495.583C594.862 479.888 580.502 468.812 564.817 470.84C555.149 472.09 547.25 478.033 543.073 486.077C539.466 470.727 524.762 460.29 508.788 462.355C495.417 464.083 485.167 474.072 482.412 486.523C476.584 475.183 464.131 468.13 450.762 469.858C440.016 471.249 431.271 477.971 426.819 487.02L415.066 396.035C412.864 378.978 397.255 366.938 380.205 369.142C363.155 371.345 351.12 386.961 353.323 404.019L377.766 593.239C378.662 606.838 377.561 618.515 370.428 616.007C369.712 615.755 369.024 615.538 368.348 615.334L334.977 592.643C317.916 581.044 294.68 585.474 283.086 602.541C271.488 619.61 275.919 642.854 292.98 654.458C292.98 654.458 357.467 697.402 369.853 708.13C388.803 724.54 419.715 762.469 427.967 768.838C436.222 775.205 576.725 753.46 583.437 752.594C589.833 751.767 622.095 717.712 612.353 615.293L596.89 495.583Z" fill="#FAAA98"/>
<path opacity="0.18" d="M465.229 736.59C411.366 621.809 395.988 494.386 385.128 368.933C383.505 368.885 381.863 368.927 380.201 369.141C363.151 371.345 351.116 386.961 353.319 404.019L377.762 593.238C378.658 606.838 377.557 618.515 370.424 616.006C369.708 615.755 369.02 615.538 368.344 615.334L334.973 592.642C317.912 581.044 294.676 585.474 283.082 602.541C271.484 619.61 275.915 642.854 292.977 654.458C292.977 654.458 357.463 697.402 369.849 708.13C388.799 724.54 419.711 762.472 427.963 768.838C431.113 771.268 453.524 769.603 480.404 766.567C475.061 756.719 469.985 746.728 465.229 736.59Z" fill="#FAAA98"/>
<path opacity="0.57" d="M485.39 513.705C485.39 513.705 481.41 489.99 482.412 486.525C483.416 483.06 487.09 511.499 485.39 513.705Z" fill="#FAAA98"/>
<path opacity="0.57" d="M544.709 505.539C544.709 505.539 541.684 489.237 542.689 485.772C543.693 482.305 546.409 503.331 544.709 505.539Z" fill="#FAAA98"/>
<path opacity="0.5" d="M432.559 536.321C432.559 536.321 425.69 490.247 426.694 486.782C427.696 483.317 436.006 531.846 432.559 536.321Z" fill="#FAAA98"/>
<path opacity="0.55" d="M399.245 401.487C398.882 402.857 398.831 404.37 398.968 405.56C399.333 408.699 399.492 412.816 401.542 415.407C402.796 416.99 405.198 417.332 406.655 415.812C409.707 412.626 406.763 405.435 406.892 401.529C406.955 399.637 405.465 398.161 403.644 397.918C401.122 397.583 399.808 399.359 399.245 401.487Z" fill="#FDD7CF"/>
<path opacity="0.55" d="M402.478 428.097C403.524 441.426 404.898 454.725 406.602 467.984C406.858 469.985 408.135 471.722 410.338 471.722C412.157 471.722 414.332 470.001 414.074 467.984C412.37 454.725 410.993 441.426 409.95 428.097C409.793 426.084 408.345 424.359 406.214 424.359C404.313 424.359 402.318 426.073 402.478 428.097Z" fill="#FDD7CF"/>
<path opacity="0.55" d="M452.281 483.062C454.765 483.166 457.009 483.321 459.388 484.308C461.461 485.169 463.93 485.92 465.225 483.467C466.216 481.591 465.627 479.51 463.886 478.354C459.917 475.723 454.927 474.966 450.311 475.982C448.401 476.402 447.104 478.729 447.702 480.579C448.256 482.295 449.604 482.954 451.311 483.023C451.636 483.037 451.962 483.051 452.281 483.062Z" fill="#FDD7CF"/>
<path opacity="0.55" d="M506.621 478.56C508.837 478.232 511.096 477.888 513.342 478.086C515.55 478.28 517.868 479.851 520.092 479.237C520.957 478.999 521.897 478.327 522.324 477.52C523.181 475.899 522.895 473.249 520.985 472.408C517.332 470.8 513.287 470.054 509.306 470.456C506.475 470.743 500.682 471.854 502.044 476.067C502.862 478.602 504.665 478.851 506.621 478.56Z" fill="#FDD7CF"/>
<path opacity="0.55" d="M526.957 486.56C527.696 487.722 528.433 488.886 529.172 490.048C531.638 493.933 538.025 490.418 535.623 486.276C534.884 485.114 534.148 483.949 533.409 482.785C532.314 481.059 530.024 480.38 528.225 481.494C526.533 482.54 525.965 484.848 526.957 486.56Z" fill="#FDD7CF"/>
<path opacity="0.55" d="M577.642 489.018C578.259 491.231 579.259 493.305 580.138 495.419C580.831 497.084 580.981 499.357 582.438 500.596C584.08 501.993 586.992 501.54 588.017 499.598C588.516 498.653 588.557 497.766 588.393 496.717C587.765 492.674 586.243 488.722 584.071 485.259C583.56 484.446 582.773 483.799 581.838 483.543C580.944 483.296 579.753 483.406 578.961 483.919C577.123 485.107 577.104 487.086 577.642 489.018Z" fill="#FDD7CF"/>
<path opacity="0.55" d="M583.395 512.841C585.529 529.647 587.663 546.45 589.794 563.256C590.05 565.275 591.327 566.971 593.53 566.994C595.352 567.012 597.52 565.259 597.266 563.256C595.132 546.45 592.999 529.647 590.867 512.841C590.611 510.822 589.334 509.127 587.131 509.104C585.307 509.085 583.141 510.839 583.395 512.841Z" fill="#FDD7CF"/>
<path d="M792.721 144.291C793.012 152.61 790.83 160.828 786.451 167.907C782.072 174.985 775.693 180.606 768.12 184.059C760.548 187.512 752.122 188.641 743.907 187.304C735.693 185.967 728.06 182.224 721.972 176.548C715.885 170.872 711.617 163.517 709.708 155.415C707.799 147.313 708.335 138.827 711.248 131.029C714.161 123.232 719.32 116.473 726.073 111.608C732.826 106.743 740.869 103.99 749.186 103.697C760.341 103.308 771.193 107.366 779.357 114.978C787.52 122.591 792.328 133.134 792.721 144.291V144.291Z" fill="#104CBA"/>
<g opacity="0.1">
<path d="M749.187 103.698C738.034 104.091 727.494 108.9 719.885 117.066C712.277 125.232 708.223 136.086 708.616 147.242C708.616 147.242 738.202 147.533 744.893 135.369C751.583 123.204 749.187 103.698 749.187 103.698Z" fill="white"/>
</g>
<path d="M781.946 144C782.167 150.322 780.508 156.568 777.18 161.948C773.852 167.328 769.004 171.6 763.248 174.224C757.493 176.848 751.089 177.706 744.846 176.69C738.603 175.674 732.801 172.829 728.175 168.516C723.548 164.202 720.304 158.613 718.853 152.455C717.402 146.297 717.809 139.847 720.022 133.921C722.236 127.994 726.157 122.858 731.289 119.16C736.421 115.462 742.534 113.369 748.855 113.146C753.054 112.998 757.24 113.679 761.175 115.149C765.111 116.62 768.718 118.851 771.791 121.716C774.864 124.582 777.342 128.024 779.085 131.848C780.827 135.671 781.8 139.8 781.946 144V144Z" fill="#104CBA"/>
<g opacity="0.2">
<path d="M781.946 144C782.167 150.322 780.508 156.568 777.18 161.948C773.852 167.328 769.004 171.6 763.248 174.224C757.493 176.848 751.089 177.706 744.846 176.69C738.603 175.674 732.801 172.829 728.175 168.516C723.548 164.202 720.304 158.613 718.853 152.455C717.402 146.297 717.809 139.847 720.022 133.921C722.236 127.994 726.157 122.858 731.289 119.16C736.421 115.462 742.534 113.369 748.855 113.146C753.054 112.998 757.24 113.679 761.175 115.149C765.111 116.62 768.718 118.851 771.791 121.716C774.864 124.582 777.342 128.024 779.085 131.848C780.827 135.671 781.8 139.8 781.946 144V144Z" fill="black"/>
</g>
<path d="M782.886 145.302C783.096 151.539 781.452 157.698 778.163 163.001C774.874 168.304 770.087 172.513 764.407 175.095C758.728 177.677 752.41 178.517 746.253 177.509C740.095 176.501 734.375 173.69 729.815 169.431C725.255 165.172 722.06 159.656 720.633 153.581C719.206 147.506 719.612 141.144 721.799 135.3C723.987 129.455 727.857 124.391 732.921 120.746C737.986 117.101 744.017 115.04 750.252 114.823C754.396 114.678 758.528 115.352 762.412 116.806C766.296 118.26 769.855 120.466 772.885 123.297C775.916 126.127 778.359 129.528 780.075 133.304C781.791 137.08 782.746 141.157 782.886 145.302V145.302Z" fill="white"/>
<path d="M752.509 143.626L752.232 135.562C753.71 135.685 755.164 136.012 756.553 136.532C757.272 136.865 757.959 137.263 758.603 137.724L758.7 137.474L759.85 134.523L760.113 133.844L758.617 132.376L757.938 132.722C756.097 131.821 754.087 131.316 752.038 131.24L751.885 126.793L750.5 125.726V126.848H748.603L748.755 131.378C742.55 132.196 739.71 135.853 739.849 139.927C740.042 145.468 744.863 146.757 749.337 147.685L749.614 155.679C746.703 155.549 743.891 154.588 741.511 152.908L739.849 157.064C742.794 159.031 746.267 160.056 749.808 160.001L749.919 163.354L748.367 163.437L749.96 164.449L753.243 164.324L753.077 159.849C759.337 158.99 762.205 155.36 762.066 151.287C761.872 145.787 756.983 144.554 752.509 143.626ZM749.198 142.905C746.857 142.309 745.112 141.52 745.043 139.566C744.974 137.613 746.137 136.324 748.949 135.784L749.198 142.905ZM752.924 155.54L752.675 148.475C755.099 149.07 756.9 149.86 756.969 151.883C757.024 153.601 755.833 155 752.924 155.54Z" fill="#104CBA"/>
<g opacity="0.3">
<path d="M752.509 143.626L752.232 135.562C753.71 135.685 755.164 136.012 756.553 136.532C757.272 136.865 757.959 137.263 758.603 137.724L758.7 137.474L759.85 134.523L760.113 133.844L758.617 132.376L757.938 132.722C756.097 131.821 754.087 131.316 752.038 131.24L751.885 126.793L750.5 125.726V126.848H748.603L748.755 131.378C742.55 132.196 739.71 135.853 739.849 139.927C740.042 145.468 744.863 146.757 749.337 147.685L749.614 155.679C746.703 155.549 743.891 154.588 741.511 152.908L739.849 157.064C742.794 159.031 746.267 160.056 749.808 160.001L749.919 163.354L748.367 163.437L749.96 164.449L753.243 164.324L753.077 159.849C759.337 158.99 762.205 155.36 762.066 151.287C761.872 145.787 756.983 144.554 752.509 143.626ZM749.198 142.905C746.857 142.309 745.112 141.52 745.043 139.566C744.974 137.613 746.137 136.324 748.949 135.784L749.198 142.905ZM752.924 155.54L752.675 148.475C755.099 149.07 756.9 149.86 756.969 151.883C757.024 153.601 755.833 155 752.924 155.54Z" fill="black"/>
</g>
<path d="M751.693 158.852L751.845 163.34L748.562 163.451L748.41 159.018C744.881 159.036 741.427 157.999 738.492 156.039L740.154 151.883C742.542 153.549 745.35 154.509 748.257 154.654L747.98 146.646C743.506 145.732 738.7 144.457 738.506 138.901C738.354 134.745 741.193 131.157 747.412 130.339L747.246 125.809L750.529 125.698L750.681 130.145C753.551 130.166 756.37 130.904 758.881 132.293L757.385 136.449C755.359 135.356 753.128 134.695 750.834 134.51L751.125 142.587C755.599 143.515 760.488 144.748 760.682 150.304C760.821 154.377 757.94 157.993 751.693 158.852ZM747.814 141.852L747.565 134.731C744.795 135.272 743.589 136.754 743.645 138.514C743.7 140.273 745.473 141.257 747.814 141.852ZM755.571 150.83C755.502 148.877 753.715 148.059 751.291 147.422L751.54 154.501C754.435 153.961 755.626 152.548 755.571 150.83Z" fill="#104CBA"/>
<path d="M715.541 166.749C715.541 166.749 715.458 166.652 715.334 166.43L714.793 165.488C714.558 165.086 714.281 164.573 713.99 163.964C713.699 163.354 713.353 162.675 713.048 161.886C712.896 161.484 712.729 161.082 712.549 160.653C712.369 160.223 712.245 159.766 712.078 159.267C711.732 158.325 711.469 157.3 711.178 156.219C709.973 151.499 709.607 146.603 710.098 141.755C710.222 140.647 710.333 139.58 710.541 138.61C710.624 138.112 710.693 137.641 710.804 137.225C710.915 136.809 711.012 136.338 711.123 135.923C711.289 135.105 711.552 134.371 711.732 133.734C711.912 133.096 712.12 132.542 712.3 132.099C712.48 131.656 712.591 131.351 712.688 131.088C712.727 130.965 712.783 130.848 712.854 130.741C712.835 130.869 712.803 130.994 712.757 131.115C712.66 131.378 712.549 131.725 712.411 132.14C712.272 132.556 712.078 133.138 711.912 133.775C711.746 134.413 711.497 135.161 711.33 135.978C711.238 136.394 711.141 136.823 711.04 137.267C710.943 137.724 710.887 138.195 710.79 138.652C710.61 139.622 710.513 140.675 710.375 141.783C710.177 144.189 710.154 146.606 710.305 149.015C710.509 151.419 710.893 153.804 711.455 156.15C711.746 157.217 711.995 158.242 712.328 159.184C712.48 159.655 712.619 160.112 712.785 160.57L713.256 161.803C713.547 162.592 713.879 163.271 714.156 163.881C714.433 164.49 714.682 165.017 714.904 165.433L715.389 166.402C715.455 166.51 715.507 166.627 715.541 166.749V166.749Z" fill="white"/>
<path d="M741.346 142.185C740.959 141.972 740.631 141.668 740.39 141.298C739.74 140.435 739.386 139.386 739.379 138.305C739.39 137.226 739.744 136.178 740.39 135.313C740.632 134.936 740.966 134.626 741.36 134.412C741.36 134.412 740.999 134.773 740.57 135.438C740.002 136.286 739.699 137.284 739.699 138.305C739.699 139.327 740.002 140.325 740.57 141.173C740.999 141.824 741.387 142.143 741.346 142.185Z" fill="white"/>
<path d="M748.064 129.688C747.897 129.275 747.826 128.83 747.856 128.386C747.784 127.922 747.821 127.447 747.967 127C748.064 127 748.147 127.582 748.175 128.317C748.249 128.776 748.211 129.247 748.064 129.688Z" fill="white"/>
<path d="M751.721 112.218C751.375 112.254 751.027 112.254 750.682 112.218C750.363 112.218 749.948 112.218 749.491 112.218C749.034 112.218 748.479 112.218 747.898 112.218C747.316 112.218 746.665 112.218 745.972 112.37C745.28 112.523 744.587 112.55 743.784 112.661C742.123 112.961 740.485 113.373 738.88 113.894C737.28 114.443 735.72 115.106 734.213 115.875C733.534 116.249 732.827 116.582 732.287 116.956C731.747 117.33 731.151 117.663 730.667 117.995C730.182 118.328 729.752 118.646 729.378 118.923C729.004 119.2 728.672 119.45 728.423 119.658C728.176 119.897 727.901 120.106 727.605 120.281C727.833 120.029 728.079 119.793 728.34 119.574C728.589 119.339 728.894 119.076 729.268 118.785C729.642 118.494 730.043 118.147 730.542 117.815C731.041 117.482 731.553 117.095 732.149 116.734C732.744 116.374 733.395 116 734.074 115.612C735.587 114.827 737.157 114.156 738.77 113.603C740.391 113.076 742.048 112.668 743.728 112.384C744.518 112.273 745.252 112.149 745.945 112.107C746.637 112.065 747.33 112.01 747.884 111.996C748.438 111.982 749.02 111.996 749.491 111.996C749.962 111.996 750.363 111.996 750.696 111.996L751.721 112.218Z" fill="white"/>
<path d="M757.177 185.48C756.939 185.575 756.693 185.649 756.443 185.701C755.759 185.885 755.065 186.028 754.365 186.131C752.076 186.505 749.753 186.616 747.439 186.463C745.09 186.309 742.766 185.886 740.513 185.203C739.669 184.926 738.976 184.69 738.519 184.482C738.274 184.398 738.038 184.291 737.812 184.164C738.07 184.201 738.321 184.271 738.56 184.371C739.031 184.538 739.724 184.745 740.583 184.981C742.814 185.601 745.102 185.995 747.411 186.159C749.722 186.307 752.042 186.228 754.337 185.923C755.224 185.798 755.93 185.674 756.429 185.591C756.672 185.52 756.923 185.482 757.177 185.48V185.48Z" fill="white"/>
<path d="M182.131 51.9284C182.422 60.2474 180.24 68.4658 175.861 75.5445C171.482 82.6232 165.103 88.2442 157.531 91.6968C149.958 95.1494 141.532 96.2787 133.318 94.9416C125.103 93.6046 117.47 89.8614 111.382 84.1853C105.295 78.5092 101.027 71.1552 99.1181 63.053C97.2091 54.9509 97.745 46.4645 100.658 38.6669C103.571 30.8694 108.73 24.1108 115.483 19.2459C122.236 14.3809 130.279 11.6279 138.597 11.3352C149.751 10.9462 160.603 15.0039 168.767 22.6161C176.931 30.2284 181.738 40.7719 182.131 51.9284V51.9284Z" fill="#104CBA"/>
<g opacity="0.1">
<path d="M138.597 11.3352C127.444 11.7288 116.904 16.5375 109.296 24.7035C101.687 32.8695 97.6334 43.724 98.0261 54.8794C98.0261 54.8794 127.613 55.1704 134.303 43.0062C140.993 30.8421 138.597 11.3352 138.597 11.3352Z" fill="white"/>
</g>
<path d="M171.352 51.6374C171.573 57.9601 169.915 64.2062 166.586 69.586C163.258 74.9658 158.41 79.2379 152.655 81.8619C146.899 84.4859 140.495 85.3441 134.252 84.328C128.009 83.3118 122.208 80.467 117.581 76.1532C112.954 71.8394 109.71 66.2502 108.259 60.0925C106.808 53.9348 107.215 47.485 109.429 41.5585C111.642 35.6321 115.563 30.4953 120.695 26.7974C125.827 23.0996 131.94 21.0068 138.262 20.7838C142.46 20.6357 146.646 21.3163 150.582 22.7868C154.517 24.2573 158.124 26.4889 161.197 29.354C164.27 32.2192 166.749 35.6618 168.491 39.4853C170.234 43.3087 171.206 47.4381 171.352 51.6374V51.6374Z" fill="#104CBA"/>
<g opacity="0.2">
<path d="M171.352 51.6374C171.573 57.9601 169.915 64.2062 166.586 69.586C163.258 74.9658 158.41 79.2379 152.655 81.8619C146.899 84.4859 140.495 85.3441 134.252 84.328C128.009 83.3118 122.208 80.467 117.581 76.1532C112.954 71.8394 109.71 66.2502 108.259 60.0925C106.808 53.9348 107.215 47.485 109.429 41.5585C111.642 35.6321 115.563 30.4953 120.695 26.7974C125.827 23.0996 131.94 21.0068 138.262 20.7838C142.46 20.6357 146.646 21.3163 150.582 22.7868C154.517 24.2573 158.124 26.4889 161.197 29.354C164.27 32.2192 166.749 35.6618 168.491 39.4853C170.234 43.3087 171.206 47.4381 171.352 51.6374V51.6374Z" fill="black"/>
</g>
<path d="M172.296 52.9398C172.506 59.1768 170.862 65.3359 167.573 70.6388C164.284 75.9417 159.497 80.1503 153.818 82.7326C148.138 85.315 141.82 86.1551 135.663 85.147C129.506 84.1388 123.786 81.3275 119.225 77.0684C114.665 72.8093 111.47 67.2937 110.043 61.2186C108.616 55.1435 109.022 48.7817 111.21 42.9373C113.397 37.0929 117.267 32.0283 122.332 28.3835C127.396 24.7387 133.427 22.6775 139.662 22.4603C143.806 22.3159 147.939 22.99 151.822 24.4441C155.706 25.8981 159.265 28.1036 162.296 30.9343C165.326 33.7651 167.77 37.1656 169.486 40.9415C171.202 44.7174 172.157 48.7945 172.296 52.9398V52.9398Z" fill="white"/>
<path d="M141.919 51.2633L141.642 43.2001C143.12 43.3232 144.574 43.6495 145.963 44.1699C146.682 44.5023 147.369 44.9012 148.013 45.3614L148.11 45.112L149.26 42.161L149.523 41.4822L148.027 40.0136L147.349 40.36C145.507 39.4588 143.497 38.9538 141.448 38.8776L141.296 34.4303L139.91 33.3635V34.4857H138.013L138.165 39.0161C131.96 39.8335 129.12 43.4911 129.259 47.5642C129.453 53.106 134.273 54.3944 138.747 55.3227L139.024 63.3166C136.114 63.1868 133.302 62.2252 130.921 60.5458L129.259 64.7021C132.204 66.669 135.677 67.6934 139.218 67.6392L139.329 70.992L137.777 71.0751L139.37 72.0864L142.653 71.9617L142.487 67.4868C148.748 66.6278 151.615 62.998 151.476 58.9248C151.282 53.4246 146.393 52.1916 141.919 51.2633ZM138.608 50.5429C136.268 49.9472 134.522 49.1575 134.453 47.204C134.384 45.2506 135.547 43.9621 138.359 43.4218L138.608 50.5429ZM142.334 63.1781L142.085 56.1124C144.509 56.7081 146.31 57.4978 146.379 59.5206C146.434 61.2385 145.243 62.6378 142.334 63.1781Z" fill="#104CBA"/>
<g opacity="0.3">
<path d="M141.919 51.2633L141.642 43.2001C143.12 43.3232 144.574 43.6495 145.963 44.1699C146.682 44.5023 147.369 44.9012 148.013 45.3614L148.11 45.112L149.26 42.161L149.523 41.4822L148.027 40.0136L147.349 40.36C145.507 39.4588 143.497 38.9538 141.448 38.8776L141.296 34.4303L139.91 33.3635V34.4857H138.013L138.165 39.0161C131.96 39.8335 129.12 43.4911 129.259 47.5642C129.453 53.106 134.273 54.3944 138.747 55.3227L139.024 63.3166C136.114 63.1868 133.302 62.2252 130.921 60.5458L129.259 64.7021C132.204 66.669 135.677 67.6934 139.218 67.6392L139.329 70.992L137.777 71.0751L139.37 72.0864L142.653 71.9617L142.487 67.4868C148.748 66.6278 151.615 62.998 151.476 58.9248C151.282 53.4246 146.393 52.1916 141.919 51.2633ZM138.608 50.5429C136.268 49.9472 134.522 49.1575 134.453 47.204C134.384 45.2506 135.547 43.9621 138.359 43.4218L138.608 50.5429ZM142.334 63.1781L142.085 56.1124C144.509 56.7081 146.31 57.4978 146.379 59.5206C146.434 61.2385 145.243 62.6378 142.334 63.1781Z" fill="black"/>
</g>
<path d="M141.103 66.4894L141.255 70.9782L137.972 71.089L137.82 66.6556C134.291 66.6737 130.837 65.6364 127.902 63.677L129.565 59.5207C131.952 61.1864 134.76 62.1466 137.668 62.2915L137.391 54.2837C132.917 53.3693 128.11 52.0947 127.916 46.5391C127.764 42.3828 130.603 38.7945 136.823 37.9771L136.656 33.4468L139.939 33.3359L140.092 37.7832C142.961 37.8037 145.78 38.5419 148.292 39.9306L146.796 44.0869C144.77 42.9935 142.539 42.3331 140.244 42.1473L140.535 50.2244C145.009 51.1526 149.898 52.3857 150.092 57.9412C150.231 62.0144 147.35 65.6304 141.103 66.4894ZM137.224 49.4901L136.975 42.369C134.205 42.9093 133 44.3917 133.055 46.1512C133.11 47.9107 134.883 48.8944 137.224 49.4901ZM144.981 58.4677C144.912 56.5143 143.125 55.6968 140.701 55.0595L140.95 62.1391C143.845 61.5988 145.036 60.1857 144.981 58.4677Z" fill="#104CBA"/>
<path d="M104.951 74.3863C104.951 74.3863 104.868 74.2894 104.744 74.0677L104.203 73.1256C103.968 72.7238 103.691 72.2112 103.4 71.6016C103.109 70.992 102.763 70.3131 102.458 69.5234C102.306 69.1217 102.14 68.7199 101.96 68.2904C101.779 67.861 101.655 67.4038 101.489 66.905C101.142 65.9629 100.879 64.9377 100.588 63.857C99.3833 59.1363 99.0176 54.2405 99.5078 49.3931C99.6325 48.2848 99.7433 47.218 99.9511 46.2482C100.034 45.7494 100.103 45.2784 100.214 44.8627C100.325 44.4471 100.422 43.976 100.533 43.5604C100.699 42.743 100.962 42.0087 101.142 41.3714C101.322 40.7341 101.53 40.18 101.71 39.7366C101.89 39.2933 102.001 38.9885 102.098 38.7253C102.137 38.6027 102.193 38.4861 102.264 38.3789C102.246 38.5067 102.213 38.6321 102.167 38.753C102.07 39.0162 101.96 39.3626 101.821 39.7782C101.683 40.1938 101.489 40.7757 101.322 41.413C101.156 42.0503 100.907 42.7984 100.741 43.6158C100.648 44.0315 100.551 44.461 100.45 44.9043C100.353 45.3615 100.297 45.8325 100.2 46.2897C100.02 47.2595 99.9234 48.3125 99.7849 49.4208C99.5869 51.8266 99.5637 54.2436 99.7156 56.6528C99.9191 59.0566 100.303 61.4417 100.865 63.7878C101.156 64.8546 101.406 65.8798 101.738 66.8219C101.89 67.2929 102.029 67.7501 102.195 68.2073L102.666 69.4403C102.957 70.23 103.289 70.9089 103.566 71.5185C103.843 72.1281 104.093 72.6546 104.314 73.0702L104.799 74.04C104.865 74.1479 104.917 74.2645 104.951 74.3863V74.3863Z" fill="white"/>
<path d="M130.756 49.8223C130.369 49.6102 130.041 49.3056 129.8 48.9357C129.151 48.0727 128.796 47.0234 128.789 45.9431C128.8 44.8635 129.154 43.8154 129.8 42.9506C130.042 42.5735 130.376 42.2637 130.77 42.05C130.77 42.05 130.41 42.4103 129.98 43.0753C129.412 43.9238 129.109 44.9219 129.109 45.9431C129.109 46.9643 129.412 47.9625 129.98 48.811C130.41 49.4621 130.797 49.7808 130.756 49.8223Z" fill="white"/>
<path d="M137.474 37.3259C137.307 36.9132 137.236 36.4679 137.266 36.0236C137.194 35.5595 137.232 35.0848 137.377 34.6382C137.474 34.6382 137.557 35.2201 137.585 35.9544C137.659 36.4138 137.621 36.8843 137.474 37.3259Z" fill="white"/>
<path d="M141.131 19.8555C140.785 19.8915 140.437 19.8915 140.092 19.8555C139.773 19.8555 139.358 19.8555 138.901 19.8555C138.444 19.8555 137.89 19.8555 137.308 19.8555C136.726 19.8555 136.075 19.8555 135.383 20.0079C134.69 20.1603 133.997 20.188 133.194 20.2988C131.534 20.5988 129.895 21.0107 128.291 21.5319C126.69 22.0812 125.13 22.7432 123.623 23.513C122.944 23.8871 122.238 24.2196 121.697 24.5937C121.157 24.9677 120.562 25.3003 120.077 25.6328C119.592 25.9653 119.163 26.2839 118.789 26.561C118.415 26.8381 118.082 27.0875 117.833 27.2953C117.586 27.5344 117.311 27.7436 117.016 27.9187C117.244 27.6664 117.489 27.4303 117.75 27.2122C117.999 26.9766 118.304 26.7134 118.678 26.4225C119.052 26.1315 119.453 25.7852 119.952 25.4527C120.451 25.1202 120.963 24.7322 121.559 24.372C122.154 24.0118 122.805 23.6377 123.484 23.2498C124.998 22.4648 126.567 21.7933 128.18 21.2409C129.801 20.7137 131.458 20.3062 133.139 20.0218C133.928 19.9109 134.662 19.7862 135.355 19.7447C136.047 19.7031 136.74 19.6477 137.294 19.6338C137.848 19.62 138.43 19.6338 138.901 19.6338C139.372 19.6338 139.773 19.6338 140.106 19.6338L141.131 19.8555Z" fill="white"/>
<path d="M146.587 93.1174C146.349 93.2125 146.103 93.2866 145.853 93.3391C145.169 93.5227 144.475 93.6661 143.775 93.7686C141.487 94.1426 139.163 94.2542 136.849 94.1011C134.5 93.9463 132.177 93.5233 129.924 92.8403C129.079 92.5633 128.386 92.3277 127.929 92.1199C127.684 92.0352 127.448 91.9286 127.223 91.8013C127.48 91.8385 127.731 91.9083 127.971 92.0091C128.442 92.1753 129.134 92.3831 129.993 92.6187C132.224 93.2386 134.512 93.6331 136.822 93.7963C139.132 93.9448 141.452 93.8659 143.747 93.5608C144.634 93.4361 145.34 93.3114 145.839 93.2283C146.082 93.1573 146.334 93.12 146.587 93.1174V93.1174Z" fill="white"/>
</g>
<defs>
<linearGradient id="paint0_linear_196_6093" x1="279.37" y1="120.275" x2="280.549" y2="178.035" gradientUnits="userSpaceOnUse">
<stop stop-color="#104CBA"/>
<stop offset="1" stop-color="#85B0FF"/>
</linearGradient>
<linearGradient id="paint1_linear_196_6093" x1="599.12" y1="146.139" x2="605.078" y2="56.8175" gradientUnits="userSpaceOnUse">
<stop stop-color="#104CBA"/>
<stop offset="1" stop-color="#104CBA" stop-opacity="0.15"/>
</linearGradient>
<linearGradient id="paint2_linear_196_6093" x1="118.476" y1="370.457" x2="309.823" y2="370.457" gradientUnits="userSpaceOnUse">
<stop stop-color="#104CBA" stop-opacity="0.21"/>
<stop offset="1" stop-color="#3E7EF3"/>
</linearGradient>
<linearGradient id="paint3_linear_196_6093" x1="838.533" y1="637.493" x2="841.927" y2="527.232" gradientUnits="userSpaceOnUse">
<stop stop-color="#104CBA"/>
<stop offset="1" stop-color="#4573B8"/>
</linearGradient>
<clipPath id="clip0_196_6093">
<rect width="963" height="770" fill="white"/>
</clipPath>
</defs>
</svg>
