<svg xmlns="http://www.w3.org/2000/svg" width="117.987" height="150" viewBox="0 0 117.987 150">
  <g id="Listed_in_Top_100" data-name="Listed in Top 100" transform="translate(-105.313 -113.045)">
    <path id="Path_17970" data-name="Path 17970" d="M133.892,132.707c0-1.709-.009-3.06,0-4.41.027-3.485.967-4.495,4.519-4.609,2.635-.085,5.284.115,7.9-.1a3.763,3.763,0,0,0,2.619-1.556c3.375-6,8.4-9.09,15.277-8.989,6.771.1,12.013,2.834,15.219,9.063a3.362,3.362,0,0,0,2.368,1.484c2.524.2,5.073.044,7.613.079,4.411.059,5.315.981,5.324,5.328,0,1.066,0,2.133,0,3.7,4.115,0,8.07.034,12.023-.009,4.021-.045,7.746.765,10.912,3.424a15.376,15.376,0,0,1,5.611,12.359q.018,49.955-.019,99.91c-.015,8.523-6.083,14.592-14.619,14.612q-44.388.1-88.776-.006c-8.4-.023-14.479-6.078-14.5-14.43q-.111-50.1,0-100.2c.022-9.2,6.23-15.349,15.444-15.625C125.087,132.6,129.366,132.707,133.892,132.707Zm0,7.185c-4.16,0-7.949-.006-11.737,0-6.838.013-9.555,2.72-9.556,9.553q-.007,48.9,0,97.8c0,6.105,2.52,8.684,8.674,8.69q43.044.034,86.088,0c6.149,0,8.666-2.587,8.666-8.695q0-48.9,0-97.8c0-.781.016-1.564-.04-2.341-.237-3.273-2.58-6.649-5.736-6.9-5.089-.4-10.234-.108-15.513-.108v3.734c0,1.269.029,2.538-.007,3.807-.09,3.185-1.5,4.637-4.685,4.642q-25.768.035-51.536,0c-3.227,0-4.548-1.369-4.608-4.652C133.857,145.2,133.892,142.766,133.892,139.892Zm53.691,5.223c0-4.41.084-8.491-.094-12.561-.026-.581-1.29-1.518-2.042-1.582-2.42-.209-4.868-.081-7.306-.094a4.272,4.272,0,0,1-4.457-3.41c-1.533-4.921-5.386-7.96-9.692-7.873a10.4,10.4,0,0,0-9.557,7.739c-.785,2.622-2.376,3.6-4.926,3.562-2.7-.037-5.407-.008-8.206-.008v14.227Z" transform="translate(0 0)"/>
    <path id="Path_17973" data-name="Path 17973" d="M217.933,269.452c-6.136,0-12.273.012-18.41-.01-.967,0-2.174.173-2.844-.317-1.054-.771-2.359-2-2.417-3.1s1.128-2.431,2.071-3.349c.509-.5,1.653-.454,2.511-.455q19.287-.038,38.573,0c3.106.007,4.7,1.287,4.735,3.579s-1.539,3.617-4.641,3.641C230.986,269.486,224.46,269.45,217.933,269.452Z" transform="translate(-36.825 -61.751)"/>
    <path id="Path_17974" data-name="Path 17974" d="M218.033,318.141c-6.528,0-13.056-.023-19.584.012-2.423.013-4.295-.633-4.46-3.42-.142-2.4,1.433-3.685,4.526-3.689q19.437-.033,38.875,0c3.107,0,4.649,1.251,4.642,3.612-.005,2.329-1.5,3.47-4.708,3.481C230.895,318.158,224.464,318.141,218.033,318.141Z" transform="translate(-36.709 -81.967)"/>
    <path id="Path_17975" data-name="Path 17975" d="M218.254,213.706c6.526,0,13.053-.027,19.579.014,2.886.018,4.459,1.323,4.316,3.559-.174,2.729-2.023,3.555-4.428,3.556q-19.579.015-39.158.008c-2.007,0-3.984-.519-4.242-2.673a5.922,5.922,0,0,1,1.609-3.926c.516-.6,1.993-.512,3.038-.519C205.4,213.684,211.825,213.7,218.254,213.706Z" transform="translate(-36.843 -41.672)"/>
    <path id="Path_17976" data-name="Path 17976" d="M146.882,259.49c3.205-3.069,6.348-6.091,9.509-9.094.775-.737,1.555-1.9,2.432-2,1.461-.169,3.572-.144,4.349.737s.918,3.556.176,4.323c-4.666,4.827-9.6,9.405-14.573,13.918-1.507,1.367-3.286.907-4.7-.535-2.318-2.367-4.63-4.74-6.913-7.141-1.579-1.661-1.791-3.546-.171-5.2,1.674-1.708,3.54-1.3,5.164.257C143.7,256.232,145.175,257.774,146.882,259.49Z" transform="translate(-12.653 -56.003)" fill="#104cba"/>
    <path id="Path_17977" data-name="Path 17977" d="M147.055,210.162c3.427-3.239,6.875-6.526,10.356-9.777,2.156-2.013,4.381-2.233,5.841-.49,1.736,2.073,1.032,3.887-.78,5.582-4.266,3.991-8.453,8.068-12.724,12.053-2.156,2.012-3.98,1.939-6.081-.165q-3.3-3.308-6.489-6.728c-1.635-1.757-1.868-3.749-.015-5.4,1.769-1.575,3.572-.938,5.171.6C143.8,207.257,145.338,208.6,147.055,210.162Z" transform="translate(-12.647 -35.47)" fill="#104cba"/>
    <path id="Path_17978" data-name="Path 17978" d="M146.992,307.719c3.447-3.3,6.882-6.608,10.353-9.884,2.27-2.142,4.172-2.313,5.862-.616,1.607,1.614,1.3,3.721-.884,5.808-4.094,3.9-8.18,7.811-12.32,11.662-2.777,2.584-3.885,2.508-6.612-.241-2.06-2.077-4.128-4.146-6.141-6.268-1.641-1.729-1.981-3.7-.148-5.41,1.734-1.62,3.56-1.105,5.172.459C143.742,304.652,145.235,306.049,146.992,307.719Z" transform="translate(-12.649 -75.776)" fill="#104cba"/>
  </g>
</svg>
