<svg xmlns="http://www.w3.org/2000/svg" width="146" height="105.064" viewBox="0 0 146 105.064">
  <g id="Group_11332" data-name="Group 11332" transform="translate(14732 23146)">
    <path id="Subtraction_15" data-name="Subtraction 15" d="M8.918,79.524a25.8,25.8,0,0,1-3.945-.254c-.04-.008-.412-.105-1.181-.967a15.853,15.853,0,0,1-1.228-1.612,6.447,6.447,0,0,1-.047-1.478c.009-.23.021-.546.021-.852-.016-23.191-.014-45.823-.01-66.825,0-2.361.253-3.662.819-4.218S5.252,2.5,7.663,2.5H47.812l29.9,0c1.908,0,3.106.27,3.664.826s.828,1.748.83,3.648c.006,4.927,0,9.825,0,14.563v3.3q0,1.617,0,3.235v1H76.5V16.363c0-.444-.008-.9-.014-1.27v-.049c-.015-.881-.031-1.792.025-2.651a4.1,4.1,0,0,0-.944-3.2A4.027,4.027,0,0,0,72.49,8.052c-.089,0-.165,0-.239,0h-.007c-1.735.054-3.183.079-4.556.079-1.446,0-2.781-.029-4.08-.09-.147-.007-.3-.011-.449-.011a4.41,4.41,0,0,0-3.2,1.132,4.822,4.822,0,0,0-1.125,3.558c.068,3.993.06,8.065.051,12v.193c-.005,2.7-.011,5.488.007,8.3.014,2.188-.338,3.036-1.507,3.63a2.723,2.723,0,0,1-1.246.335,4.855,4.855,0,0,1-2.655-1.152c-2.242-1.579-4.473-3.077-6.836-4.664l-.052-.035c-.915-.614-1.951-1.31-2.993-2.014l-1.166-.791-1.138.833q-1.224.9-2.417,1.767l-.449.328c-2.139,1.56-4.347,3.171-6.546,4.8a3.936,3.936,0,0,1-2.263.943,2.828,2.828,0,0,1-1.328-.369c-.912-.482-1.476-1.17-1.468-3.112.009-2.456.007-4.95,0-7.361v-.832c-.007-3.763-.015-8.447.038-12.893a4.734,4.734,0,0,0-1.111-3.48A4.2,4.2,0,0,0,22.609,8.04c-.076,0-.158,0-.258,0h-.017c-1.39.044-2.913.064-4.794.064-.95,0-2.07,0-3.425-.014H13.85c-1.019-.007-2.174-.014-3.339-.014h-2V73.706l3.2.2.848.051.248.015v5.47l-.119,0-.893.026-.079,0C10.794,79.5,9.839,79.524,8.918,79.524ZM32.477,8.3V31.4l3.584-4.649c2.116-2.743,4.145-4.076,6.2-4.076,2.1,0,4.5,1.342,7.559,4.224l3.371,3.175V8.3Z" transform="translate(-14692.854 -23148.5)"/>
    <path id="Subtraction_17" data-name="Subtraction 17" d="M35.97,69.422h-.116A33.251,33.251,0,0,1,12.208,59.377,32.911,32.911,0,0,1,2.5,35.876,33.787,33.787,0,0,1,36.252,2.5h.123a33.657,33.657,0,0,1,33.45,33.741C69.778,54.537,54.59,69.422,35.97,69.422Zm.139-61.21a27.716,27.716,0,0,0-10.7,2.14,28.288,28.288,0,0,0-8.83,5.806,27.58,27.58,0,0,0-6.043,8.58,26.065,26.065,0,0,0-2.3,10.477,28.919,28.919,0,0,0,2.142,11.274,28.018,28.018,0,0,0,6.053,9.157,27.523,27.523,0,0,0,19.7,8.191h.113A27.875,27.875,0,0,0,47.092,61.6,28.3,28.3,0,0,0,61.987,46.79a27.547,27.547,0,0,0,.04-21.573A27.621,27.621,0,0,0,56.053,16.4a27.96,27.96,0,0,0-8.876-5.959A28.315,28.315,0,0,0,36.288,8.212Z" transform="translate(-14655.826 -23110.357)"/>
    <path id="Subtraction_20" data-name="Subtraction 20" d="M27.95,8H2.5V2.5H27.95v5.5Z" transform="translate(-14734.5 -23112.758)" fill="#104cba"/>
    <path id="Subtraction_21" data-name="Subtraction 21" d="M16.788,7.653H2.5V2.5H16.788V7.652Z" transform="translate(-14723.33 -23135.541)" fill="#104cba"/>
    <path id="Subtraction_19" data-name="Subtraction 19" d="M16.754,7.548H2.5V2.5H16.754V7.547Z" transform="translate(-14723.345 -23089.145)" fill="#104cba"/>
    <path id="Subtraction_16" data-name="Subtraction 16" d="M6.294,7.685H2.5V2.5H6.294V7.684Z" transform="translate(-14671.72 -23076.857)"/>
    <path id="Subtraction_18" data-name="Subtraction 18" d="M12.823,24.215a4.873,4.873,0,0,1-2.588-1.088c-2.377-1.679-4.886-3.49-7.051-5.055l3.256-4.55,5.936,4.142,1.184-1.258,4.126-4.385.056-.059,2-2.124.724-.769L23.52,5.818l2.167-2.3,4.086,3.758-.611.674-.013.014c-1.428,1.574-2.777,3.06-4.162,4.557-2.955,3.19-6.113,6.593-9.374,10.037C14.2,24.043,13.345,24.215,12.823,24.215Z" transform="translate(-14634.512 -23088.998)" fill="#104cba"/>
  </g>
</svg>
