<svg xmlns="http://www.w3.org/2000/svg" width="150" height="149.865" viewBox="0 0 150 149.865">
  <g id="React_Native_App_Consulting" data-name="React Native App Consulting" transform="translate(-64.581 -64.746)">
    <path id="Path_17347" data-name="Path 17347" d="M93.654,127.617v-2q0-23.939,0-47.878c0-7.956,5.054-12.994,13.03-12.995q32.926,0,65.851,0c7.876,0,12.958,5.064,12.968,12.908,0,3.673,0,7.347,0,11.263.626,0,1.2-.01,1.781,0,4.373.087,8.789-.174,13.111.345A16.355,16.355,0,0,1,214.44,104.9q.277,12.982,0,25.975a16.739,16.739,0,0,1-16.2,16.02c-4.17.114-8.346.02-12.734.02v1.839q0,26.356,0,52.711c0,8.159-5.005,13.149-13.184,13.149q-32.775,0-65.549,0c-8.075,0-13.114-5.02-13.118-13.062,0-5.234,0-10.468,0-15.943-.628,0-1.206.01-1.784,0-4.373-.088-8.788.169-13.111-.347a16.387,16.387,0,0,1-14.042-15.634q-.27-12.983,0-25.975a16.737,16.737,0,0,1,16.057-16.008C84.991,127.512,89.218,127.617,93.654,127.617Zm4.871-.024H100.3c6.446,0,12.891-.011,19.337,0,10.189.021,17.5,7.33,17.524,17.523q.025,11.481,0,22.963c-.022,10.193-7.335,17.5-17.527,17.52-6.5.014-12.992,0-19.488,0H98.567v4.737h81.988v-43.33a3.222,3.222,0,0,0-.411-.07c-6.9-.005-13.8,0-20.7-.014-10.092-.028-17.423-7.357-17.447-17.449q-.027-11.557,0-23.114c.024-10.09,7.356-17.417,17.45-17.442,6.5-.017,12.992,0,19.488,0h1.628V84.208H98.525Zm2.459,53.177c6.293,0,12.586.017,18.879,0a12.077,12.077,0,0,0,12.46-12.505q.033-11.629,0-23.259c-.018-7.366-5.2-12.559-12.545-12.569q-18.879-.025-37.759,0c-7.344.01-12.52,5.212-12.534,12.578q-.024,11.554,0,23.108c.012,7.455,5.178,12.633,12.619,12.65C88.4,180.782,94.692,180.77,100.985,180.77Zm96.667-38.761a11.943,11.943,0,0,0,12.008-11.924c.063-7.956.037-15.912.012-23.869a12.061,12.061,0,0,0-12.506-12.459q-18.884-.027-37.767,0c-7.364.009-12.547,5.194-12.563,12.554q-.025,11.633.01,23.265a15.407,15.407,0,0,0,.317,3.143c1.154,5.413,6.667,9.76,11.7,9.216.364-7.666,3.982-13.379,10.693-17.158-8.138-6.871-6.712-16.641-1.741-21.737a14.524,14.524,0,0,1,20.4-.481c5.256,4.9,7.21,15.052-1.231,22.243A19.746,19.746,0,0,1,197.651,142.01ZM98.491,195.33c0,2.525-.036,4.888.008,7.25a7.178,7.178,0,0,0,7.241,7.181q33.84.04,67.679,0a6.927,6.927,0,0,0,7.077-5.991,73.224,73.224,0,0,0,.065-8.442Zm.066-116.173h82.111c0-.837.015-1.584,0-2.33a7.183,7.183,0,0,0-7.187-7.228q-33.888-.045-67.776-.006A7.028,7.028,0,0,0,99.8,72.7C98.4,74.617,98.359,76.811,98.558,79.157Zm94.229,62.875c-.345-5.791-2.822-10.139-7.83-12.742a13.762,13.762,0,0,0-15.238,1.138,14.034,14.034,0,0,0-5.955,11.6ZM187.918,113.1a9.664,9.664,0,1,0-9.717,9.651A9.684,9.684,0,0,0,187.918,113.1Z" fill="#104cba"/>
    <path id="Path_17355" data-name="Path 17355" d="M184.966,184.8h4.621v4.7h-4.621Z" transform="translate(-71.881 -71.684)" fill="#104cba"/>
    <path id="Path_17356" data-name="Path 17356" d="M208.909,184.879h4.665v4.691h-4.665Z" transform="translate(-86.177 -71.73)" fill="#104cba"/>
    <path id="Path_17357" data-name="Path 17357" d="M233.041,184.814h4.594v4.7h-4.594Z" transform="translate(-100.586 -71.691)" fill="#104cba"/>
    <path id="Path_17358" data-name="Path 17358" d="M261.64,303.628H257v-4.665h4.638Z" transform="translate(-114.893 -139.849)" fill="#104cba"/>
    <path id="Path_17359" data-name="Path 17359" d="M281,298.872h4.636v4.7H281Z" transform="translate(-129.223 -139.795)" fill="#104cba"/>
    <path id="Path_17360" data-name="Path 17360" d="M309.651,298.971v4.658H305v-4.658Z" transform="translate(-143.554 -139.854)" fill="#104cba"/>
    <path id="Path_17361" data-name="Path 17361" d="M88.917,272.455v-4.834h3.57c2.666,0,5.335-.058,8,.029a1.892,1.892,0,0,0,2.032-1.3c1.832-3.8,3.755-7.546,5.8-11.614l9.861,22.132a40.467,40.467,0,0,0,3.15-5.322c1.346-3.348,3.583-4.287,7.093-4.007,4.443.354,8.935.085,13.507.085v4.834c-3.227,0-6.43-.016-9.634.006-1.952.014-4.249-.532-5.756.31-1.451.811-2.091,3.081-3.078,4.716q-2.805,4.647-5.6,9.3c-.047.079-.145.126-.407.343l-9.388-21.074c-.978,1.946-1.8,3.717-2.763,5.411a2.031,2.031,0,0,1-1.415.945C98.952,272.482,94.022,272.455,88.917,272.455Z" transform="translate(-14.531 -113.439)" fill="#104cba"/>
    <path id="Path_17362" data-name="Path 17362" d="M214.909,405.551v-4.657h28.814v4.657Z" transform="translate(-89.76 -200.711)" fill="#104cba"/>
  </g>
</svg>
