<svg xmlns="http://www.w3.org/2000/svg" width="150" height="140.428" viewBox="0 0 150 140.428">
  <g id="Recurring_Clients" data-name="Recurring Clients" transform="translate(-119.465 -145.996)">
    <path id="Path_17911" data-name="Path 17911" d="M143.062,278.239c-10.951-4.7-15.637-12.193-13.507-21.486a17.811,17.811,0,0,1,17.55-13.587c8.009.117,15.46,6.349,16.842,14.085,1.7,9.527-3.063,16.878-13.673,20.931a81.226,81.226,0,0,1,8.477,2.978,87.992,87.992,0,0,1,7.972,4.821,37.008,37.008,0,0,1,23.647-13.541c-6.58-1.763-11.967-5.058-15.6-10.78a22.926,22.926,0,0,1-3.009-18.507,23.46,23.46,0,0,1,46.079,3.69c1.157,11.852-6.46,21.909-19.32,25.564,9.587,1.62,17.582,5.979,23.276,13.136l16.147-7.631c-9.9-3.786-14.668-11.134-12.965-20.661,1.382-7.736,8.834-13.969,16.842-14.086a17.81,17.81,0,0,1,17.55,13.586c2.131,9.294-2.557,16.786-13.759,21.594,1.546.411,2.826.729,4.1,1.09A26.8,26.8,0,0,1,269.462,305.4c.024,8.068.024,8.068-7.916,8.068H125.331c-5.533,0-5.865-.324-5.866-5.723,0-15.862,7.457-25.318,22.879-29.018A2.674,2.674,0,0,0,143.062,278.239Zm80.755,29.279c-.6-11.275-5.317-19.938-14.98-25.339-10.423-5.825-20.985-5.318-30.89,1.354-8.353,5.626-12.411,13.772-12.788,23.985ZM194.053,266.6a17.586,17.586,0,1,0-17.167-18.138A17.662,17.662,0,0,0,194.053,266.6ZM125.49,307.421h33c1.407-5.031,2.779-9.668,3.949-14.357a3.638,3.638,0,0,0-.608-2.943c-5.847-5.967-16.274-7.592-24.185-3.923A20.661,20.661,0,0,0,125.49,307.421Zm104.945,0h33.02c.731-9.391-3.71-17.15-11.938-21.086-7.951-3.8-17.99-2.382-24.222,3.6a3.851,3.851,0,0,0-.781,3.144C227.655,297.776,229.039,302.41,230.435,307.42Zm-72.1-46.758a11.63,11.63,0,1,0-11.63,11.792A11.7,11.7,0,0,0,158.334,260.662Zm95.517.117A11.63,11.63,0,1,0,242.1,272.451,11.71,11.71,0,0,0,253.851,260.78Z" transform="translate(0 -27.043)"/>
    <path id="Path_17912" data-name="Path 17912" d="M205.4,187.839c.627-3.834,1.032-7.427,1.865-10.919A3.432,3.432,0,0,0,206,173.142c-2.349-2.2-4.722-4.392-6.852-6.794a4.693,4.693,0,0,1-1.2-3.527c.2-.86,1.735-1.778,2.816-2,3.329-.687,6.745-.95,10.083-1.609a4.224,4.224,0,0,0,2.583-1.811c1.663-2.966,2.952-6.142,4.634-9.1.594-1.041,1.9-2.294,2.9-2.31s2.38,1.189,2.976,2.217c1.607,2.771,2.945,5.706,4.27,8.63a3.617,3.617,0,0,0,3.442,2.527,53.2,53.2,0,0,1,8.944,1.3c1.341.317,3.041,1.265,3.522,2.382.37.859-.648,2.664-1.512,3.636-2.069,2.326-4.547,4.292-6.576,6.648a5.608,5.608,0,0,0-1.162,3.8c.306,3.283,1.163,6.513,1.522,9.794.369,3.367-1.661,4.673-4.73,3.149-3.05-1.513-5.986-3.259-9.071-4.689a4.171,4.171,0,0,0-3.125.006c-3.263,1.511-6.372,3.353-9.619,4.9C207.518,191.406,205.392,190,205.4,187.839Zm29.663-21.932c-7.728.446-12.122-3.1-13.8-10.948-1.428,2.906-2.433,4.781-3.28,6.725a4.589,4.589,0,0,1-4.175,3.077c-2.154.18-4.282.683-6.421,1.044l-.6.516c6.764,3.657,8.183,9.043,5.461,16.136,5.9-4.916,11.521-4.852,17.554-.135C226.947,175.216,228.633,170.016,235.066,165.907Z" transform="translate(-26.66 0)" fill="#104cba"/>
    <path id="Path_17913" data-name="Path 17913" d="M136.353,216.258a62.812,62.812,0,0,0,1.036-7,5.712,5.712,0,0,0-1.147-3.463c-1.252-1.6-2.94-2.852-4.314-4.368-1.96-2.164-1.146-5.148,1.649-5.168,6.179-.044,10.041-2.509,12-8.541.973-2.992,4.384-3.073,5.385-.158,2.067,6.027,5.838,8.77,12.214,8.717,2.625-.022,3.423,2.951,1.6,5.026a27.152,27.152,0,0,1-3.768,3.676c-2,1.534-2.306,3.371-1.7,5.653a30.944,30.944,0,0,1,.878,4.883c.271,2.768-2.04,4.731-4.215,3.186-5.248-3.729-9.977-3.9-15.225-.022A2.8,2.8,0,0,1,136.353,216.258Zm11.7-20.829c-.978,3.98-3.559,5.852-7.791,5.834,3.588,2.52,4.395,5.544,2.987,9.451,3.379-2.427,6.576-2.638,10.013-.071-1.507-4-.08-6.909,3.152-9.324C151.575,200.238,151.575,200.238,148.057,195.429Z" transform="translate(-3.871 -13.402)" fill="#104cba"/>
    <path id="Path_17914" data-name="Path 17914" d="M289.8,219.6a35.742,35.742,0,0,1-2.31-2.828,1.878,1.878,0,0,1,.095-1.413c2.136-5.63.718-10.028-4.245-13.509a4.037,4.037,0,0,1-1.084-3.532c.219-.856,1.831-1.358,2.831-2.009a.561.561,0,0,1,.289-.025c5.571.14,9.277-2.17,10.9-7.755.323-1.114,2.054-2.641,2.994-2.548a4.625,4.625,0,0,1,3.228,2.683c1.669,5.416,5.249,7.635,10.73,7.708a4.162,4.162,0,0,1,3.248,2.11,4.225,4.225,0,0,1-1.413,3.667c-4.715,3.345-5.875,7.49-3.984,12.871a3.961,3.961,0,0,1-1.016,3.566,3.91,3.91,0,0,1-3.688-.031c-4.724-3.489-9.241-3.671-13.885.035A11.243,11.243,0,0,1,289.8,219.6Zm17.617-18.34c-4.683.663-6.583-2.139-8.188-6.3-1.122,4.676-3.621,6.526-7.958,6.5,3.876,2.392,4.272,5.612,3.132,9.58,3.322-2.977,6.521-2.448,9.95-.285C302.836,206.762,304.187,203.918,307.415,201.258Z" transform="translate(-55.311 -13.59)" fill="#104cba"/>
    <path id="Path_17924" data-name="Path 17924" d="M248.628,319.218c.974.394,1.549.452,1.836.77,2.708,2.981,5.516,5.89,7.971,9.071a2.479,2.479,0,0,1-1.178,4.06c-1.091.293-2.876-.51-3.8-1.393a59.493,59.493,0,0,1-6.082-6.908,4.969,4.969,0,0,1-1.1-3.484C246.45,320.455,247.894,319.83,248.628,319.218Z" transform="translate(-43.09 -58.882)"/>
    <path id="Path_17925" data-name="Path 17925" d="M235.83,317.729c-2.037,1.183-3.3,2.5-4.4,2.378-.97-.108-2.626-2.059-2.432-2.777a4.3,4.3,0,0,1,3-2.611C232.9,314.614,234,316.208,235.83,317.729Z" transform="translate(-37.228 -57.351)"/>
  </g>
</svg>
