<svg xmlns="http://www.w3.org/2000/svg" width="111.269" height="150" viewBox="0 0 111.269 150">
  <g id="App_Maintenance_and_Support" data-name="App Maintenance and Support" transform="translate(-108.543 -58.75)">
    <path id="Path_17365" data-name="Path 17365" d="M210.672,58.75c.794.345,1.617.633,2.376,1.043,4.133,2.231,6.638,5.631,6.733,10.388.109,5.458-.114,10.923-.117,16.384q-.022,47.8-.03,95.6c-.008,5.392-.245,10.787-.5,16.175a11.247,11.247,0,0,1-8.678,10.046c-.419.105-.83.241-1.245.362H118.973a28.8,28.8,0,0,1-3.146-1.092,11.969,11.969,0,0,1-7.283-11.537c-.009-5.118.2-10.237.2-15.355q.031-47.436.01-94.872c0-4.294.167-8.6-.039-12.881-.3-6.186,1.987-11.762,9.378-14.263ZM163.95,203.805q21.456,0,42.912-.005c4.176,0,7.417-2.846,7.585-6.765.241-5.636.49-11.278.5-16.917q.076-40.789.012-81.577c-.01-9.123-.143-18.246-.223-27.369-.041-4.7-3.116-7.73-7.864-7.731q-42.766-.006-85.531,0c-4.818,0-7.88,3.044-7.892,7.847-.011,4.149.025,8.3.016,12.448q-.122,55.864-.3,111.728c-.023,5.136,3.448,8.469,8.457,8.405C135.731,203.689,149.841,203.806,163.95,203.805Z" transform="translate(0 0)" fill="#104cba"/>
    <path id="Path_17367" data-name="Path 17367" d="M211.628,220.311a29.517,29.517,0,0,1-3.708-1.654c-1.41-.858-2.628-2.029-4.022-2.921-.472-.3-1.224-.168-1.849-.227-.041,0-.083.054-.129.064-2.726.6-3.752,2.423-3.783,5.066a15.908,15.908,0,0,1-.44,2.741,5.7,5.7,0,0,1-5.543,4.892,42.182,42.182,0,0,1-4.683-.024,5.834,5.834,0,0,1-5.394-4.774c-.359-1.867-.526-3.774-.963-5.62a3.645,3.645,0,0,0-1.331-1.643c-2.053-1.69-3.781-.869-5.45.736a22.882,22.882,0,0,1-2.566,1.941,6.029,6.029,0,0,1-7.68-.334,43.288,43.288,0,0,1-3.42-3.411,5.9,5.9,0,0,1-.366-7.437,45.283,45.283,0,0,1,2.985-3.98,2.449,2.449,0,0,0,.305-3.186c-.249-.415-.311-.983-.634-1.305A5.171,5.171,0,0,0,161,197.774c-1.539-.436-3.161-.573-4.742-.869a6.027,6.027,0,0,1-5.2-5.974c-.053-1.365-.051-2.735,0-4.1a6.261,6.261,0,0,1,5.455-6.1c1.587-.263,3.164-.605,4.758-.808.9-.115,1.2-.656,1.669-1.343,1.564-2.266.812-3.992-.879-5.7a19.418,19.418,0,0,1-1.681-2.213,6.312,6.312,0,0,1,.516-8.4c.874-.92,1.765-1.827,2.7-2.686a6.267,6.267,0,0,1,7.953-.532c1.4.982,2.754,2.021,4.1,3.075a2.076,2.076,0,0,0,2.135.275,4.7,4.7,0,0,0,3.788-5.094,15.475,15.475,0,0,1,.493-3.027,5.921,5.921,0,0,1,5.627-4.875c1.511-.059,3.028-.057,4.539,0a5.9,5.9,0,0,1,5.649,4.846c.35,1.819.629,3.652.884,5.487.127.909.635,1.288,1.384,1.814,2.22,1.556,3.838.721,5.5-.836a25.3,25.3,0,0,1,2.447-1.858,6.045,6.045,0,0,1,7.909.387,44.717,44.717,0,0,1,3.209,3.209,5.9,5.9,0,0,1,.411,7.554c-1.01,1.494-2.23,2.852-3.173,4.383a3.8,3.8,0,0,0-.273,2.247,7.635,7.635,0,0,0,.747,1.734,2.278,2.278,0,0,0,2.039,1.6c1.548.177,3.079.5,4.615.773a6.082,6.082,0,0,1,5.314,6.041c.051,1.365.052,2.735,0,4.1a6.241,6.241,0,0,1-5.2,6.025c-1.627.316-3.261.613-4.9.829a2.79,2.79,0,0,0-2.069,1.559c-1.441,2.164-.874,3.841.77,5.514.678.69,1.164,1.565,1.776,2.324a5.673,5.673,0,0,1,.422,7.195,24.485,24.485,0,0,1-4.672,4.765C214.212,219.749,212.956,219.856,211.628,220.311ZM168.16,162.818a8.682,8.682,0,0,0-1.054.745c-.814.772-1.574,1.6-2.392,2.371a1.415,1.415,0,0,0-.12,2.177c1.191,1.546,2.41,3.077,3.495,4.7,2.341,3.495-.409,10.816-4.466,11.977a12.743,12.743,0,0,1-1.873.326c-1.113.144-2.23.248-3.343.388-2.35.3-2.418.377-2.419,2.7,0,.732.037,1.467-.009,2.2-.064,1.035.424,1.508,1.412,1.656,1.784.268,3.557.6,5.339.885A6.435,6.435,0,0,1,167.718,197c.286.618.548,1.247.827,1.869a6.135,6.135,0,0,1-.557,6.507c-.971,1.345-1.945,2.691-2.994,3.975a1.47,1.47,0,0,0,.082,2.293c.842.815,1.677,1.637,2.483,2.487a1.4,1.4,0,0,0,2.172.1,28.986,28.986,0,0,1,3.65-2.687,6.716,6.716,0,0,1,3.477-1.131,20.293,20.293,0,0,1,4.677,1.419c2.594.886,3.834,2.867,4.3,5.441.147.815.22,1.644.372,2.458.88,4.7-.111,4.064,4.928,4.142a1.485,1.485,0,0,0,1.737-1.493c.253-1.835.605-3.657.859-5.492a5.437,5.437,0,0,1,2.563-4.079,25.6,25.6,0,0,1,4.759-2.168,5.292,5.292,0,0,1,4.737.833c.775.506,1.5,1.091,2.249,1.634,4.328,3.134,2.881,3.278,7.009-.711a1.552,1.552,0,0,0,.134-2.333c-.807-1.041-1.527-2.155-2.388-3.148-2.206-2.544-2.629-5.24-.922-8.212a9.366,9.366,0,0,0,.6-1.491,5.723,5.723,0,0,1,4.639-3.975c.96-.17,1.926-.308,2.884-.489,4.738-.9,4.164.063,4.238-5.033a1.639,1.639,0,0,0-1.675-1.91c-1.5-.193-2.987-.468-4.48-.7a6.839,6.839,0,0,1-5.822-4.7c-.164-.457-.4-.888-.6-1.331a6.167,6.167,0,0,1,.6-6.629c.986-1.335,1.961-2.679,3-3.971a1.432,1.432,0,0,0,0-2.08c-.781-.937-1.532-1.9-2.263-2.877a1.433,1.433,0,0,0-2.355-.277q-2.069,1.63-4.213,3.166a6.152,6.152,0,0,1-6.758.532,11.327,11.327,0,0,0-1.343-.57,6.072,6.072,0,0,1-4.407-5.3c-.111-.87-.264-1.735-.416-2.6-.836-4.754.15-4.134-5.013-4.2a1.419,1.419,0,0,0-1.622,1.444c-.247,1.787-.565,3.564-.832,5.348a6.6,6.6,0,0,1-4.339,5.27c-.491.212-1,.4-1.476.632a6.127,6.127,0,0,1-6.512-.437c-1.5-1.011-2.96-2.068-4.446-3.092C168.942,163.226,168.591,163.062,168.16,162.818Z" transform="translate(-25.882 -55.204)" fill="#104cba"/>
    <path id="Path_17368" data-name="Path 17368" d="M179.5,116.387H221.52c.488,0,.979-.022,1.463.023a2.3,2.3,0,0,1,.384,4.541,6.152,6.152,0,0,1-1.6.118q-42.318.008-84.635,0c-.341,0-.685.018-1.024-.014a2.383,2.383,0,0,1-2.341-2.344,2.462,2.462,0,0,1,2.381-2.315c.583-.038,1.171-.014,1.757-.014Z" transform="translate(-15.373 -35.115)" fill="#104cba"/>
    <path id="Path_17369" data-name="Path 17369" d="M179.487,377.742H137.316c-2.419,0-3.543-.726-3.546-2.283s1.3-2.4,3.663-2.4q42.1,0,84.2.009a6.354,6.354,0,0,1,2.013.224,2.093,2.093,0,0,1,1.478,2.407,2.162,2.162,0,0,1-2,2.011,13,13,0,0,1-1.609.036Q200.5,377.743,179.487,377.742Z" transform="translate(-15.371 -191.514)" fill="#104cba"/>
    <path id="Path_17370" data-name="Path 17370" d="M226.273,92.178c-4.393,0-8.787.019-13.181-.013a2.289,2.289,0,0,1-2.5-2.135,2.506,2.506,0,0,1,2.353-2.516,3.652,3.652,0,0,1,.439-.018c8.689,0,17.379-.012,26.068.01,1.735,0,2.753.968,2.709,2.393a2.429,2.429,0,0,1-2.7,2.271C235.06,92.195,230.666,92.18,226.273,92.178Z" transform="translate(-62.176 -17.514)" fill="#104cba"/>
    <path id="Path_17371" data-name="Path 17371" d="M237.368,401.952c1.947,0,3.893-.023,5.84.007,1.645.026,2.642.9,2.671,2.267a2.355,2.355,0,0,1-2.574,2.39q-6.058.066-12.117,0a2.379,2.379,0,0,1-2.625-2.342,2.5,2.5,0,0,1,2.673-2.317C233.28,401.927,235.324,401.952,237.368,401.952Z" transform="translate(-73.131 -209.116)" fill="#104cba"/>
    <path id="Path_17372" data-name="Path 17372" d="M320.491,92.2c-.683,0-1.367.024-2.048-.005a2.15,2.15,0,0,1-2.24-2.078,2.094,2.094,0,0,1,1.853-2.424,23.6,23.6,0,0,1,4.947-.01,2.017,2.017,0,0,1,1.8,2.3,2.135,2.135,0,0,1-2.12,2.192c-.727.055-1.462.01-2.193.01Z" transform="translate(-126.525 -17.555)" fill="#104cba"/>
    <path id="Path_17374" data-name="Path 17374" d="M225.546,209.406a16.142,16.142,0,1,1-16.139,16.072A16.126,16.126,0,0,1,225.546,209.406Zm11.218,16.15a11.215,11.215,0,0,0-22.431-.072,11.215,11.215,0,1,0,22.431.072Z" transform="translate(-61.459 -91.799)" fill="#104cba"/>
  </g>
</svg>
