<svg xmlns="http://www.w3.org/2000/svg" width="506.004" height="506.002" fill="#ffffff" viewBox="0 0 506.004 506.002">
  <g id="approve" transform="translate(2.002 2)">
    <g id="Group_11323" data-name="Group 11323">
      <path id="Subtraction_9" data-name="Subtraction 9" d="M16799.756,19158.5h-21.162l-.555-.16a19.8,19.8,0,0,0-2.779-.648c-51.646-7.061-88.219-35.143-108.7-83.467-1.506-3.547-3.754-6.83-9.951-6.83-21.734.107-43.945.121-58.764.121-6.213,0-12.377,0-18.32-.006l-5.916,0-23.459-.01c-11.887,0-15.512-3.607-15.516-15.436l0-76.5c.01-100.068.021-203.543-.139-305.92-.006-4.312.619-7.527,1.967-10.111a13.912,13.912,0,0,1,6.459-6.035h320.418a13.956,13.956,0,0,1,6.471,6.037c1.346,2.58,1.969,5.785,1.957,10.09-.146,52.082-.152,105.061-.158,156.295v.219l0,2.275c-.006,31.963-.012,60.8-.043,89.984a12.72,12.72,0,0,0,4.594,10.283c19.885,17.658,33.291,39.295,39.846,64.309,1.371,5.227,2.338,10.668,3.273,15.932l.025.143c.375,2.137.826,4.672,1.328,7.273v21.273l-.021.1-.008.029c-.062.273-.127.557-.193.828l-.045.2c-.23.982-.469,2-.623,3.07-7.979,53.873-37.871,90.752-88.844,109.613-6.7,2.479-13.734,3.76-21.184,5.117l-.168.031-.037.006C16806.311,19157.186,16803,19157.791,16799.756,19158.5Zm-10.7-240a108.5,108.5,0,0,0,.131,216.99h.27c59.738-.145,108.262-48.906,108.172-108.7a108.639,108.639,0,0,0-108.514-108.291ZM16558,18676.85v367.311h100.168l-.207-3.7c-2.922-51.414,15.494-91.8,54.736-120.025,23.234-16.711,48.379-25.186,74.736-25.186,17.984,0,36.9,3.943,56.229,11.717l4.8,1.934v-232.049H16558Z" transform="translate(-16417.135 -18655)" stroke="rgba(0,0,0,0)" stroke-miterlimit="10" stroke-width="1"/>
    </g>
    <g id="Group_11324" data-name="Group 11324">
      <path id="Subtraction_8" data-name="Subtraction 8" d="M16576.334,19020.545c-.143,0-.291,0-.439-.01-5.471-.174-8.928-2.982-11.561-9.389-7.3-17.768-14.861-35.928-26.088-62.684a57.845,57.845,0,0,0-2.859-5.65c-.094-.17-.187-.34-.281-.508-.186-.33-.4-.715-.607-1.1v-251.635c.225-.779.439-1.555.641-2.281l0-.014.02-.074c.531-1.934,1.035-3.76,1.656-5.553,5.725-16.574,21.666-28.15,38.766-28.15a36.01,36.01,0,0,1,6,.494c21.43,3.58,35.848,20.293,35.877,41.586.033,26.053.023,52.354.01,79.25l0,.443c-.021,44.582-.045,95.113.23,143.8.088,15-2.373,27.373-7.744,38.947-5.615,12.1-10.7,24.617-15.615,36.727-2.162,5.326-4.4,10.836-6.682,16.3C16584.107,19019.561,16579.494,19020.545,16576.334,19020.545Zm-12.9-71.691h0l12.592,30.357,12.525-30.357Zm-5.572-214.055v190.541h36.373V18734.8h-36.373Zm18.121-58.223c-8.83,0-16.279,5.938-17.711,14.121a56.468,56.468,0,0,0-.379,12.18l0,.031.012.248c.061,1.592.127,3.238.127,4.832v3.5h36.436v-3.5c0-1.455.02-2.949.037-4.217v-.113c.039-3.107.08-6.322-.086-9.557a18.537,18.537,0,0,0-16.842-17.459C16577.023,18676.6,16576.486,18676.576,16575.98,18676.576Z" transform="translate(-16536 -18606.082)" stroke="rgba(0,0,0,0)" stroke-miterlimit="10" stroke-width="1"/>
    </g>
    <g id="Group_11325" data-name="Group 11325">
      <path id="Subtraction_14" data-name="Subtraction 14" d="M16738.8,18679.91l-.057-3.377c-9.3-.023-18.787-.033-29.006-.033l-105.154.023c-19.668,0-38.914-.01-57.2-.027-4.721-.01-8.746-1.959-11.047-5.346a10.787,10.787,0,0,1-.971-10.311c1.912-4.85,6.025-7.311,12.225-7.314,14.361-.01,28.355-.016,44.039-.016l51.906.006c6.949,0,14.041,0,20.3-.008l6.686,0,6.424,0q9.126,0,18.248,0c12.107,0,28.021.006,43.744.037a12.825,12.825,0,0,1,11,5.607,10.8,10.8,0,0,1,.543,10.527c-2.174,4.68-5.887,6.859-11.68,6.859l0,3.377Z" transform="translate(-16357.032 -18595.014)" stroke="rgba(0,0,0,0)" stroke-miterlimit="10" stroke-width="1"/>
    </g>
    <g id="Group_11326" data-name="Group 11326">
      <path id="Subtraction_13" data-name="Subtraction 13" d="M16739.082,18676.543c-.439,0-.807-.006-1.152-.014-.492-.01-.889-.014-1.285-.014h-67.592c-45.693,0-83.758-.006-119.789-.014h-1.477a21.04,21.04,0,0,1-4.225-.3,11.455,11.455,0,0,1,1.787-22.643c.473-.039,1.033-.057,1.875-.057.393,0,.764,0,1.148.006h.02c.428.006.814.008,1.2.008h101.1l6.68,0q6.683,0,13.365,0c10.393-.006,19.656-.01,28.32-.01,15.518,0,28.193.014,39.889.037a12.7,12.7,0,0,1,10.725,5.238,10.776,10.776,0,0,1,1.031,10.236c-1.713,4.439-4.971,6.879-9.959,7.455A15.3,15.3,0,0,1,16739.082,18676.543Z" transform="translate(-16356.993 -18535.016)" stroke="rgba(0,0,0,0)" stroke-miterlimit="10" stroke-width="1"/>
    </g>
    <g id="Group_11327" data-name="Group 11327">
      <path id="Subtraction_12" data-name="Subtraction 12" d="M16739.078,18676.543c-.439,0-.809-.006-1.158-.014-.488-.01-.883-.014-1.279-.014h-67.6c-45.7,0-83.758-.006-119.787-.014h-1.459a20.929,20.929,0,0,1-4.238-.307,11.452,11.452,0,0,1,1.8-22.637c.473-.039,1.033-.057,1.875-.057.393,0,.764,0,1.148.006h.025l.057,0c.389,0,.756.006,1.137.006h101.113l6.67,0q6.668,0,13.338,0c10.4-.006,19.664-.01,28.33-.01,15.521,0,28.2.014,39.9.037a12.693,12.693,0,0,1,10.715,5.238,10.787,10.787,0,0,1,1.027,10.246c-1.719,4.439-4.977,6.875-9.961,7.445A15.336,15.336,0,0,1,16739.078,18676.543Z" transform="translate(-16356.993 -18475.016)" stroke="rgba(0,0,0,0)" stroke-miterlimit="10" stroke-width="1"/>
    </g>
    <g id="Group_11328" data-name="Group 11328">
      <path id="Subtraction_11" data-name="Subtraction 11" d="M16583.813,18676.557c-2.391,0-4.9-.008-6.922-.012-3.037-.008-5.121-.01-6.963-.01h-.2c-1.828,0-3.9,0-6.916.01-2.264,0-4.361.008-6.238.008-3.682,0-6.629-.01-9.273-.027a13.861,13.861,0,0,1-9.42-3.352,10.79,10.79,0,0,1-3.385-8.225c.049-6.672,5.2-11.357,12.523-11.395,8.172-.037,16.033-.057,23.367-.057,7.848,0,15.418.021,22.5.061a12.861,12.861,0,0,1,9.213,3.652,11,11,0,0,1,3.146,7.9c-.061,6.543-5.357,11.342-12.594,11.408C16590.059,18676.545,16587.25,18676.557,16583.813,18676.557Z" transform="translate(-16356.978 -18415.035)" stroke="rgba(0,0,0,0)" stroke-miterlimit="10" stroke-width="1"/>
    </g>
    <g id="Group_11329" data-name="Group 11329">
      <path id="Subtraction_10" data-name="Subtraction 10" d="M16576.6,18749.379c-3.367,0-6.844-1.937-10.049-5.6-10.076-11.518-19.639-22.574-28.422-32.861a13.613,13.613,0,0,1-3.588-9.857,10.739,10.739,0,0,1,3.945-7.428,11.091,11.091,0,0,1,7.16-2.777c3.535,0,7.1,1.852,10.029,5.211,3.883,4.453,7.592,8.748,12.033,13.9l8.383,9.717,44.629-57.006c.369-.471.736-.945,1.016-1.3l.1-.125.119-.158c.771-1,1.57-2.041,2.395-3.01a12.15,12.15,0,0,1,9.24-4.576,11.48,11.48,0,0,1,8.93,18.514c-5.5,7.3-11.213,14.543-16.736,21.545l-.121.156-.863,1.1-.863,1.094-.189.242c-1.693,2.148-3.443,4.369-5.154,6.559l-1.98,2.533c-1.957,2.5-4.533,5.8-7.08,9.061l-1.035,1.322-.182.234c-7.021,8.982-14.281,18.273-21.453,27.365C16584.641,18746.031,16581.063,18749.379,16576.6,18749.379Z" transform="translate(-16214.41 -18329.012)" stroke="rgba(0,0,0,0)" stroke-miterlimit="10" stroke-width="1"/>
    </g>
  </g>
</svg>
