<svg xmlns="http://www.w3.org/2000/svg" width="150" height="150.164" viewBox="0 0 150 150.164">
  <g id="App_UI_UX_Design" data-name="App UI/UX Design" transform="translate(-11.884 -10.938)">
    <path id="Path_17246" data-name="Path 17246" d="M133.089,10.937c2.265.726,4.591,1.326,6.434,3.2l-3.255,3.683c-2.088-1.813-4.542-1.908-7.07-1.9q-26.1.044-52.193.018c-4.154,0-7.144,2.092-7.987,5.725a28.176,28.176,0,0,0-.333,4.2h39.963V30.9H68.888V44.267c1.386-.19,2.775-.314,4.126-.614.32-.071.708-.729.722-1.129.071-2.135.033-4.274.033-6.5h4.966V43.5c1.646.3,3.134.532,4.605.844a32.316,32.316,0,0,1,25.112,27.795c.115,1.051.471,1.411,1.539,1.368,2.038-.083,4.082-.024,6.222-.024v5.011c-2.039,0-4.07.07-6.094-.026-1.215-.058-1.566.388-1.678,1.552-1.266,13.158-11.921,24.979-24.9,27.662-1.52.314-3.06.532-4.732.819v7.4H73.769c0-2.155-.023-4.29.013-6.423.013-.782-.223-1.106-1.055-1.191a32.32,32.32,0,0,1-28.8-29.125c-.013-.143-.062-.283-.137-.609H36.336V73.5H43.6c.613-2.611,1.017-5.12,1.795-7.508a31.723,31.723,0,0,1,17.12-19.423,1.861,1.861,0,0,0,1.256-1.974c-.045-6.793-.025-13.586-.023-20.379,0-5.409,2.236-9.525,7.135-11.987a27.525,27.525,0,0,1,3.845-1.289ZM103.543,73.5c-1.062-14.234-13.59-24.387-24.769-24.667v4.55H73.732V48.813c-13.048.5-24.4,12.688-24.644,24.707h4.493v5.044H48.87A27.9,27.9,0,0,0,58.71,97.212a19.348,19.348,0,0,1,2.338-9.826,18.457,18.457,0,0,1,7-6.841c-5.424-6.813-5.641-13.232-.718-18.363a12.508,12.508,0,0,1,16.209-1.407,12.173,12.173,0,0,1,4.895,7.414c1.049,4.837-.542,8.9-4.074,12.352a17.773,17.773,0,0,1,7.1,6.859,19.579,19.579,0,0,1,2.36,9.8,27.7,27.7,0,0,0,9.8-18.728H98.857V73.5Zm-24.772,29.87a24.91,24.91,0,0,0,9.419-2.623,1.49,1.49,0,0,0,.565-1.148,50.724,50.724,0,0,0-.2-5.264,12.422,12.422,0,0,0-9.935-10.586A12.745,12.745,0,0,0,65.466,89.73c-1.884,3.235-1.74,6.737-1.69,10.252a.931.931,0,0,0,.386.7,24.491,24.491,0,0,0,9.629,2.652V98.673h4.979ZM76.2,78.462a7.512,7.512,0,0,0,7.562-7.376,7.618,7.618,0,0,0-7.535-7.6,7.518,7.518,0,0,0-7.442,7.5A7.412,7.412,0,0,0,76.2,78.462Z" transform="translate(-16.802 0)" fill="#104cba"/>
    <path id="Path_17247" data-name="Path 17247" d="M287.629,171.092h4.818V192.2c.745-.629,1.209-1.006,1.658-1.4,6.635-5.847,13.25-11.716,19.909-17.537,4.069-3.558,9.765-2.764,12.366,1.653a8.669,8.669,0,0,1-.827,9.2c-3.988,4.625-8.059,9.179-12.1,13.759q-11.345,12.861-22.675,25.736a4.277,4.277,0,0,0-.951,2.039c-1.47,9.168-8.186,15.184-17.491,15.406-5.616.134-11.238.031-16.858.023-1.18,0-2.379-.245-2.735-1.5a4.989,4.989,0,0,1,.238-2.46c.092-.349.583-.642.952-.86a6.982,6.982,0,0,0,3.488-6.776c-.111-3.527-.069-7.053,1.455-10.347a17.45,17.45,0,0,1,14.016-10.47,3.21,3.21,0,0,0,1.575-.576c4.461-3.878,8.882-7.8,13.161-11.575Zm-.184,48.655c.244-.259.484-.5.709-.756q15.469-17.532,30.932-35.069c1-1.134,2.02-2.261,2.908-3.481a2.571,2.571,0,0,0-.168-3.266,2.647,2.647,0,0,0-3-1.014,5.245,5.245,0,0,0-1.837,1.143q-18.7,16.466-37.389,32.956a6.626,6.626,0,0,1-1,.63ZM261.062,235.94c4.306,0,8.39.17,12.455-.041a12.043,12.043,0,0,0,11.212-10.506,1.862,1.862,0,0,0-.4-1.384q-4.864-4.967-9.829-9.833a1.759,1.759,0,0,0-1.251-.461,12.534,12.534,0,0,0-10.656,10.673C262.1,228.214,263.184,232.219,261.062,235.94Z" transform="translate(-165.447 -110.006)" fill="#104cba"/>
    <path id="Path_17248" data-name="Path 17248" d="M313.865,42.871q13.19,0,26.379,0c2.885,0,3.66.774,3.661,3.642q0,13.923,0,27.845c0,2.775-.795,3.583-3.571,3.584q-26.452.008-52.9,0c-2.767,0-3.608-.838-3.609-3.568q-.007-14,0-27.991c0-2.655.86-3.508,3.519-3.51Q300.6,42.866,313.865,42.871ZM288.911,72.814h49.908V47.958H288.911Z" transform="translate(-186.854 -21.942)" fill="#104cba"/>
    <path id="Path_17249" data-name="Path 17249" d="M46.96,343.549V331.1h4.974v12.45h1.753q7.477,0,14.954,0c2.408,0,3.329.882,3.335,3.231q.022,9.309,0,18.619c-.006,2.227-.9,3.144-3.1,3.145q-26.976.018-53.951,0c-2.119,0-3.02-.93-3.026-3.065q-.027-9.383,0-18.765c.006-2.27.931-3.16,3.25-3.162q15.027-.011,30.054,0Zm-30,19.916H66.891V348.622H16.965Z" transform="translate(0 -219.994)" fill="#104cba"/>
    <path id="Path_17250" data-name="Path 17250" d="M208.1,379.208c0,1.284.006,2.4,0,3.516-.042,6.595.035,13.193-.165,19.783-.2,6.451-5.733,11.667-12.832,11.644-8.014-.026-16.029-.006-24.043-.006q-15.1,0-30.2,0a12.481,12.481,0,0,1-10.558-5.316,5.035,5.035,0,0,1-.38-.623,1.642,1.642,0,0,1-.067-.4l4.077-2.38a21.114,21.114,0,0,0,1.439,1.635,7.964,7.964,0,0,0,5.625,2.09q27.122.01,54.244-.009a7.358,7.358,0,0,0,7.772-7.286c.165-2.517.03-5.054.03-7.707h-44.9v-5h44.924v-9.941Z" transform="translate(-81.059 -253.052)" fill="#104cba"/>
    <path id="Path_17251" data-name="Path 17251" d="M26.861,67.9c-3.812,0-7.625.008-11.437,0-2.711-.008-3.522-.812-3.524-3.476q-.008-9.091,0-18.182c0-2.479.885-3.371,3.353-3.374q11.657-.014,23.314,0c2.486,0,3.352.855,3.359,3.35q.025,9.164,0,18.329c-.007,2.543-.8,3.339-3.336,3.351C34.681,67.917,30.771,67.9,26.861,67.9Zm9.965-5.1V47.947H16.979V62.8Z" transform="translate(-0.008 -21.937)" fill="#104cba"/>
    <path id="Path_17252" data-name="Path 17252" d="M249.1,443.37v4.8h-4.816v-4.8Z" transform="translate(-159.689 -297.14)" fill="#104cba"/>
    <path id="Path_17261" data-name="Path 17261" d="M315.725,107.148H355.7v4.861c-.533.024-1.01.064-1.488.064-12.267,0-24.533-.017-36.8.031-1.327.005-1.862-.325-1.707-1.7A30.808,30.808,0,0,0,315.725,107.148Z" transform="translate(-208.747 -66.11)" fill="#104cba"/>
    <path id="Path_17262" data-name="Path 17262" d="M364.231,75.088h24.825v4.848H364.231Z" transform="translate(-242.11 -44.08)" fill="#104cba"/>
    <path id="Path_17263" data-name="Path 17263" d="M325.956,75.211V80h-9.85V75.211Z" transform="translate(-209.042 -44.165)" fill="#104cba"/>
    <path id="Path_17264" data-name="Path 17264" d="M100.171,407.928V403.1h22.357v4.829Z" transform="translate(-60.665 -269.468)" fill="#104cba"/>
    <path id="Path_17265" data-name="Path 17265" d="M56.6,403.141v4.8H44.215v-4.8Z" transform="translate(-22.216 -269.497)" fill="#104cba"/>
    <path id="Path_17266" data-name="Path 17266" d="M54.022,75.166v4.793H44.209V75.166Z" transform="translate(-22.212 -44.134)" fill="#104cba"/>
  </g>
</svg>
