<svg xmlns="http://www.w3.org/2000/svg" width="150" height="149.889" viewBox="0 0 150 149.889">
  <g id="Cross-platform_Hybrid_App_Development" data-name="Cross-platform/Hybrid App Development" transform="translate(-64.74 -64.73)">
    <path id="Path_17317" data-name="Path 17317" d="M137.272,149.408V117.76a12.461,12.461,0,0,1-9.427-9.411h-9.877v1.673q0,12.1,0,24.193c-.01,7.648-5.153,12.772-12.824,12.778q-13.835.012-27.671,0c-7.561-.009-12.722-5.164-12.725-12.723q-.013-28.426,0-56.853c0-7.477,5.17-12.663,12.618-12.674q13.987-.022,27.973,0c7.45.011,12.613,5.192,12.627,12.667q.022,12.1,0,24.193v1.744c3.338,0,6.587,0,9.837,0,2.455-6.522,6.466-9.668,12.2-9.571,5.469.092,9.556,3.446,11.64,9.6h9.861v-1.566q0-12.172,0-24.344c.011-7.581,5.144-12.719,12.713-12.727q13.911-.014,27.822,0c7.473.01,12.676,5.168,12.682,12.616q.024,28.5,0,57c-.006,7.451-5.2,12.619-12.67,12.63q-13.986.021-27.973,0c-7.371-.012-12.556-5.194-12.573-12.565-.018-8.115,0-16.229,0-24.344v-1.711h-9.868a12.422,12.422,0,0,1-9.419,9.372v31.672c2.386,0,4.787.1,7.173-.039,1.424-.085,2.177.341,2.346,1.744.418,3.467,2.254,5.116,5.771,6.064,4.021,1.084,7.753,3.273,11.565,5.078a2.079,2.079,0,0,0,2.206.032c1.568-.9,3.2-1.685,4.9-2.571,4.307,4.329,8.577,8.607,12.828,12.9,1.088,1.1,2.762,2.149,2.982,3.425.207,1.2-1.046,2.736-1.853,4a3.055,3.055,0,0,0,.076,3.67,51.661,51.661,0,0,1,5.685,13.927,1.936,1.936,0,0,0,1.516,1.6c1.736.5,3.45,1.065,5.228,1.621v8.987h12.011v4.761H64.843v-4.675h11.92v-9.032c1.777-.565,3.433-1.132,5.114-1.608a2.146,2.146,0,0,0,1.742-1.753,52.932,52.932,0,0,1,6.068-14.579,1.911,1.911,0,0,0,.027-2.2c-.888-1.571-1.681-3.2-2.544-4.858,5.264-5.257,10.46-10.463,15.7-15.626a1.427,1.427,0,0,1,1.278-.1c1.46.677,2.841,1.527,4.313,2.17a2.221,2.221,0,0,0,1.751-.049,62.584,62.584,0,0,1,15.009-6.248,2.393,2.393,0,0,0,1.356-1.3c.665-1.727,1.157-3.521,1.733-5.346ZM96.307,209.854A44.108,44.108,0,0,1,100.2,194.2a43.776,43.776,0,0,1,22.665-22.012,43.327,43.327,0,0,1,42.559,5.038c10.883,8.117,16.664,19.112,17.793,32.554h14.552v-5.351c-1.477-.477-2.936-1.02-4.436-1.407a1.8,1.8,0,0,1-1.52-1.566,51.135,51.135,0,0,0-7.583-18.288,1.785,1.785,0,0,1-.043-2.17c.778-1.341,1.449-2.743,2.2-4.177-2.66-2.653-5.259-5.251-7.867-7.841-1.071-1.063-2.064-2.8-3.269-2.969-1.276-.177-2.79,1.093-4.142,1.838a1.922,1.922,0,0,1-2.305-.083A41.166,41.166,0,0,0,154,161.15c-3.6-.7-5.651-2.2-6.039-5.834-.1-.89-.608-1.094-1.454-1.082-3.275.046-6.55,0-9.825.026-1.6.012-3.582-.454-4.678.313-1.027.72-1.18,2.764-1.586,4.262a1.709,1.709,0,0,1-1.5,1.394,51.548,51.548,0,0,0-18.419,7.654,1.567,1.567,0,0,1-1.9.062c-1.392-.794-2.841-1.49-4.138-2.16l-11.254,11.25c.657,1.264,1.322,2.674,2.11,4.012a1.774,1.774,0,0,1-.1,2.169,50.5,50.5,0,0,0-6.6,14.34c-.461,1.645-.4,3.733-1.42,4.839s-3.1,1.186-4.692,1.788c-.336.127-.776.553-.791.86-.08,1.587-.037,3.18-.037,4.81Zm113.479-87.119V89.052H166.429v33.682ZM69.65,122.7h43.359V89.012H69.65ZM110.8,209.838a28.989,28.989,0,0,1,8.934-18.5,28.283,28.283,0,0,1,18.9-8.019,27.875,27.875,0,0,1,17.4,5.015c7.521,5.205,11.62,12.489,12.668,21.491h9.476c-.494-17.7-16.252-37.028-39.9-36.156-22.988.847-36.75,20.333-36.928,36.172Zm52.9,0c-.736-10.8-10.614-22.36-25.319-21.694-11.658.529-23.01,11.436-22.509,21.694Zm-94.12-82.125c0,2.468-.031,4.828.007,7.186a7.188,7.188,0,0,0,7.2,7.237q14.59.068,29.182,0a7.017,7.017,0,0,0,7.046-6.233c.254-2.683.05-5.409.05-8.189Zm96.821-.04c0,2.833-.192,5.559.048,8.246a6.991,6.991,0,0,0,6.91,6.209q14.741.085,29.483,0c3.075-.014,6.08-2.077,6.608-5.028a77.336,77.336,0,0,0,.589-9.43Zm-82.3-58.025c0,2.527-.054,4.984.013,7.437a7.267,7.267,0,0,0,6.529,6.975c3.539.348,7.094-1.908,7.625-5.446.439-2.925.09-5.968.09-8.967Zm96.758-.04c0,.572,0,1.013,0,1.455.012,2.217-.112,4.445.071,6.648a7.2,7.2,0,0,0,6.493,6.352c3.346.316,6.882-1.758,7.506-5.03.583-3.053.422-6.247.591-9.425ZM146.995,105.8a7.253,7.253,0,1,0-7.261,7.322A7.285,7.285,0,0,0,146.995,105.8Zm28.959-36.219c-.9,0-1.655-.015-2.405,0a6.969,6.969,0,0,0-7.009,5.884A70.631,70.631,0,0,0,166.47,84h11.992C174.991,79.584,176.334,74.528,175.954,69.579Zm24.3.155c-.29,4.883.933,9.912-2.486,14.278H209.9c0-2.079,0-4.08,0-6.08C209.892,71.989,206.3,68.889,200.258,69.734ZM81.778,84.042c-3.63-4.467-2.137-9.6-2.618-14.462-.868,0-1.618-.015-2.368,0a6.946,6.946,0,0,0-7,5.885,70.011,70.011,0,0,0-.071,8.575ZM103.5,69.719c-.306,4.881.954,9.916-2.494,14.3h12.065a78.739,78.739,0,0,0-.052-8.179C112.552,71.462,108.7,69.068,103.5,69.719Z" transform="translate(0 0)" fill="#104cba"/>
    <path id="Path_17332" data-name="Path 17332" d="M339.673,161.267l-8.561-8.568,3.376-3.071,5.028,5.278,22.632-22.634,3.195,3.326Z" transform="translate(-158.952 -40.304)" fill="#104cba"/>
    <path id="Path_17333" data-name="Path 17333" d="M94.443,149.364l5.221,5.669,22.489-22.5,3.288,3.3L99.794,161.479l-8.782-8.742Z" transform="translate(-15.677 -40.459)" fill="#104cba"/>
    <path id="Path_17334" data-name="Path 17334" d="M209.01,400.859h4.64v4.7h-4.64Z" transform="translate(-86.09 -200.577)" fill="#104cba"/>
    <path id="Path_17335" data-name="Path 17335" d="M237.648,405.621h-4.634V400.96h4.634Z" transform="translate(-100.414 -200.638)" fill="#104cba"/>
    <path id="Path_17336" data-name="Path 17336" d="M261.645,405.621h-4.634V400.96h4.634Z" transform="translate(-114.734 -200.638)" fill="#104cba"/>
    <path id="Path_17337" data-name="Path 17337" d="M285.691,400.939v4.625h-4.7v-4.625Z" transform="translate(-129.041 -200.625)" fill="#104cba"/>
    <path id="Path_17338" data-name="Path 17338" d="M127.273,237.683H112.952v-4.655h14.321Z" transform="translate(-28.77 -100.428)" fill="#104cba"/>
    <path id="Path_17339" data-name="Path 17339" d="M93.6,237.683H88.95v-4.652H93.6Z" transform="translate(-14.447 -100.429)" fill="#104cba"/>
    <path id="Path_17340" data-name="Path 17340" d="M165.653,237.638H161v-4.68h4.653Z" transform="translate(-57.441 -100.386)" fill="#104cba"/>
    <path id="Path_17341" data-name="Path 17341" d="M352.862,237.578v-4.65h14.377v4.65Z" transform="translate(-171.931 -100.368)" fill="#104cba"/>
    <path id="Path_17342" data-name="Path 17342" d="M328.9,232.9h4.649v4.675H328.9Z" transform="translate(-157.632 -100.35)" fill="#104cba"/>
    <path id="Path_17343" data-name="Path 17343" d="M405.538,237.672h-4.655v-4.65h4.655Z" transform="translate(-200.587 -100.424)" fill="#104cba"/>
    <path id="Path_17344" data-name="Path 17344" d="M129.583,91.109a2.408,2.408,0,1,1-2.478-2.336A2.439,2.439,0,0,1,129.583,91.109Z" transform="translate(-35.821 -14.346)" fill="#104cba"/>
    <path id="Path_17345" data-name="Path 17345" d="M367.071,93.589a2.408,2.408,0,0,1,.1-4.814,2.408,2.408,0,1,1-.1,4.814Z" transform="translate(-179.008 -14.347)" fill="#104cba"/>
  </g>
</svg>
