<svg xmlns="http://www.w3.org/2000/svg" width="150" height="150" viewBox="0 0 150 150">
  <g id="Custom_React_Native_App_Development" data-name="Custom React Native App Development" transform="translate(-58.75 -58.75)">
    <path id="Path_17292" data-name="Path 17292" d="M186.545,208.75a26.643,26.643,0,0,1-3.008-1.048,11.372,11.372,0,0,1-6.933-10.809c-.061-11.276-.02-22.553-.02-33.829q0-29.436,0-58.873c0-7.724,4.9-12.626,12.608-12.628q22.553,0,45.106,0c7.708,0,12.6,4.906,12.6,12.641q0,34.635,0,69.27v1.758c2.262-.247,4.4-2.862,4.654-5.656.05-.533.032-1.073.032-1.61q0-48.255,0-96.51c0-5.283-2.743-8.02-8.03-8.02H136.74V58.75H246.31c.314.105.623.23.942.314a11.641,11.641,0,0,1,8.048,6.783c.411.915.652,1.907.971,2.864V170.664a37.109,37.109,0,0,1-2.151,4.9,11.3,11.3,0,0,1-7.106,4.849,1.2,1.2,0,0,0-.089.246c-.012,5.464.057,10.93-.054,16.392-.1,5.064-2.592,8.672-7.192,10.783a26.134,26.134,0,0,1-2.743.921Zm-5.171-100.724v81.86h60.765V108.043H230.3c-.1.354-.181.635-.262.916-1.323,4.558-3.287,6.041-8.006,6.041q-10.616,0-21.233,0c-3.724,0-5.789-1.467-7.023-4.982-.224-.639-.407-1.292-.626-1.991Zm60.781-4.745a6.96,6.96,0,0,0-7.259-7.026q-16.768-.023-33.536-.005c-4.394,0-8.787-.043-13.18.016a6.8,6.8,0,0,0-6.781,6.956c.376.019.76.055,1.144.056,4.052,0,8.1,0,12.155.005,2.075,0,2.809.7,3,2.728a12.778,12.778,0,0,0,.34,2.016c.484,1.844,1.08,2.282,2.99,2.283q10.691,0,21.381,0c1.931,0,2.521-.427,3.015-2.252a11.924,11.924,0,0,0,.34-1.869c.246-2.333.873-2.907,3.273-2.909C233.379,103.279,237.717,103.281,242.155,103.281ZM181.4,194.744c-.727,5.947,2.2,9.318,7.983,9.318q22.535,0,45.07,0c5.414,0,8.569-3.866,7.57-9.316Z" transform="translate(-47.521)" fill="#104cba"/>
    <path id="Path_17293" data-name="Path 17293" d="M75.156,58.75v4.688c-1.6,0-3.1-.018-4.592,0A6.98,6.98,0,0,0,63.447,70.6q-.023,42.835-.007,85.669c0,.239.025.477.047.869h60.8v4.7H63.708c0,3.048-.325,6.038.089,8.923.441,3.078,3.4,5.126,6.606,5.162,4,.045,8.005.013,12.008.013h41.847v4.649H109.836l-1.171,4.679h15.621V190h-6.748q-5.418,0-10.837,0c-2.77,0-3.436.677-3.42,3.463,0,.338,0,.677,0,1.172h21v4.74h-2.2q-10.178,0-20.356,0c-2.379,0-3.123-.761-3.13-3.167,0-1.318-.036-2.637.01-3.954a6.694,6.694,0,0,1,3.959-6.186,2.514,2.514,0,0,0,1.584-2.015c.2-1.1.5-2.174.8-3.427H71.634c-6.888,0-10.905-3.076-12.717-9.729-.023-.086-.11-.155-.167-.232V68.711c.105-.314.23-.623.314-.943a11.547,11.547,0,0,1,6.259-7.793,31.055,31.055,0,0,1,3.388-1.225Z" fill="#104cba"/>
    <path id="Path_17297" data-name="Path 17297" d="M117.431,58.75v4.587h-4.688V58.75Z" transform="translate(-32.899)" fill="#104cba"/>
    <path id="Path_17298" data-name="Path 17298" d="M133.273,117.881c-.1.2-.138.291-.188.375-1.317,2.2-1.618,4.136.89,5.883,1.159.807,1.008,2.287-.025,3.351q-3.162,3.258-6.418,6.424c-1.12,1.091-2.575,1.225-3.463,0-1.617-2.228-3.37-2.307-5.495-.965a6.084,6.084,0,0,1-.7.306c0,.941.015,1.951,0,2.961-.033,1.842-.869,2.731-2.663,2.748q-4.394.041-8.788,0a2.371,2.371,0,0,1-2.6-2.658c-.023-1.021,0-2.043,0-3.03-.221-.105-.358-.157-.481-.231-2.167-1.3-4.046-1.5-5.75.908-.829,1.173-2.3,1.042-3.352.02q-3.309-3.215-6.523-6.526c-1.02-1.051-1.129-2.513.044-3.352,2.313-1.653,2.287-3.467.943-5.619a5.3,5.3,0,0,1-.27-.6c-1.063,0-2.135.031-3.2-.007a2.31,2.31,0,0,1-2.486-2.471q-.061-4.54,0-9.081a2.3,2.3,0,0,1,2.466-2.489c1.07-.04,2.142-.008,3.219-.008a5.316,5.316,0,0,1,.267-.581c1.34-2.142,1.416-3.956-.916-5.623-1.224-.876-1.073-2.339.021-3.46q3.12-3.2,6.316-6.319c1.173-1.148,2.622-1.294,3.573-.012,1.59,2.145,3.281,2.294,5.368.953a6.137,6.137,0,0,1,.767-.344c0-.981-.018-2,0-3.023.037-1.759.872-2.659,2.58-2.678q4.467-.049,8.935,0a2.352,2.352,0,0,1,2.542,2.573c0,.049,0,.1,0,.146.084,3.256.08,3.268,3.248,4.317a1.8,1.8,0,0,0,1-.164c.166-.055.281-.262.42-.4,3.123-3.069,3.362-3.069,6.426,0,1.622,1.623,3.263,3.228,4.86,4.875,1.192,1.23,1.329,2.688-.041,3.676-2.184,1.574-2.092,3.274-.861,5.245a1.839,1.839,0,0,0,1.126.78,24.775,24.775,0,0,0,2.484.048,2.289,2.289,0,0,1,2.412,2.393q.071,4.613,0,9.227a2.3,2.3,0,0,1-2.391,2.421c-.535.033-1.074.009-1.611.01Zm.943-9.375c-.783,0-1.5.006-2.221,0-1.876-.018-2.412-.517-3.029-2.309a42.084,42.084,0,0,0-2.013-4.84c-.872-1.777-.859-2.445.6-3.868a16.894,16.894,0,0,1,1.713-1.3l-.657-.057-3.025-3.51c-.474.538-.87,1.038-1.317,1.486-1.5,1.506-2.141,1.52-4,.61a42.648,42.648,0,0,0-4.987-2.028,2.614,2.614,0,0,1-2.1-2.765c.024-.809,0-1.619,0-2.391H108.5c0,.8.005,1.481,0,2.163-.018,1.878-.5,2.4-2.3,3.04a49.965,49.965,0,0,0-4.97,2.077c-1.617.777-2.353.755-3.639-.556a14.369,14.369,0,0,1-1.189-1.5l-3.681,3.389c.456.424.933.843,1.38,1.291,1.5,1.5,1.516,2.143.606,4a43.238,43.238,0,0,0-2.025,4.988,2.625,2.625,0,0,1-2.772,2.093c-.808-.023-1.617,0-2.382,0v4.688c.8,0,1.483-.005,2.166,0,1.875.017,2.42.521,3.034,2.3a42.057,42.057,0,0,0,2.012,4.839c.869,1.769.854,2.458-.6,3.873a11.412,11.412,0,0,1-1.4,1.07l3.456,3.7c.429-.48.861-1.013,1.344-1.494,1.37-1.366,2.049-1.381,3.762-.558a48.666,48.666,0,0,0,5.121,2.088,2.625,2.625,0,0,1,2.081,2.78c-.024.807,0,1.616,0,2.421h4.689c0-.884.014-1.7,0-2.516a2.539,2.539,0,0,1,1.889-2.625c1.9-.726,3.795-1.49,5.645-2.34a2.48,2.48,0,0,1,3.18.507c.583.631,1.107,1.316,1.4,1.663l3.692-3.4c-.492-.44-1.024-.872-1.506-1.355-1.366-1.372-1.382-2.045-.56-3.761a48.754,48.754,0,0,0,2.088-5.121,2.617,2.617,0,0,1,2.776-2.083c.808.026,1.617,0,2.426,0Z" transform="translate(-14.599 -14.6)" fill="#104cba"/>
    <path id="Path_17299" data-name="Path 17299" d="M153.463,246.5v6.916h-4.642c0-3.219-.087-6.471.046-9.714a2.075,2.075,0,0,1,2.267-1.875c1.118-.035,2.237-.007,3.33-.007.476-1.117.958-2.129,1.325-3.181a1.349,1.349,0,0,0-.187-1.1c-.549-.68-1.24-1.242-1.827-1.894a2.286,2.286,0,0,1-.014-3.394q3.211-3.309,6.521-6.523c1.053-1.024,2.52-1.156,3.351.015,1.7,2.4,3.578,2.215,5.747.911.123-.074.262-.123.488-.228,0-1.034-.028-2.1.007-3.173a2.3,2.3,0,0,1,2.441-2.511c3.02-.043,6.041-.013,9.165-.013v4.622h-6.928c0,.76,0,1.417,0,2.074-.007,2.2-.412,2.648-2.468,3.352a39.916,39.916,0,0,0-4.7,1.975c-1.718.847-2.431.833-3.765-.518a20.617,20.617,0,0,1-1.356-1.676l-3.7,3.65c.672.55,1.379,1.067,2.011,1.664a2.434,2.434,0,0,1,.447,3.069q-1.257,2.783-2.344,5.644a2.557,2.557,0,0,1-2.605,1.921C155.258,246.491,154.439,246.5,153.463,246.5Z" transform="translate(-54.865 -98.688)" fill="#104cba"/>
    <path id="Path_17300" data-name="Path 17300" d="M341.3,83v4.517H311.015V83Z" transform="translate(-153.712 -14.776)" fill="#104cba"/>
    <path id="Path_17301" data-name="Path 17301" d="M202.612,262.942v4.509c-4.2.511-6.569,2.858-7.067,7.07h-4.39C190.423,269.762,195.306,262.77,202.612,262.942Z" transform="translate(-80.634 -124.418)" fill="#104cba"/>
    <path id="Path_17302" data-name="Path 17302" d="M120.912,334.964v4.519H107.034v-4.519Z" transform="translate(-29.421 -168.304)" fill="#104cba"/>
    <path id="Path_17303" data-name="Path 17303" d="M400.852,87.513V82.991H405.4v4.522Z" transform="translate(-208.452 -14.771)" fill="#104cba"/>
    <path id="Path_17304" data-name="Path 17304" d="M82.927,339.418V334.9h4.506v4.517Z" transform="translate(-14.732 -168.266)" fill="#104cba"/>
    <path id="Path_17309" data-name="Path 17309" d="M288.509,226.748a25.776,25.776,0,1,1-25.772,25.959A25.8,25.8,0,0,1,288.509,226.748Zm-.035,46.857a21.088,21.088,0,1,0-21.051-21.2A21.111,21.111,0,0,0,288.473,273.605Z" transform="translate(-124.295 -102.365)" fill="#104cba"/>
    <path id="Path_17310" data-name="Path 17310" d="M304.8,171.516v-4.477h18.61v4.477Z" transform="translate(-149.924 -65.983)" fill="#104cba"/>
    <path id="Path_17311" data-name="Path 17311" d="M323.589,412.968v4.508H305.024v-4.508Z" transform="translate(-150.061 -215.834)" fill="#104cba"/>
    <path id="Path_17312" data-name="Path 17312" d="M136.519,124.745a11.717,11.717,0,1,1-11.773,11.693A11.736,11.736,0,0,1,136.519,124.745Zm-.1,18.737a7.023,7.023,0,1,0-6.983-7.135A7.052,7.052,0,0,0,136.424,143.482Z" transform="translate(-40.213 -40.212)" fill="#104cba"/>
    <path id="Path_17315" data-name="Path 17315" d="M294.9,263.647q5.739-5.755,11.467-11.5c1.992-2,2.89-2,4.867-.027s3.944,3.919,5.895,5.9c1.431,1.453,1.449,2.605.02,4.038q-10.175,10.207-20.382,20.383c-1.441,1.437-2.595,1.43-4.034,0q-5.5-5.467-10.967-10.967c-1.488-1.5-1.471-2.611.039-4.135q3.089-3.119,6.207-6.208c1.5-1.485,2.6-1.462,4.141.035.8.781,1.6,1.567,2.406,2.348A1.838,1.838,0,0,0,294.9,263.647Zm13.842-7.257c-4,4.006-7.887,7.909-11.785,11.8-1.7,1.694-2.733,1.683-4.45-.033-.785-.784-1.54-1.6-2.127-2.209l-3.59,3.341,8.014,7.977,17.39-17.369Z" transform="translate(-135.215 -116.929)" fill="#104cba"/>
  </g>
</svg>
