<svg xmlns="http://www.w3.org/2000/svg" width="149.688" height="150" viewBox="0 0 149.688 150">
  <g id="In-House_Talent" data-name="In-House Talent" transform="translate(-140.978 -122.879)">
    <path id="Path_17927" data-name="Path 17927" d="M172.969,231.369a49.15,49.15,0,0,1-22.6-16.977,48.088,48.088,0,0,1,7.223-64.9,8.454,8.454,0,0,0,3.057-5.455c1.989-12.055,11.61-20.394,24.122-21.007,6.225-.305,12.456-.377,18.4,2.2,8.8,3.816,13.744,10.434,15.2,19.861a6.173,6.173,0,0,0,1.842,3.437c17.783,15.637,22.443,38.1,12.062,59.3-.977,2-.191,2.853,1.015,4.055q19.588,19.519,39.115,39.1c3.642,3.654,4.918,8.047,3.305,13.01a12.163,12.163,0,0,1-9.973,8.622c-4.508.823-8.278-.783-11.471-3.98-12.883-12.9-25.814-25.759-38.642-38.717-1.58-1.6-2.681-1.921-4.839-.9a58.8,58.8,0,0,1-11.026,3.905,111.27,111.27,0,0,1-11.255,1.645c.782,3.193,2.468,4.833,6.261,4.559,5.211-.375,10.47-.119,15.708-.086,4.963.031,7.861,2.925,7.888,7.891q.05,9.066,0,18.133c-.031,4.79-2.947,7.784-7.684,7.791q-30.977.044-61.954,0c-4.74-.007-7.675-3-7.706-7.768q-.059-9.217,0-18.435c.038-4.582,3-7.561,7.557-7.606,5.641-.056,11.286-.133,16.922.043,2.306.072,3.759-.484,4.662-2.709A45.6,45.6,0,0,1,172.969,231.369ZM213.668,162c15.585,17.52,9.827,38.348-1.009,48.484a33.938,33.938,0,0,1-44.452,1.818,32.619,32.619,0,0,1-12.015-19.649c-2.338-11.77,1.138-22,8.91-30.552l-4.5-9.048c-12.667,12.244-17.635,26.763-13.305,43.72,3.813,14.938,13.574,24.853,28.048,30.278.558-.9.937-1.487,1.292-2.088,2.234-3.783,4.168-3.9,6.035.079,1.655,3.526,3.951,4.965,7.752,4.332,2.571-.429,5.227-.419,7.761-.985,23.4-5.229,37.766-26.215,34.01-50a41.349,41.349,0,0,0-14.18-25.219ZM179.68,229.429c-1.843,3.232-3.645,5.806-4.846,8.635-1.936,4.56-4.844,6.458-9.982,5.908-5.073-.544-10.252-.06-15.383-.144-2.519-.041-3.71.906-3.674,3.53.079,5.735.066,11.471,0,17.206-.025,2.389.929,3.508,3.388,3.5q30.489-.044,60.979,0c2.452,0,3.424-1.1,3.4-3.494-.06-5.735-.073-11.472,0-17.207.036-2.615-1.141-3.573-3.667-3.54-5.935.079-11.883-.181-17.806.107-3.22.157-4.971-.994-6.337-3.784C184.045,236.657,181.933,233.359,179.68,229.429Zm38.744-3.628c13.013,13.066,26.536,26.7,40.151,40.249a6.954,6.954,0,0,0,7.285,1.66c6.208-1.935,7.655-8.791,2.777-13.7q-19.051-19.159-38.2-38.219c-.548-.548-1.143-1.051-1.082-1Zm-14.51-80.484c-6.395,4.858-12.547,7.035-19.443,6.625-10.606-.632-12.532,2.9-12.079,12.525a17.3,17.3,0,0,0,15.192,16.467c8.317.935,16.464-4.62,18.052-13a59.164,59.164,0,0,0,.545-13.792C206.044,151.383,204.821,148.683,203.914,145.316Zm-36.025,10.8c2.436-6.749,7.389-9.491,14.3-8.966a25.722,25.722,0,0,0,19.541-6.246c1.925-1.661,3.309-1.1,4.71.842,2.9,4.014,4.952,8.3,4.738,13.912,5.038-8.609,1.428-19.9-7.4-24.786-6.594-3.65-13.694-3.609-20.842-2.688a21.129,21.129,0,0,0-12.915,6.538C165.151,139.84,163.074,149.9,167.889,156.119ZM166,202.78c12.09,16.806,36.5,15.26,46.622-.059-3.794-5.281-12.26-8.089-18.071-5.979a14.628,14.628,0,0,1-10.021.125C178.212,194.708,170.221,197.224,166,202.78Zm13.567-12.023c.11-3.647,1.311-7.6-3.624-9.73a9.27,9.27,0,0,1-3.8-3.8c-1.855-3.148-3.339-6.515-4.939-9.719-7.162,6.519-9.244,22.16-3.906,30.172,2.476-1.508,4.816-3.313,7.447-4.432C173.472,192.09,176.479,191.6,179.567,190.757Zm31.688-23.48c-.137.141-.365.262-.4.425a22.281,22.281,0,0,1-10.778,15.288,2.357,2.357,0,0,0-1.005,1.62c-.119,2.087-.047,4.186-.047,6.478,6.357.6,11.9,2.618,16.367,7.134C220.509,187.762,218.545,173.994,211.254,167.276Zm-16.645,18.341H184.132c.436,2.2.264,5.635,1.4,6.144a10.335,10.335,0,0,0,7.61.019C194.28,191.284,194.142,187.863,194.609,185.617Z" transform="translate(0 0)"/>
    <path id="Path_17928" data-name="Path 17928" d="M305.6,137.692c5.754,1.74,8.432-1.392,10.2-6.262a32.165,32.165,0,0,1,2.972-5.909c.571-.92,1.677-2.069,2.555-2.081s2.069,1.1,2.585,2.021a96.215,96.215,0,0,1,4.7,9.424c.972,2.291,2.381,3.04,4.8,2.86a57.6,57.6,0,0,1,8.751.026,4.265,4.265,0,0,1,3.07,1.677c.341.631-.466,2.243-1.188,3.023q-4,4.318-8.314,8.34c-1.494,1.394-1.992,2.651-1.284,4.726a124.743,124.743,0,0,1,3.412,12.163,4.035,4.035,0,0,1-.924,3.313c-.473.444-2.316.045-3.093-.558-3.657-2.834-7.207-5.813-10.69-8.86-1.334-1.167-2.269-1.161-3.6,0-3.411,2.976-6.877,5.9-10.463,8.661-.866.667-2.28.624-3.443.907-.271-1.241-.992-2.587-.733-3.7.975-4.2,2.4-8.291,3.358-12.492a4.682,4.682,0,0,0-.964-3.612c-2.678-3-5.713-5.678-8.421-8.653-.815-.9-1.007-2.358-1.484-3.56a18.921,18.921,0,0,1,3.668-1.387A28.1,28.1,0,0,1,305.6,137.692Zm5.825,24.407c2.978-2.442,5.374-4.266,7.6-6.278,1.692-1.531,3.081-1.423,4.725.036,2.242,1.987,4.611,3.83,7.507,6.213-.82-3-1.275-5.356-2.125-7.563-.867-2.253-.257-3.767,1.43-5.3,2.168-1.97,4.147-4.149,6.658-6.695-2.782,0-4.8-.163-6.784.041-2.51.259-3.9-.774-4.872-3.014-1.177-2.707-2.631-5.293-4.228-8.453-1.613,3.222-3.04,5.839-4.245,8.555-.933,2.1-2.244,3.127-4.64,2.911-2.107-.19-4.244-.04-6.368-.04,2.055,2.905,4.476,4.918,6.459,7.3a5.966,5.966,0,0,1,1,4.194A68.213,68.213,0,0,1,311.421,162.1Z" transform="translate(-61.86 -0.221)" fill="#104cba"/>
    <path id="Path_17929" data-name="Path 17929" d="M317.592,217.569c5.819,1.812,8.373-1.513,10.176-6.3a47.621,47.621,0,0,1,3.084-6.2c1.442-2.6,3.5-2.609,4.914.018,1.851,3.449,3.627,6.944,5.269,10.5a2.89,2.89,0,0,0,3.166,2.023,84.339,84.339,0,0,1,9.359.024c1.247.08,2.447.89,3.668,1.368-.545,1.276-.809,2.805-1.688,3.78-2.558,2.838-5.31,5.511-8.092,8.135a3.554,3.554,0,0,0-1.12,4.234c1.342,4.1,2.517,8.258,3.5,12.454a3.991,3.991,0,0,1-.96,3.3c-.482.439-2.308.011-3.093-.6-3.582-2.767-7.085-5.649-10.456-8.669-1.549-1.387-2.567-1.284-4.062.042-3.31,2.938-6.72,5.775-10.234,8.465-.863.661-2.281.6-3.444.867-.257-1.245-.947-2.589-.692-3.718a115.745,115.745,0,0,1,3.3-11.883c.708-2.075.213-3.33-1.28-4.728-2.939-2.751-5.778-5.616-8.523-8.561-.655-.7-1.325-2.185-1.007-2.811a4.089,4.089,0,0,1,2.786-1.67A36.971,36.971,0,0,1,317.592,217.569Zm24.946,23.842.481-.32c-.58-2-1.036-4.056-1.772-6-.97-2.565-.631-4.552,1.606-6.353,2.143-1.725,4.035-3.76,6.038-5.659a14.474,14.474,0,0,0-6.075-.648c-2.881.357-4.444-.838-5.512-3.447s-2.54-5.042-4.049-7.968c-1.684,3.359-3.141,6.1-4.445,8.921a3.7,3.7,0,0,1-3.98,2.482c-2.243-.14-4.5-.032-6.753-.032a24.248,24.248,0,0,0,5.38,6.035c2.548,2,2.949,4.226,1.759,7.119a62.651,62.651,0,0,0-1.843,6.445c2.831-2.327,5.17-4.047,7.263-6.027,1.965-1.858,3.555-1.7,5.448.065C338.136,237.927,340.379,239.623,342.539,241.41Z" transform="translate(-66.563 -31.733)" fill="#104cba"/>
    <path id="Path_17941" data-name="Path 17941" d="M157.23,351.73v-4.455h57.746v4.455Z" transform="translate(-6.427 -88.739)" fill="#104cba"/>
    <path id="Path_17942" data-name="Path 17942" d="M213.309,331.344v4.465H165.236v-4.465Z" transform="translate(-9.593 -82.439)" fill="#104cba"/>
  </g>
</svg>
