<svg id="Let_s_Chat" data-name="Let&apos;s Chat" xmlns="http://www.w3.org/2000/svg" width="150" height="144.875" viewBox="0 0 150 144.875">
  <path id="Path_18006" data-name="Path 18006" d="M237.265,264.161c0,5.464-.047,10.628.019,15.791.036,2.776-.4,5.3-3.305,6.41s-4.884-.521-6.69-2.637c-5.06-5.922-10.128-11.842-15.37-17.6a6.344,6.344,0,0,0-4.148-1.88c-12.256-.146-24.515-.073-36.772-.088-8.259-.011-12.911-4.656-12.939-12.928-.025-7.559-.005-15.118-.005-22.786-3.792-.683-6.631-.493-9.24,2.8-5.344,6.753-11.235,13.072-16.863,19.6-1.664,1.931-3.5,3.37-6.192,2.444-2.809-.966-3.5-3.245-3.472-5.963.047-5.193.021-10.387,0-15.581,0-1.112-.094-2.224-.158-3.625-2.231,0-4.186.056-6.137-.011-6.873-.236-12.148-5.226-12.187-12.041q-.179-31.005-.007-62.013c.039-7.111,5.4-12.166,12.681-12.177q49.394-.072,98.787-.006c7.729.009,12.833,5.1,12.934,12.918.119,9.243.032,18.49.035,27.735v3.68c4.459,0,8.585-.017,12.711,0,8.052.041,12.731,4.7,12.747,12.809q.051,25.865.007,51.73c-.007,8.951-4.418,13.345-13.394,13.407C239.4,264.167,238.5,264.161,237.265,264.161Zm-104.973-30.21.771.321c3.727-4.267,7.555-8.452,11.141-12.834a8.52,8.52,0,0,1,7.254-3.336c20.665.086,41.33.047,61.995.042,4.474,0,4.781-.3,4.783-4.767q.011-28.349,0-56.7c0-4.507-.319-4.825-4.731-4.826q-35.671-.007-71.341,0c-8.2,0-16.407.033-24.611-.021-2.313-.015-3.828.555-3.825,3.25q.036,29.907,0,59.814c0,2.427,1.186,3.324,3.484,3.264,2.595-.067,5.192-.017,7.788-.012,5.854.012,7.278,1.462,7.29,7.429C132.3,228.367,132.292,231.159,132.292,233.951ZM228.24,196.2c0,6.152.013,11.847,0,17.543-.027,9.629-4.744,14.382-14.3,14.391q-21.179.019-42.359,0h-3.534c0,7.806.1,15.168-.05,22.526-.056,2.743.892,3.589,3.6,3.566,12.873-.111,25.748.048,38.62-.116a8.844,8.844,0,0,1,7.771,3.544c2.73,3.45,5.739,6.681,8.585,9.955.439-.294.592-.348.594-.4.047-2.593.035-5.187.126-7.778.118-3.348,1.9-5.133,5.265-5.233a65.907,65.907,0,0,1,7.471.026c2.913.246,3.757-.9,3.737-3.742-.109-15.572-.052-31.145-.052-46.718,0-1.558-.071-3.119.014-4.671.117-2.141-.8-2.975-2.943-2.922C236.744,196.275,232.7,196.2,228.24,196.2Z" transform="translate(-103.72 -141.848)"/>
  <path id="Path_18009" data-name="Path 18009" d="M187.441,195.222c-6.752,0-13.5.022-20.257-.007-3.97-.017-6.2-1.846-6.182-4.971s2.285-5,6.218-5.006q20.412-.039,40.825.007c4.545.015,7.231,3.435,5.61,7-1.033,2.27-2.938,3.007-5.335,2.991C201.362,195.191,194.4,195.221,187.441,195.222Z" transform="translate(-125.282 -158.172)" fill="#104cba"/>
  <path id="Path_18010" data-name="Path 18010" d="M176.656,228.056c-3.423,0-6.846.046-10.268-.014-3.224-.056-5.31-1.967-5.388-4.793a4.918,4.918,0,0,1,5.1-5.132c7.051-.115,14.106-.1,21.158-.01a5,5,0,0,1,5.248,5.011c-.005,2.818-2.117,4.858-5.271,4.921C183.71,228.11,180.183,228.056,176.656,228.056Z" transform="translate(-125.28 -170.525)" fill="#104cba"/>
</svg>
