<svg xmlns="http://www.w3.org/2000/svg" width="150" height="149.916" viewBox="0 0 150 149.916">
  <g id="Migration_to_React_Native" data-name="Migration to React Native" transform="translate(-64.722 -64.744)">
    <path id="Path_17268" data-name="Path 17268" d="M214.61,214.659H166.337v-1.692c0-10.583-.023-21.166.032-31.748a2.359,2.359,0,0,0-1.412-2.28,5.371,5.371,0,0,0-6.443-.036c-1.987,1.2-4.391,1.7-6.561,2.631a2.965,2.965,0,0,0-1.462,1.421c-.689,1.662-1.188,3.4-1.784,5.179h-6.564c0,1.586.013,3.08,0,4.574a7.254,7.254,0,0,1-7.552,7.5c-4.678.023-9.356,0-14.183,0a13.5,13.5,0,0,0,3.158,9.258,1.988,1.988,0,0,0,1.342.4c1.652.046,3.307.018,5.051.018v4.766H76.937v-4.766c1.649,0,3.3.084,4.937-.042a2.808,2.808,0,0,0,1.833-.9,13.452,13.452,0,0,0,2.78-8.731H84.78c-4.233,0-8.466.029-12.7-.01a7.183,7.183,0,0,1-7.334-7.251q-.052-19.351,0-38.7a7.168,7.168,0,0,1,7.334-7.247c6.345-.036,12.691-.01,19.19-.01V130.793c1.876-.639,3.639-1.211,5.376-1.852a1.956,1.956,0,0,0,1.1-.837c1.342-3.338,2.61-6.706,3.916-10.107H64.848V64.844h48.267V66.5c0,10.633.017,21.266-.026,31.9a2.168,2.168,0,0,0,1.263,2.06,5.545,5.545,0,0,0,6.719.081c1.981-1.208,4.388-1.7,6.566-2.609A2.525,2.525,0,0,0,128.9,96.68c.688-1.721,1.228-3.5,1.848-5.327h6.561V89.66q0-8.542,0-17.083c.008-4.819,3.012-7.826,7.833-7.827q30.841-.009,61.682,0c4.924,0,7.891,2.979,7.893,7.92q.01,18.671,0,37.342c0,5.009-2.971,7.948-8.013,7.957q-6.652.011-13.3.022a2.039,2.039,0,0,0-.422.134,13.389,13.389,0,0,0,3.164,9.106,2,2,0,0,0,1.345.4c1.652.046,3.306.018,5.047.018V132.4H188.169v16.3c-1.877.636-3.647,1.194-5.38,1.849a2.111,2.111,0,0,0-1.148.983c-1.312,3.254-2.544,6.539-3.831,9.892h36.8ZM209.881,98.554v-1.3q0-12.239,0-24.479c0-2.377-.8-3.184-3.161-3.184q-30.675-.005-61.349,0c-2.45,0-3.221.787-3.222,3.274q-.006,12.164,0,24.328c0,.438.046.875.073,1.365ZM69.571,180.768h67.736v-1.583q0-11.938,0-23.875c0-2.772-.7-3.474-3.479-3.474H82.451q-4.836,0-9.671,0c-2.391,0-3.2.794-3.208,3.137-.008,1.561,0,3.123,0,4.684Zm67.636-69.82c-18.118,1.26-30.326,19.672-25.423,36.05h1.622q10.5,0,21.008,0c4.7.008,7.712,3.048,7.729,7.778.011,2.771,0,5.542,0,8.313V168.5c17.382-.993,30.464-18.771,25.552-36.056H149.509v-4.8c1.763,0,3.42.021,5.077-.014.42-.009,1-.053,1.228-.32a13.586,13.586,0,0,0,3.239-9.342H145.737C140.695,117.967,138.282,116,137.207,110.948Zm-28.93-41.253H69.645v43.34H99.464c-.45-2.493,2.346-2.869,2.929-4.82H74.5V93.883h28.983v13.729c1.482-1.505,2.763-2.693,3.892-4.01a3.543,3.543,0,0,0,.865-2.067c.066-6.349.039-12.7.039-19.048Zm71.712,96.728c.438,2.509-2.338,2.9-2.908,4.794h27.871V185.6H175.967V171.844c-1.455,1.489-2.595,2.743-3.833,3.891a2.914,2.914,0,0,0-.979,2.37c.032,10.078.019,20.156.023,30.234,0,.486.044.971.067,1.444h38.561v-43.36ZM142.295,103.51a1.857,1.857,0,0,0-.127.4q-.018,2.794-.022,5.589c0,2.98.649,3.632,3.623,3.632h60.582a9.173,9.173,0,0,0,1.358-.03,2.193,2.193,0,0,0,2.1-2.038c.112-2.494.035-5,.035-7.55ZM69.571,185.774c0,2.084,0,4.085,0,6.087,0,2.849.683,3.519,3.586,3.519h60.582a9.767,9.767,0,0,0,1.358-.027,2.236,2.236,0,0,0,2.159-2.153c.1-2.448.029-4.9.029-7.425Zm72.613-2.629c2.994.369,2.995.369,3.84-2.175.222-.668.48-1.328.646-2.01a1.963,1.963,0,0,1,1.58-1.522q4.582-1.474,9.051-3.289c1.432-.581,2.719-2.085,4.086-2.1,1.439-.02,2.926,1.18,4.332,1.954a1.185,1.185,0,0,0,1.679-.336c1.29-1.345,2.636-2.636,3.941-3.966.983-1,2.575-1.944,2.733-3.074.169-1.209-1.027-2.608-1.628-3.924a1.4,1.4,0,0,0-.126-.274,1.583,1.583,0,0,1,.081-2.037,33.117,33.117,0,0,0,4.7-10.891,3.744,3.744,0,0,1,3.065-3.249c3.137-.867,3.1-.983,3.1-4.2v-9.458H172.86c1.911,10.083.047,19.264-6.07,27.4-6.135,8.166-14.481,12.533-24.606,13.536ZM137.24,96.289c-2.981-.248-2.981-.248-3.865,2.419a9.169,9.169,0,0,1-.693,1.986,3.183,3.183,0,0,1-1.411,1.255c-3,1.155-6.3,1.777-8.976,3.423-3.095,1.9-5.691,2.384-8.651.143a1.605,1.605,0,0,0-1.482.273q-3.285,3.124-6.411,6.41a1.748,1.748,0,0,0-.23,1.511,20.944,20.944,0,0,0,1.592,3.247,1.989,1.989,0,0,1-.07,2.19c-1.467,2.911-3.319,5.771-4.038,8.879-.8,3.445-2.354,5.384-5.78,5.866-.9.126-1.07.652-1.061,1.479.04,3.526.014,7.053.023,10.579a7.693,7.693,0,0,0,.123.979H106.6c-1.918-10.031-.092-19.22,6-27.371,6.124-8.193,14.464-12.576,24.642-13.609Zm27.113,21.751-2.359,9.485H190l-2.324-9.485Zm-49.264,82.282H91.79c-.831,3.308-1.615,6.427-2.381,9.479h28.045C116.676,206.684,115.905,203.594,115.089,200.322ZM79.319,103.35H98.481V98.691H79.319Zm120.83,72.8H180.933v4.628h19.216Z" fill="#104cba"/>
    <path id="Path_17282" data-name="Path 17282" d="M298.784,248.886v-4.271l4.633-.554v5.348Z" transform="translate(-139.679 -107.009)" fill="#104cba"/>
    <path id="Path_17283" data-name="Path 17283" d="M298.177,268.09l-2.369,4.812-4.074-2.527,1.841-3.9Z" transform="translate(-135.471 -120.386)" fill="#104cba"/>
    <path id="Path_17284" data-name="Path 17284" d="M283.763,288.131l-3.55,2.938-2.7-3.991,3.017-2.542Z" transform="translate(-126.985 -131.163)" fill="#104cba"/>
    <path id="Path_17285" data-name="Path 17285" d="M88.92,117.592v-4.657h28.838v4.657Z" transform="translate(-14.441 -28.758)" fill="#104cba"/>
    <path id="Path_17286" data-name="Path 17286" d="M88.922,93.595V88.936h19.162v4.659Z" transform="translate(-14.442 -14.436)" fill="#104cba"/>
    <path id="Path_17287" data-name="Path 17287" d="M153.651,93.652h-4.668V88.957h4.668Z" transform="translate(-50.284 -14.449)" fill="#104cba"/>
    <path id="Path_17288" data-name="Path 17288" d="M340.893,381.627v-4.65h28.859v4.65Z" transform="translate(-164.808 -186.328)" fill="#104cba"/>
    <path id="Path_17289" data-name="Path 17289" d="M384.14,405.612H364.963v-4.7H384.14Z" transform="translate(-179.172 -200.614)" fill="#104cba"/>
    <path id="Path_17290" data-name="Path 17290" d="M345.566,405.661h-4.647V401.01h4.647Z" transform="translate(-164.824 -200.67)" fill="#104cba"/>
  </g>
</svg>
