<svg xmlns="http://www.w3.org/2000/svg" width="150" height="117.553" viewBox="0 0 150 117.553">
  <g id="Ratings_on_Clutch" data-name="Ratings on Clutch" transform="translate(-59.12 -112.785)">
    <path id="Path_17944" data-name="Path 17944" d="M199.642,255.782h1.805c5.092,0,10.185-.06,15.275.023,4.918.079,8.12,3.431,7.854,8.09a7.557,7.557,0,0,1-2.591,5.153,1.646,1.646,0,0,0-.411,1.37c.942,3.17.7,4.936-1.261,7.829,2.4,3.3,2.479,6.66.012,9.974,2.441,4.06,2.342,7.43-.261,10.165a7.438,7.438,0,0,1-5.563,2.386c-9.716.019-19.433.067-29.149-.025a21.733,21.733,0,0,1-12.272-3.925,5.9,5.9,0,0,0-3.616-1.055c-5.455.06-10.911.029-16.367.023-2.519,0-3.347-.836-3.348-3.354q0-16.679,0-33.358c0-2.471.766-3.277,3.248-3.287,5.716-.024,11.432.032,17.146-.048a5.639,5.639,0,0,0,2.875-.872c5.369-3.537,7.916-8.729,8.555-15,.147-1.443.4-2.877.62-4.311.178-1.138.814-2.079,1.969-2.088a38.05,38.05,0,0,1,8.194.35,9.465,9.465,0,0,1,7.279,9.485C199.658,247.4,199.642,251.5,199.642,255.782ZM186.908,238.4c-.144.883-.294,1.594-.371,2.313-.838,7.89-4.344,14.185-11.018,18.635a2.053,2.053,0,0,0-.793,1.459q-.069,15.042-.006,30.085a1.953,1.953,0,0,0,.658,1.4,15.97,15.97,0,0,0,8.617,3.247c4.046.167,8.1.146,12.152.161q9.041.033,18.082-.007c1.679-.007,2.743-.907,2.864-2.265.12-1.337-.828-2.337-2.486-2.624-1.6-.277-2.456-1.149-2.472-2.515s.755-2.234,2.421-2.52c1.462-.25,2.426-.955,2.528-2.483.089-1.318-.841-2.129-2.637-2.483a3.58,3.58,0,0,1-.886-.278,2.09,2.09,0,0,1-1.356-2.512,6.487,6.487,0,0,1,1.757-2.115c.181-.182.592-.141.9-.19a2.41,2.41,0,0,0,2.221-2.409c.086-1.251-.878-2.2-2.331-2.447-1.823-.312-2.687-1.2-2.617-2.691.069-1.459,1.084-2.3,2.894-2.392a22.038,22.038,0,0,0,2.638-.136,2.192,2.192,0,0,0,1.9-2.324,2.293,2.293,0,0,0-2.019-2.4,8.517,8.517,0,0,0-1.555-.051q-8.963,0-17.927,0c-2.6,0-3.4-.816-3.4-3.459,0-4.572.025-9.145-.01-13.717a5,5,0,0,0-5.278-5.276C188.6,238.394,187.829,238.4,186.908,238.4Zm-17.259,22.574H154.792v29.641h14.856Z" transform="translate(-52.935 -70.462)"/>
    <path id="Path_17945" data-name="Path 17945" d="M200.473,137.168c-2.262-1.648-4.447-3.226-6.617-4.825-1.888-1.391-2.583-3.22-1.986-5.13a4.5,4.5,0,0,1,4.636-3.186c2.39-.018,4.78-.041,7.168.015a1.236,1.236,0,0,0,1.428-1.027c.695-2.278,1.44-4.541,2.195-6.8.745-2.228,2.242-3.406,4.284-3.429,2.133-.024,3.663,1.147,4.432,3.442.741,2.21,1.494,4.417,2.149,6.653a1.39,1.39,0,0,0,1.64,1.163c2.336-.065,4.675-.035,7.012-.017a4.458,4.458,0,0,1,4.566,3.055,4.4,4.4,0,0,1-1.813,5.179c-1.786,1.338-3.566,2.692-5.429,3.918a1.758,1.758,0,0,0-.867,2.505c.832,2.117,1.462,4.314,2.133,6.492a4.423,4.423,0,0,1-1.525,5.14,4.486,4.486,0,0,1-5.366-.065c-2-1.4-3.977-2.829-5.913-4.312a1.335,1.335,0,0,0-1.91.018c-1.857,1.416-3.757,2.775-5.657,4.133a4.607,4.607,0,0,1-5.5.313,4.487,4.487,0,0,1-1.588-5.392C198.747,142.443,199.593,139.889,200.473,137.168Zm-1.932-8.138-.164.351q2.806,2.041,5.611,4.082c2.16,1.576,2.312,2.058,1.5,4.571-.72,2.237-1.427,4.479-2.271,7.133,2.134-1.542,3.889-2.814,5.648-4.081,2.73-1.968,2.866-1.968,5.561-.024,1.764,1.272,3.527,2.545,5.667,4.09-.864-2.7-1.566-4.911-2.278-7.118-.819-2.535-.683-2.96,1.509-4.557,1.383-1.008,2.772-2.009,4.152-3.022.5-.368.985-.761,1.477-1.142a57.028,57.028,0,0,0-6.839-.282c-3.073,0-3.3-.173-4.265-3.15-.673-2.075-1.361-4.144-2.042-6.216a59.6,59.6,0,0,0-2.672,7.223,2.746,2.746,0,0,1-2.986,2.157C203.616,128.988,201.078,129.03,198.54,129.03Z" transform="translate(-77.415 0)" fill="#104cba"/>
    <path id="Path_17946" data-name="Path 17946" d="M318.941,177.121c.668,2.093,1.321,4.06,1.923,6.043a4.035,4.035,0,0,1-6.187,4.609c-1.5-1.022-2.917-2.177-4.445-3.155a1.772,1.772,0,0,0-1.57.007c-1.487.946-2.865,2.061-4.319,3.063a4.042,4.042,0,0,1-6.3-4.543c.486-1.639.971-3.285,1.592-4.875a1.347,1.347,0,0,0-.652-1.9c-1.34-.89-2.63-1.859-3.914-2.83-1.8-1.36-2.357-2.918-1.746-4.732.619-1.842,1.966-2.746,4.2-2.775,1.663-.022,3.329-.052,4.989.013a1.24,1.24,0,0,0,1.433-1.039c.492-1.637,1.023-3.262,1.575-4.88a4.051,4.051,0,0,1,7.865.024c.513,1.467,1.059,2.931,1.436,4.435a1.682,1.682,0,0,0,2.072,1.468c1.6-.108,3.221-.054,4.832-.012a3.943,3.943,0,0,1,3.884,2.794,4,4,0,0,1-1.557,4.539C322.4,174.627,320.71,175.828,318.941,177.121Zm-4.231,4.439.279-.187c-.431-1.32-.837-2.648-1.3-3.956a2.824,2.824,0,0,1,1.226-3.631c1.133-.77,2.221-1.607,3.328-2.414a17.075,17.075,0,0,0-4.245-.31,2.865,2.865,0,0,1-3.1-2.266c-.428-1.375-.889-2.739-1.443-4.437-.574,1.767-1.029,3.186-1.5,4.6a2.761,2.761,0,0,1-2.909,2.1c-1.43-.023-2.861-.005-4.779-.005,1.588,1.17,2.783,2.038,3.965,2.925a2.607,2.607,0,0,1,1.014,3.276c-.506,1.394-.9,2.829-1.453,4.6l3.59-2.577c1.738-1.247,2.431-1.247,4.191.014C312.625,180.041,313.666,180.8,314.71,181.56Z" transform="translate(-136.656 -25.86)" fill="#104cba"/>
    <path id="Path_17947" data-name="Path 17947" d="M69.589,244.017c.654-1.954,1.284-3.865,1.933-5.768.711-2.086,2.06-3.177,3.918-3.2a4.074,4.074,0,0,1,3.987,3.108c.527,1.517,1.041,3.041,1.482,4.584.264.923.68,1.372,1.726,1.3,1.4-.1,2.8-.027,4.208-.024,2.732.007,4.183.861,4.808,2.825.606,1.907-.113,3.484-2.325,5.1L84.977,255.1c.632,1.988,1.275,3.947,1.877,5.918a4.047,4.047,0,0,1-6.291,4.641c-1.365-.947-2.738-1.892-4.024-2.941a1.436,1.436,0,0,0-2.146.041c-1.29,1.044-2.661,1.991-4.032,2.928a4.045,4.045,0,0,1-6.278-4.575c.459-1.539.931-3.079,1.511-4.575a1.585,1.585,0,0,0-.714-2.291c-1.325-.81-2.549-1.791-3.79-2.732-1.791-1.358-2.344-2.921-1.726-4.739s1.974-2.733,4.215-2.757C65.55,244,67.523,244.017,69.589,244.017Zm14.67,5.363-.124-.338c-1.338,0-2.679-.044-4.015.011a2.918,2.918,0,0,1-3.216-2.329c-.412-1.355-.882-2.693-1.43-4.354-.566,1.736-1.028,3.109-1.461,4.491a2.8,2.8,0,0,1-3,2.187c-1.418-.029-2.838-.006-4.257-.006a24.344,24.344,0,0,0,3.435,2.866,2.672,2.672,0,0,1,1.072,3.4c-.5,1.366-.88,2.775-1.429,4.539,1.491-1.071,2.656-1.848,3.754-2.712a2.782,2.782,0,0,1,3.818,0c1.1.849,2.251,1.631,3.768,2.723-.581-1.793-1-3.162-1.47-4.514a2.771,2.771,0,0,1,1.166-3.514C82.016,251.035,83.131,250.2,84.258,249.38Z" transform="translate(0 -71.413)" fill="#104cba"/>
    <path id="Path_17948" data-name="Path 17948" d="M351.593,243.9c.618-1.849,1.246-3.762,1.9-5.668.709-2.078,2.07-3.17,3.928-3.184a4.08,4.08,0,0,1,3.978,3.122c.542,1.567,1.059,3.143,1.53,4.733a1.319,1.319,0,0,0,1.531,1.133c1.711-.079,3.43-.045,5.145-.012a4.024,4.024,0,0,1,2.422,7.358c-1.654,1.25-3.344,2.452-5.083,3.721.635,2,1.278,3.959,1.88,5.931a4.045,4.045,0,0,1-6.307,4.617c-1.322-.919-2.644-1.844-3.9-2.853a1.51,1.51,0,0,0-2.279-.037,48.8,48.8,0,0,1-4.027,2.933,4,4,0,0,1-4.921,0,4.047,4.047,0,0,1-1.343-4.6c.489-1.638.989-3.277,1.588-4.877a1.275,1.275,0,0,0-.55-1.8c-1.385-.916-2.719-1.913-4.044-2.915-1.783-1.349-2.333-2.93-1.711-4.744s1.977-2.716,4.225-2.744c1.871-.024,3.742-.015,5.613-.026A2.751,2.751,0,0,0,351.593,243.9Zm14.617,5.489-.094-.35q-1.765,0-3.53,0c-2.526,0-3.038-.376-3.819-2.738-.4-1.215-.826-2.423-1.283-3.759a4.143,4.143,0,0,0-.24.443c-.411,1.228-.814,2.459-1.228,3.687-.632,1.876-1.3,2.355-3.315,2.367-1.321.007-2.643,0-3.965,0a19.644,19.644,0,0,0,3.272,2.745,2.8,2.8,0,0,1,1.192,3.635c-.5,1.328-.87,2.7-1.415,4.426,1.306-.939,2.273-1.63,3.237-2.328,2.2-1.6,2.7-1.589,4.946.056.918.672,1.845,1.332,2.768,2a19.17,19.17,0,0,0-.942-3.907c-.653-2.047-.431-2.755,1.266-4C364.107,250.906,365.16,250.151,366.21,249.392Z" transform="translate(-164.689 -71.413)" fill="#104cba"/>
    <path id="Path_17949" data-name="Path 17949" d="M114.55,177.126c-1.528-1.112-2.956-2.145-4.378-3.187-2.224-1.629-2.929-3.188-2.315-5.1.632-1.964,2.072-2.808,4.814-2.815,1.247,0,2.5-.082,3.74.022a1.807,1.807,0,0,0,2.275-1.6,39.669,39.669,0,0,1,1.45-4.428,4.039,4.039,0,0,1,7.767-.05c.583,1.662,1.113,3.344,1.617,5.031a1.24,1.24,0,0,0,1.425,1.049c1.765-.064,3.534-.045,5.3,0a3.872,3.872,0,0,1,3.9,2.758,3.807,3.807,0,0,1-1.377,4.44c-1.377,1.1-2.813,2.138-4.274,3.127a1.355,1.355,0,0,0-.661,1.9c.635,1.64,1.131,3.336,1.625,5.027a4.03,4.03,0,0,1-6.2,4.5c-1.5-1.021-2.915-2.178-4.442-3.159a1.78,1.78,0,0,0-1.57-.017c-1.364.848-2.625,1.86-3.936,2.8-1.952,1.393-3.729,1.5-5.308.347-1.529-1.12-1.969-2.93-1.241-5.189C113.334,180.79,113.926,179.022,114.55,177.126Zm3.939,4.254.257.2c1.129-.811,2.288-1.586,3.38-2.444a2.772,2.772,0,0,1,3.809.013c1.107.856,2.279,1.63,3.754,2.674-.557-1.739-.93-3.078-1.417-4.375a2.777,2.777,0,0,1,1.172-3.626c1.152-.8,2.258-1.665,3.745-2.77-1.892,0-3.284-.027-4.675.008a2.8,2.8,0,0,1-3.015-2.154c-.445-1.4-.909-2.787-1.479-4.532-.581,1.768-1.049,3.184-1.513,4.6a2.741,2.741,0,0,1-2.906,2.082c-1.424-.024-2.849-.005-4.273-.005a21.436,21.436,0,0,0,3.368,2.833,2.724,2.724,0,0,1,1.12,3.389C119.352,178.635,118.929,180.011,118.489,181.38Z" transform="translate(-28.342 -25.861)" fill="#104cba"/>
  </g>
</svg>
