<svg xmlns="http://www.w3.org/2000/svg" width="109.108" height="150" viewBox="0 0 109.108 150">
  <g id="Satisfied_Clients" data-name="Satisfied Clients" transform="translate(-158.59 -152.369)">
    <path id="Path_17871" data-name="Path 17871" d="M178.192,259.979c1.183-10.029,5.977-17.346,14.957-21.785a3.687,3.687,0,0,0,1.324-1.709c.934-1.916,1.773-3.878,2.8-6.153a25.083,25.083,0,0,1-9.4-18.868c-10.449-1.782-13.14-7.193-7.65-13.988-1.408-5.358-2.773-10.418-4.052-15.5-.4-1.6-.4-3.5,1.716-3.531.833-.01,2.081,1.664,2.464,2.8,1.365,4.05,2.3,8.248,3.721,12.274.375,1.06,1.923,1.706,3.453,2.973.4-2.783.3-4.652.973-6.178a41.57,41.57,0,0,1,4.934-9.1c2.753-3.481,4.974-3.537,9.026-1.5a22.569,22.569,0,0,0,21.612-.1c3.784-1.955,5.855-1.611,8.887,1.449a18.834,18.834,0,0,1,5.456,14.118c2.708,1.03,4.5.476,5.273-2.46,1.015-3.848,2.5-7.62,3.064-11.528.692-4.761-1.361-7.9-5.9-8.442a4.508,4.508,0,0,1-2.666-2.265c-6.114-11.057-16.9-15.878-28.98-11.893-9.878,3.257-19.256,3.646-29.095-1.9-.2,4.551-.389,8.588-.561,12.626-.037.877.25,1.894-.105,2.6-.419.827-1.375,1.9-2.1,1.906s-2.11-1.207-2.088-1.849c.183-5.54.368-11.1,1.088-16.592.34-2.59,3.463-3.792,5.826-2.475,8.361,4.66,16.717,4.389,25.67,1.481,13.615-4.423,25.739.535,33.512,12.726a5,5,0,0,0,2.414,1.765c4.742,1.727,7.213,5.009,7.432,10.116.254,5.921-1.728,11.3-3.931,16.648a4.091,4.091,0,0,0-.005,3.114c3.441,6.2.333,12.009-6.732,12.362-.577.029-1.152.074-2,.13-.459,7.767-3.449,14.312-9.453,18.983,1.015,2.374,1.843,4.542,2.877,6.606a5.518,5.518,0,0,0,1.855,1.654,66.616,66.616,0,0,1,5.926,4.225c.577.514.279,2.008.382,3.054-1.043.072-2.274.529-3.089.132a30,30,0,0,1-4.375-3.161c-.633,2.1-1.02,3.807-1.66,5.418a18.427,18.427,0,0,1-9.043,9.955c-2.545,1.28-4.366.265-4.886-2.524-.142-.767-.03-1.726-.454-2.268a47.993,47.993,0,0,0-3.539-3.726c-1.147,1.3-2.373,2.538-3.4,3.925-.355.479-.176,1.332-.305,2-.56,2.9-2.479,3.88-5.153,2.484a18.856,18.856,0,0,1-9.765-12.529c-.172-.656-.3-1.325-.459-1.984-.018-.074-.137-.122-.209-.183C188.1,245.2,183,252.942,182.919,259.94H243.9c-.673-2.4-1.2-4.546-1.888-6.642-.48-1.467-1.052-2.96.8-3.739,2.035-.854,2.857.687,3.347,2.233.821,2.591,1.481,5.235,2.292,8.157.807.192,1.913.453,3.017.719a21.107,21.107,0,0,1-4.6,41.647c-22.157.089-44.316.047-66.475.024-11.405-.013-20.492-7.972-21.687-18.906-1.189-10.884,6.091-20.616,17.24-23.039C176.619,260.249,177.292,260.145,178.192,259.979ZM212.415,230.9c7.351.165,12.8-2.185,17.041-7.205a20.084,20.084,0,0,0,4.578-12.975c.083-3.73.279-3.9,4.08-3.919.976-.006,2.18.337,2.877-.108,1.245-.795,2.768-1.908,3.116-3.177.549-2.01-1.065-3.186-3-3.532a17.269,17.269,0,0,0-2.922-.08c-3.957-.021-4.173-.176-4.135-4.139a15.95,15.95,0,0,0-3.705-11.1c-1.386-1.6-2.581-2.074-4.74-.949a25.426,25.426,0,0,1-24.429.182c-2.679-1.375-4.031-.679-5.62,1.316a15.366,15.366,0,0,0-3.13,10.984c.168,2.762-.974,4.017-3.784,3.724a14.96,14.96,0,0,0-2.924.017c-2.074.194-3.613,1.148-3.614,3.424,0,2.259,1.468,3.268,3.587,3.422.874.063,1.756.016,2.634.021,3.7.021,3.98.3,4.092,3.98C192.783,222.933,200.986,230.868,212.415,230.9Zm.776,67.025c11.118,0,22.238.135,33.353-.041a16.7,16.7,0,1,0-.013-33.407c-22.234-.15-44.47-.086-66.705-.018a15.972,15.972,0,0,0-13.008,6.223c-4.246,5.386-5.016,11.422-2.141,17.583,2.995,6.418,8.372,9.6,15.454,9.646C191.151,297.978,202.172,297.929,213.191,297.925Zm-10.734-64.533c.319,4.567,2.241,7.645,5.884,9.478a10.154,10.154,0,0,0,11.287-1,9.393,9.393,0,0,0,4.067-8.417A29.706,29.706,0,0,1,202.457,233.392ZM221.475,253c4.877-2.86,7.709-9.618,6.107-13.169l-8.4,8.277Zm-14.109-5.315a42.678,42.678,0,0,1-4.845-3.706,46.349,46.349,0,0,1-3.837-5.009c-.824,6.11,1.51,11.325,6.236,14.017C205.721,251.251,206.522,249.513,207.366,247.685Z" transform="translate(0 0)"/>
    <path id="Path_17877" data-name="Path 17877" d="M228.719,238.279a11.236,11.236,0,0,1-10.187-6.207c-.445-.836.308-2.309.509-3.489,1.052.394,2.5.478,3.09,1.233,4.288,5.528,9.154,5.5,13.568-.061.583-.735,2.05-.769,3.108-1.128.161,1.186.814,2.595.4,3.517C237.526,235.838,233.265,238.231,228.719,238.279Z" transform="translate(-15.705 -20.014)"/>
    <path id="Path_17878" data-name="Path 17878" d="M246.172,210.9c-.9.832-1.341,1.568-1.89,1.664a4.039,4.039,0,0,1-2.8-.265,2.526,2.526,0,0,1-.226-2.472c1.363-1.234,3.026-2.911,4.592-2.929s3.278,1.606,4.63,2.837c.429.39.244,2.213-.282,2.683s-1.872.245-2.793.036C246.972,212.359,246.69,211.59,246.172,210.9Z" transform="translate(-21.649 -14.32)"/>
    <path id="Path_17879" data-name="Path 17879" d="M215.837,211.186c-.756.659-1.267,1.422-1.935,1.6a2.934,2.934,0,0,1-2.374-.314c-.495-.447-.827-1.973-.519-2.257,1.43-1.321,3.133-3.32,4.687-3.275,1.724.05,3.466,1.964,5.017,3.283.285.243-.063,1.8-.566,2.242a2.946,2.946,0,0,1-2.376.322C217.1,212.609,216.586,211.84,215.837,211.186Z" transform="translate(-13.734 -14.331)"/>
    <path id="Path_17880" data-name="Path 17880" d="M241.771,320.964a21.428,21.428,0,0,1-2.906,3.411c-1.535,1.277-2.348,2.492-1.428,4.45a11.856,11.856,0,0,1,.3,1.425c.641,2.009.266,4.006-1.592,4.792-1.384.585-3.666.66-4.807-.121-2.632-1.8-4.64-1.857-7.288-.027-1.145.79-3.732.906-4.725.129a5.488,5.488,0,0,1-1.573-4.707c.8-3.088.167-5.019-2.335-6.988-1.095-.861-1.986-3.3-1.532-4.463A5.521,5.521,0,0,1,217.95,316c3.106-.129,4.6-1.341,5.749-4.154a6.41,6.41,0,0,1,4-3.077c2.019-.513,3.483,1.075,4.028,3.023.824,2.949,2.544,4.171,5.67,4.114C240.232,315.85,241.743,317.542,241.771,320.964Zm-4.893-1.093c-5.409.977-7.818-1.672-9.3-5.957-1.159,4.78-4.109,6.693-8.9,6.418,4.245,2.64,5.029,6.032,3.61,10.445,3.786-3.221,7.312-2.607,10.933.3C232.254,325.035,232.254,325.035,236.878,319.871Z" transform="translate(-14.488 -41.045)" fill="#104cba"/>
    <path id="Path_17881" data-name="Path 17881" d="M281.908,320.906a16.376,16.376,0,0,1-2.8,3.285,3.935,3.935,0,0,0-1.569,5c.7,2.11.959,4.292-1.144,5.852-2.082,1.543-4.124.829-5.912-.561-1.864-1.448-3.492-1.559-5.41-.052-1.75,1.377-3.8,2.184-5.915.673s-2.073-3.626-1.256-5.781c.838-2.211.4-3.828-1.64-5.168-1.881-1.234-3.229-2.917-2.45-5.414.787-2.523,2.841-3.035,5.114-2.948,2.4.093,3.75-.925,4.42-3.257.618-2.148,1.791-3.955,4.443-3.915,2.477.038,3.721,1.667,4.247,3.759.718,2.857,2.612,3.408,5.2,3.469C280.181,315.922,281.928,317.644,281.908,320.906Zm-5.36-.622c-5.2.592-7.46-2.281-8.926-6.543-1.1,4.713-3.842,6.908-8.892,6.54,4.281,2.735,5.166,6.247,3.4,10.774,3.68-3.343,7.288-3.117,11.256-.34C271.226,326.117,272.879,323.023,276.548,320.284Z" transform="translate(-24.946 -41.033)" fill="#104cba"/>
    <path id="Path_17882" data-name="Path 17882" d="M201.615,320.824a12.271,12.271,0,0,1-2.367,2.985c-2.186,1.612-2.825,3.313-1.925,5.951a6.166,6.166,0,0,1-.307,4.172c-1,2.189-3.664,2.688-6.042.987-2.459-1.76-4.4-1.875-7-.145a6.209,6.209,0,0,1-5.06.229c-2.037-.854-2.237-3.111-1.467-5.094,1.029-2.646.548-4.564-1.926-6.137a4.121,4.121,0,0,1-2.026-5.013c.757-2.358,2.612-3.053,4.817-2.942,2.641.133,4.119-.964,4.832-3.539.573-2.073,1.841-3.686,4.329-3.658a4.177,4.177,0,0,1,4.156,3.48c.754,2.852,2.487,3.75,5.3,3.764C199.889,315.879,201.633,317.638,201.615,320.824Zm-4.874-.391c-6.1-1.068-6.1-1.068-9.579-6.833-.933,4.772-3.645,7.139-8.723,6.706,4.288,2.739,5.1,6.2,3.4,10.643,3.736-3.143,7.329-3.1,11.258-.158C190.982,326.2,192.493,323.06,196.741,320.433Z" transform="translate(-3.854 -41.032)" fill="#104cba"/>
  </g>
</svg>
