<?xml version="1.0" encoding="iso-8859-1"?>
<!-- Generator: Adobe Illustrator 17.0.0, SVG Export Plug-In . SVG Version: 6.00 Build 0)  -->
<!DOCTYPE svg PUBLIC "-//W3C//DTD SVG 1.1//EN" "http://www.w3.org/Graphics/SVG/1.1/DTD/svg11.dtd">
<svg version="1.1" xmlns="http://www.w3.org/2000/svg" xmlns:xlink="http://www.w3.org/1999/xlink" x="0px" y="0px"
	 width="288.667px" height="407.333px" viewBox="0 0 288.667 407.333" style="enable-background:new 0 0 288.667 407.333;"
	 xml:space="preserve">
<g id="Layer_1" style="display:none;">
	<g style="display:inline;">
		<path style="fill:#104CBA;" d="M39.438,280.763H27.184c-6.871,0-6.803-10.365,0-10.365c10.577,0,17.436-1.326,17.436,5.182
			C44.621,278.444,42.301,280.763,39.438,280.763"/>
		<path style="fill:#EEE4D9;" d="M223.981,129.277h-24.809c-0.316,0-0.57-0.255-0.57-0.572c0-0.316,0.255-0.572,0.57-0.572h24.809
			c0.317,0,0.572,0.256,0.572,0.572C224.553,129.022,224.298,129.277,223.981,129.277"/>
		<path style="fill:#EEE4D9;" d="M234.115,116.578h-20.266c-0.316,0-0.572-0.255-0.572-0.572c0-0.316,0.256-0.572,0.572-0.572
			h20.266c0.316,0,0.572,0.256,0.572,0.572C234.687,116.323,234.43,116.578,234.115,116.578"/>
		<path style="fill:#EEE4D9;" d="M246.567,99.719h-14.234c-0.317,0-0.572-0.255-0.572-0.572c0-0.316,0.255-0.572,0.572-0.572h14.234
			c0.316,0,0.572,0.256,0.572,0.572C247.139,99.464,246.883,99.719,246.567,99.719"/>
		<path style="fill:#9EBFD8;" d="M230.965,133.266c-22.722,0-23.221,0.519-23.221-1.368c0-6.161-0.402-7.754,1.37-7.754
			c22.72,0,23.219-0.517,23.219,1.37C232.333,131.673,232.735,133.266,230.965,133.266"/>
		<path style="fill:#D6723A;" d="M228.962,234.77c-5.096,0-7.485,0.513-7.485-1.74c0-5.099-0.511-7.487,1.743-7.487
			c5.096,0,7.484-0.513,7.484,1.742C230.703,232.382,231.216,234.77,228.962,234.77"/>
		<path style="fill:#D6723A;" d="M228.962,255.06c-5.096,0-7.485,0.513-7.485-1.74c0-5.099-0.511-7.487,1.743-7.487
			c5.096,0,7.484-0.513,7.484,1.742C230.703,252.672,231.216,255.06,228.962,255.06"/>
		<path style="fill:#D6723A;" d="M228.962,276.667c-5.096,0-7.485,0.513-7.485-1.742c0-5.098-0.511-7.485,1.743-7.485
			c5.096,0,7.484-0.513,7.484,1.742C230.703,274.279,231.216,276.667,228.962,276.667"/>
		<path style="fill:#D6723A;" d="M228.962,294.372c-5.096,0-7.485,0.513-7.485-1.742c0-5.098-0.511-7.485,1.743-7.485
			c5.096,0,7.484-0.513,7.484,1.74C230.703,291.984,231.216,294.372,228.962,294.372"/>
		<path style="fill:#D6723A;" d="M228.962,315.081c-5.096,0-7.485,0.513-7.485-1.742c0-5.098-0.511-7.485,1.743-7.485
			c5.096,0,7.484-0.513,7.484,1.742C230.703,312.693,231.216,315.081,228.962,315.081"/>
		<g>
			<g>
				<defs>
					<rect id="SVGID_1_" x="4.816" y="373.377" width="280.634" height="55.956"/>
				</defs>
				<clipPath id="SVGID_2_">
					<use xlink:href="#SVGID_1_"  style="overflow:visible;"/>
				</clipPath>
				<path style="clip-path:url(#SVGID_2_);fill:#E0DFEA;" d="M145.134,429.333c-187.225,0-186.955-55.956,0-55.956
					C332.365,373.377,332.08,429.333,145.134,429.333"/>
			</g>
		</g>
		<path style="fill:#9E653B;" d="M62.376,400.588c-3.904-1.503-3.2,0.558,19.284-76.879l14.184,5.008l-29.382,70.127
			C65.086,402.129,61.233,400.148,62.376,400.588"/>
		<path style="fill:#9E653B;" d="M223.862,399.211l-19.12-73.586l-14.32,4.603l27.381,70.933
			C219.249,404.907,224.856,403.035,223.862,399.211"/>
		<path style="fill:#E6EFFF;" d="M54.553,332.668c-62.341-27.51-59.794-99.467-23.389-107.323
			c19.704-4.251,36.218,13.624,52.715,25.205c29.905,20.992,72.238,22.535,103.592,3.772c16.071-9.617,59.603-45.204,87.268-19.789
			c30.578,28.091-11.639,108.755-79.876,104.455C148.527,336.07,98.675,352.142,54.553,332.668"/>
		<path style="fill:#E6EFFF;" d="M108.617,342.793c-18.536,0-36.881-2.169-54.201-9.814c-37.43-16.517-51.606-49.214-49.052-74.29
			c1.807-17.738,11.665-30.64,25.727-33.674c15.852-3.426,29.605,7.297,42.906,17.664c3.307,2.579,6.73,5.246,10.075,7.595
			c29.67,20.827,72.116,22.374,103.223,3.758c2.136-1.276,4.749-3.01,7.775-5.016c19.475-12.909,55.725-36.936,79.898-14.73
			c11.686,10.737,13.463,30.27,4.633,50.978c-6.492,15.23-17.732,29.012-31.65,38.806c-15.871,11.171-34.235,16.444-53.111,15.258
			c-16.091-1.01-32.914,0.291-49.184,1.552C133.396,341.83,120.963,342.793,108.617,342.793 M37.134,225.046
			c-1.937,0-3.901,0.2-5.899,0.631c-13.765,2.969-23.42,15.646-25.195,33.079c-2.531,24.834,11.532,57.223,48.649,73.6
			c28.699,12.666,60.327,10.216,90.915,7.847c16.292-1.264,33.141-2.572,49.279-1.552c40.959,2.576,72.309-26.005,84.095-53.651
			c8.711-20.439,6.998-39.679-4.469-50.214c-23.784-21.85-59.743,1.987-79.063,14.795c-3.033,2.01-5.653,3.747-7.803,5.034
			c-31.329,18.747-74.078,17.19-103.959-3.785c-3.362-2.361-6.789-5.031-10.104-7.614C62.098,234.263,50.27,225.046,37.134,225.046"
			/>
		<path style="fill:#F5F9FF;" d="M77.6,312.174c-46.48-20.51-44.579-74.16-17.438-80.014c14.69-3.171,27.002,10.157,39.302,18.793
			c22.296,15.651,53.858,16.801,77.234,2.811c11.982-7.171,44.438-33.703,65.065-14.754c22.796,20.942-8.678,81.082-59.553,77.877
			C147.662,314.711,110.496,326.693,77.6,312.174"/>
		<path style="fill:#E6EFFF;" d="M43.547,189.592c-8.679-20.446-17.527-42.752-12.022-64.27
			c13.279-51.904,112.881-81.568,191.479-41.126c102.767,52.878-1.415,140.526-20.536,181.731
			c-6.204,13.375-8.751,18.56-28.155,19.327C63.498,289.628,75.219,264.215,43.547,189.592"/>
		<path style="fill:#E6EFFF;" d="M152.443,286.062c-32.812,0-52.46-3.797-65.48-12.277c-15.695-10.218-21.9-26.939-31.294-52.251
			c-3.479-9.376-7.423-20.002-12.436-31.809c-7.513-17.703-17.803-41.947-12.037-64.488c4.862-19.002,21.267-35.64,46.193-46.847
			c43.787-19.689,101.005-17.529,145.769,5.504c24.476,12.595,39.083,28.319,43.412,46.73
			c8.073,34.343-19.729,72.171-42.068,102.566c-9.417,12.812-17.55,23.879-21.727,32.882c-6.15,13.254-8.696,18.739-28.449,19.521
			C166.443,285.903,159.165,286.062,152.443,286.062 M43.858,189.46c5.019,11.823,8.965,22.456,12.446,31.84
			c18.68,50.332,24.97,67.298,117.995,63.613c19.339-0.76,21.658-5.762,27.86-19.126c4.205-9.065,12.357-20.155,21.796-32.997
			c22.256-30.283,49.956-67.972,41.953-102.008c-4.28-18.211-18.77-33.783-43.063-46.283C178.261,61.556,121.275,59.4,77.669,79.008
			c-24.735,11.122-41.005,27.599-45.815,46.398C26.144,147.724,36.382,171.848,43.858,189.46"/>
		<path style="fill:#F5F9FF;" d="M64.508,186.791c-6.95-16.373-14.033-34.232-9.626-51.464
			c10.633-41.56,90.387-65.313,153.322-32.931c82.29,42.341-1.132,112.525-16.441,145.519c-4.969,10.709-7.009,14.86-22.544,15.473
			C80.483,266.893,89.869,246.543,64.508,186.791"/>
		<path style="fill:#FBA789;" d="M168.782,97.102c1.784,0.942,2.244,3.272,1.02,4.876c-13.486,17.659-45.169,10.781-55.439,0.432
			c-5.114-6.278,12.044-4.917,11.978-10.172c-0.29-22.49-2.529-23.358,3.888-23.766c5.782-0.369,14.831,0.918,20.316-1.042
			c1.06-0.378,1.663-3.098,2.18-0.566C155.075,78.398,158.425,91.635,168.782,97.102"/>
		<path style="fill:#FBA789;" d="M131.147,86.678c16.734-7.563,25.568-21.534,27.809-39.14c2.899-22.781-5.826-28.828-19.974-30.629
			C92.981,11.053,110.349,96.078,131.147,86.678"/>
		<path style="fill:#95563A;" d="M139.151,8.906c3.653-5.293,18.58-4.695,24.673,7.598c7.135,14.397-10.941,53.613-11.087,50.622
			c-0.346-7.12-1.206-27.528-7.998-42.774C143.209,20.92,136.516,12.724,139.151,8.906"/>
		<path style="fill:#FBA789;" d="M155.594,51.789c5.597-16.527-7.777-22.516-4.656,4.09
			C151.792,63.16,154.758,54.259,155.594,51.789"/>
		<path style="fill:#382823;" d="M133.565,55.441c1.673,0.03,3.096-6.311-0.963-6.384C130.436,49.02,130.827,55.393,133.565,55.441"
			/>
		<path style="fill:#382823;" d="M117.693,55.122c1.673,0.03,3.096-6.311-0.963-6.384C114.561,48.7,114.954,55.073,117.693,55.122"
			/>
		<path style="fill:#95563A;" d="M130.482,45.004c-0.666,0.341-0.52,1.349,0.214,1.493C151.187,50.51,142.617,38.797,130.482,45.004
			"/>
		<path style="fill:#95563A;" d="M122.249,45.578c0.564,0.493,0.176,1.435-0.572,1.394
			C100.826,45.863,111.998,36.597,122.249,45.578"/>
		<path style="fill:#95563A;" d="M131.725,33.025c-2.138,0.404-4.278-0.62-6.451-0.705c-4.503-0.177-13.372,6.267-16.559,0.422
			c-1.461-2.676,0.417-5.868,0.813-8.892c1.021-7.806-2.679-5.932,13.014-16.91c10.43-7.297,11.853-1.422,15.511-0.473
			c3.681,0.954,8.423-3.442,10.203,5.665c0.44,2.247,3.982,12.751,2.76,14.396c-1.029,1.382-2.254-0.161-3.749-0.96
			C138.427,20.838,139.058,31.803,131.725,33.025"/>
		<path style="fill:#7D3B1A;" d="M143.67,22.016c-0.099,0-0.197-0.026-0.288-0.079c-4.648-2.726-6.824-8.824-4.955-13.877
			c0.109-0.296,0.438-0.448,0.734-0.337c0.297,0.109,0.448,0.438,0.338,0.733c-1.655,4.476,0.346,10.081,4.46,12.495
			c0.273,0.159,0.363,0.51,0.203,0.783C144.057,21.916,143.865,22.016,143.67,22.016"/>
		<path style="fill:#7D3B1A;" d="M157.593,14.121c-0.187,0-0.369-0.091-0.479-0.258c-4.125-6.308-12.331-5.29-15.607-3.379
			c-0.272,0.159-0.622,0.065-0.783-0.206c-0.158-0.273-0.065-0.624,0.208-0.783c4.345-2.534,12.952-2.661,17.139,3.741
			c0.173,0.264,0.099,0.617-0.165,0.79C157.81,14.09,157.699,14.121,157.593,14.121"/>
		<path style="fill:#7D3B1A;" d="M150.174,16.088c-0.147,0-0.294-0.058-0.407-0.17c-1.038-1.054-2.93-1.758-4.65-1.742
			c-0.777,0.014-1.851,0.187-2.546,0.941c-0.215,0.234-0.577,0.246-0.809,0.033c-0.232-0.214-0.247-0.577-0.033-0.807
			c0.769-0.834,1.933-1.288,3.37-1.311c2.021-0.035,4.222,0.804,5.483,2.081c0.221,0.226,0.218,0.587-0.006,0.81
			C150.464,16.033,150.319,16.088,150.174,16.088"/>
		<path style="fill:#7D3B1A;" d="M155.456,31.522c-0.272,0-0.511-0.193-0.561-0.47c-0.616-3.383-3.635-9.553-6.785-11.142
			c-0.921-0.464-1.758-0.498-2.561-0.105c-0.284,0.141-0.625,0.023-0.765-0.261c-0.14-0.284-0.023-0.627,0.261-0.765
			c1.129-0.555,2.335-0.52,3.58,0.109c3.773,1.904,6.819,8.798,7.394,11.959c0.056,0.309-0.15,0.608-0.461,0.664
			C155.524,31.52,155.49,31.522,155.456,31.522"/>
		<path style="fill:#7D3B1A;" d="M159.966,43.647c-0.049,0-0.097-0.006-0.147-0.02c-0.305-0.08-0.487-0.393-0.405-0.698
			c1.467-5.544,2.553-11.246,3.228-16.948c0.038-0.314,0.322-0.539,0.634-0.501c0.314,0.036,0.539,0.322,0.501,0.634
			c-0.68,5.756-1.777,11.51-3.259,17.107C160.45,43.478,160.22,43.647,159.966,43.647"/>
		<path style="fill:#7D3B1A;" d="M154.141,63.488c-0.1,0-0.203-0.027-0.296-0.083c-0.272-0.164-0.357-0.516-0.193-0.786
			c0.959-1.578,2.754-6.604,3.244-8.819c0.07-0.308,0.376-0.496,0.684-0.434c0.308,0.068,0.502,0.373,0.434,0.681
			c-0.52,2.341-2.358,7.478-3.385,9.166C154.522,63.391,154.334,63.488,154.141,63.488"/>
		<path style="fill:#7D3B1A;" d="M119.545,13.567c-0.284,0-0.529-0.211-0.567-0.501c-0.039-0.313,0.184-0.599,0.496-0.639
			c1.505-0.191,2.829-1.473,4.23-2.831c2.785-2.699,6.254-6.058,12.486-0.957c0.244,0.2,0.281,0.56,0.08,0.804
			c-0.199,0.244-0.558,0.281-0.806,0.08c-5.443-4.454-8.124-1.857-10.964,0.894c-1.541,1.494-2.998,2.905-4.882,3.145
			C119.594,13.565,119.57,13.567,119.545,13.567"/>
		<path style="fill:#7D3B1A;" d="M128.662,17.987c-0.261,0-0.539-0.026-0.834-0.079c-0.31-0.058-0.516-0.357-0.46-0.666
			c0.058-0.311,0.352-0.519,0.666-0.46c1.59,0.291,2.408-0.513,3.356-1.446c1.271-1.249,2.711-2.664,5.9-0.863
			c0.275,0.155,0.372,0.504,0.215,0.778c-0.156,0.275-0.505,0.37-0.78,0.217c-2.438-1.378-3.316-0.513-4.533,0.683
			C131.348,16.981,130.327,17.987,128.662,17.987"/>
		<path style="fill:#7D3B1A;" d="M129.25,28.639c-0.303,0-0.611-0.049-0.922-0.155c-0.3-0.1-0.46-0.425-0.36-0.725
			c0.103-0.297,0.428-0.458,0.727-0.357c1.725,0.586,3.696-1.824,5.436-3.948c1.672-2.039,3.244-3.958,4.906-3.762
			c0.314,0.038,0.537,0.323,0.499,0.637c-0.039,0.313-0.322,0.534-0.637,0.499c-1.026-0.141-2.48,1.642-3.884,3.351
			C133.289,26.287,131.359,28.639,129.25,28.639"/>
		<path style="fill:#7D3B1A;" d="M115.562,31.114c-0.812,0-1.646-0.252-2.391-0.739c-1.177-0.771-1.904-1.984-1.943-3.247
			c-0.044-1.373,0.539-2.487,1.156-3.665c0.754-1.44,1.61-3.072,1.628-5.672c0.002-0.316,0.238-0.611,0.575-0.567
			c0.316,0.001,0.57,0.259,0.567,0.575c-0.02,2.876-0.983,4.718-1.757,6.196c-0.593,1.132-1.06,2.025-1.027,3.098
			c0.029,0.891,0.563,1.76,1.428,2.326c0.866,0.567,1.877,0.709,2.702,0.378c0.294-0.118,0.627,0.026,0.742,0.32
			c0.118,0.293-0.026,0.625-0.319,0.743C116.493,31.029,116.032,31.114,115.562,31.114"/>
		<path style="fill:#7D3B1A;" d="M150.932,40.024c-0.259,0-0.495-0.177-0.555-0.441c-0.482-2.053,0.455-4.371,2.226-5.513
			c0.265-0.17,0.619-0.096,0.792,0.171c0.17,0.265,0.094,0.619-0.171,0.79c-1.379,0.889-2.107,2.693-1.733,4.29
			c0.071,0.308-0.12,0.616-0.426,0.687C151.02,40.019,150.976,40.024,150.932,40.024"/>
		<path style="fill:#EC795C;" d="M124.969,94.713c-1.145,0.68,2.908,6.269,4.21,6.543c1.192,0.252,2.672-2.688,3.165-3.8
			c3.461-7.803,15.192-15.186,19.879-29.337c-6.557,12.217-18.97,17.555-25.993,18.803
			C126.232,91.545,126.993,93.511,124.969,94.713"/>
		<path style="fill:#FFFFFF;" d="M119.56,73.244l11.257,0.002c2.034,0-6.254,10.025-11.639,0.649
			C119.012,73.607,119.227,73.244,119.56,73.244"/>
		<path style="fill:#EC795C;" d="M126.221,65.813c-0.03,0-0.062-0.001-0.094-0.008l-0.935-0.147
			c-1.469-0.225-2.276-0.349-2.705-0.98c-0.467-0.687-0.249-1.632,0.225-3.703c0.363-1.581,0.859-3.744,1.353-6.942
			c0.049-0.311,0.332-0.52,0.652-0.476c0.313,0.049,0.526,0.341,0.478,0.652c-0.501,3.238-1.023,5.515-1.368,7.021
			c-0.337,1.47-0.58,2.531-0.393,2.805c0.149,0.22,0.935,0.34,1.933,0.493l0.947,0.149c0.311,0.052,0.522,0.346,0.472,0.657
			C126.738,65.615,126.497,65.813,126.221,65.813"/>
		<path style="fill:#EC795C;" d="M152.223,53.51c-0.319-0.001-0.573-0.258-0.572-0.573c0.003-0.795,0.458-1.657,0.939-2.568
			c0.916-1.74,1.863-3.538,0.264-5.289c-0.212-0.234-0.196-0.595,0.036-0.807c0.234-0.212,0.595-0.199,0.809,0.036
			c2.141,2.344,0.848,4.8-0.097,6.592c-0.414,0.784-0.806,1.526-0.807,2.04C152.793,53.257,152.537,53.51,152.223,53.51"/>
		<path style="fill:#104CBA;" d="M98.589,101.271c20.92-5.732,4.292,53.463-0.36,91.754c-4.21-0.25-17.027-4.732-20.082-8.071
			C78.148,184.954,78.066,106.894,98.589,101.271"/>
		<path style="fill:#104CBA;" d="M98.732,193.629l-0.537-0.033c-4.072-0.243-17.222-4.705-20.469-8.253l-0.149-0.165v-0.222
			c-0.003-3.204,0.155-78.563,20.862-84.237c2.966-0.813,5.375-0.402,7.159,1.221c7.404,6.73,2.813,33.116-2.047,61.047
			c-1.787,10.271-3.635,20.889-4.755,30.106L98.732,193.629z M78.721,184.726c2.998,2.99,14.405,7.135,19.008,7.678
			c1.129-9.115,2.942-19.531,4.695-29.613c4.594-26.399,9.344-53.698,2.405-60.005c-1.496-1.361-3.488-1.678-6.088-0.963
			C79.41,107.118,78.742,180.054,78.721,184.726"/>
		<path style="fill:#104CBA;" d="M124.969,94.713c10.805,11.753,35.479,6.193,38.771-1.387c10.511,4.752,11.416,5.689,21.739,9.858
			c6.266,40.739,18.462,92.515,5.578,129.348c-35.314,8.871-91.865,2.653-98.708-1.532c-4.049,2.549-4.651-93.494,6.24-129.729
			C98.59,101.271,119.579,95.119,124.969,94.713"/>
		<path style="fill:#104CBA;" d="M146.574,237.584c-25.656,0-49.411-3.339-54.295-5.965c-0.209,0.026-0.425-0.038-0.611-0.184
			c-4.286-3.26-4.001-95.817,6.373-130.33l0.09-0.296l0.297-0.088c0.86-0.252,21.109-6.173,26.498-6.58l0.278-0.02l0.187,0.203
			c5.034,5.474,13.954,7.746,23.864,6.076c6.962-1.171,12.572-4.107,13.962-7.303l0.231-0.533l0.529,0.24
			c4.046,1.828,6.654,3.086,8.956,4.193c3.588,1.73,6.423,3.095,12.762,5.654l0.302,0.123l0.049,0.32
			c0.957,6.22,2.034,12.595,3.175,19.345c6.254,36.998,13.342,78.934,2.377,110.279l-0.102,0.291l-0.299,0.076
			C178.092,236.378,161.988,237.584,146.574,237.584 M92.346,230.327l0.302,0.185c6.768,4.142,62.907,10.231,97.973,1.541
			c10.721-31.037,3.684-72.673-2.528-109.422c-1.123-6.637-2.183-12.912-3.128-19.038c-6.163-2.496-8.978-3.852-12.528-5.563
			c-2.2-1.059-4.679-2.253-8.429-3.955c-1.869,3.329-7.595,6.284-14.563,7.457c-10.169,1.71-19.375-0.614-24.702-6.225
			c-5.293,0.534-23.16,5.691-25.695,6.427c-10.456,35.3-9.94,123.665-6.797,128.655L92.346,230.327z"/>
		<path style="fill:#104CBA;" d="M195.536,177.928c-25.177,6.994-46.424,17.498-51.303,20.95l5.064,21.422
			c80.222-14.316,78.691-21.561,79.081-31.799c0.608-16.066-25.01-80.586-42.898-85.317
			C181.106,102.028,194.052,173.918,195.536,177.928"/>
		<path style="fill:#104CBA;" d="M148.864,220.959l-5.278-22.326l0.316-0.223c4.579-3.239,25.665-13.794,50.918-20.877
			c-2.072-7.719-13.521-70.892-10.145-74.61c0.253-0.278,0.601-0.384,0.953-0.291c11.347,3.001,23.892,28.079,28.759,38.721
			c8.608,18.826,14.869,39.104,14.563,47.169l-0.024,0.663c-0.347,10.215-0.598,17.594-79.526,31.679L148.864,220.959z
			 M144.879,199.126l4.85,20.516c77.491-13.86,77.725-20.842,78.054-30.496l0.023-0.668c0.628-16.523-25.154-79.887-42.344-84.708
			c-2.288,3.655,8.343,67.83,10.611,73.958l0.215,0.583l-0.599,0.167C170.866,185.374,150.037,195.663,144.879,199.126"/>
		<path style="fill:#FBA789;" d="M69.725,139.3l-13.067,6.194c-5.298-18.632-4.824-19.104-7.787-20.132
			c-8.393-2.914-37.901-18.08-29.042-19.082c7.443-0.84,13.838,8.308,25.749,8.962c8.796,0.482,12.351,3.116,14.381,5.592
			C60.894,121.976,60.836,122.116,69.725,139.3"/>
		<path style="fill:#EF7952;" d="M47.005,124.245c-0.073,0-0.149-0.014-0.222-0.044c-8.699-3.646-14.413-7.555-14.555-9.963
			c-0.032-0.557,0.22-1.016,0.712-1.294c2.069-1.176,8.083,1.13,14.624,5.6c0.261,0.179,0.328,0.534,0.149,0.795
			c-0.177,0.261-0.533,0.328-0.795,0.149c-7.947-5.43-12.469-6.082-13.413-5.548c-0.121,0.068-0.14,0.129-0.134,0.232
			c0.074,1.256,3.902,4.803,13.856,8.975c0.291,0.121,0.428,0.457,0.306,0.748C47.442,124.113,47.228,124.245,47.005,124.245"/>
		<path style="fill:#104CBA;" d="M95.358,199.978c9.001-9.306-3.008-31.955-30.705-75.134l-13.98,7.549
			C52.604,141.325,78.617,217.286,95.358,199.978"/>
		<path style="fill:#104CBA;" d="M90.004,203.107c-0.702,0-1.42-0.105-2.153-0.314c-16.64-4.747-36.082-62.627-37.737-70.279
			l-0.091-0.42l14.824-8.004l0.287,0.446c28.096,43.798,39.846,66.318,30.635,75.839l-0.411-0.396l0.411,0.396
			C94.011,202.192,92.08,203.107,90.004,203.107 M51.328,132.689c2.142,8.811,21.232,64.553,36.836,69.003
			c2.499,0.715,4.718,0.023,6.783-2.11c8.646-8.939-2.931-30.99-30.49-73.981L51.328,132.689z"/>
		<path d="M114.701,315.712c-0.188-6.011-3.116-13.957-6.643-17.456c5.251-1.733,12.936-4.272,17.365-7.391
			c51.81-36.106,41.593-27.851,55.499-48.516c6.534-9.711,10.101-21.008,10.063-32.832c22.594,11.658,59.507,13.455,74.498,37.132
			C291.761,288.161,189.116,275.599,114.701,315.712"/>
		<path style="fill:#463C3A;" d="M114.206,316.573l-0.026-0.845c-0.187-5.965-3.157-13.797-6.489-17.101l-0.604-0.601l0.807-0.264
			c5.122-1.692,12.861-4.246,17.228-7.325c4.94-3.441,9.312-6.478,13.197-9.177c30.801-21.393,30.801-21.393,37.315-31.714
			c1.25-1.978,2.804-4.442,4.855-7.49c6.562-9.749,10.01-21.001,9.974-32.536l-0.003-0.862l0.763,0.394
			c7.472,3.855,16.409,6.593,25.87,9.491c19.037,5.83,38.721,11.858,48.83,27.825c4.219,6.663,5.31,12.173,3.333,16.843
			c-4.853,11.468-28.068,16.314-57.458,22.449c-29.265,6.108-65.687,13.712-96.851,30.509L114.206,316.573z M108.998,298.495
			c3.15,3.599,5.786,10.564,6.184,16.368c31.134-16.597,67.301-24.148,96.405-30.223c29.091-6.073,52.071-10.87,56.708-21.834
			c1.833-4.331,0.769-9.526-3.253-15.878c-9.902-15.641-29.399-21.613-48.253-27.387c-9.192-2.814-17.891-5.48-25.286-9.177
			c-0.13,11.45-3.63,22.591-10.148,32.277c-2.042,3.033-3.591,5.489-4.838,7.464c-6.627,10.498-6.627,10.498-37.6,32.013
			c-3.885,2.697-8.259,5.735-13.194,9.176C121.448,294.302,114.156,296.788,108.998,298.495"/>
		<path style="fill:#FEAE65;" d="M114.701,315.712c-9.614,5.208-22.719,21.69-36.88,35.237c-1.733-2.573-5.126-5.378-8.367-6.038
			c10.183-15.273,6.37-11.53,10.344-25.489c13.657,0,21.413-5.11,20.895-18.727c2.464-0.839,4.946-1.643,7.364-2.438
			C111.588,301.758,114.513,309.706,114.701,315.712"/>
		<path style="fill:#D16A4B;" d="M77.822,350.948c-5.524,5.272-10.353,9.162-13.466,9.74c-6.31,1.171-0.569-7.276,5.099-15.777
			C72.696,345.57,76.09,348.376,77.822,350.948"/>
		<path style="fill:#FCBDA9;" d="M129.792,308.771c-4.357,1.825-10.961,4.714-15.091,6.941c-0.187-6.011-3.116-13.957-6.643-17.456
			c5.768-1.904,11.21-3.79,15.28-6.091C126.878,295.513,129.024,304.746,129.792,308.771"/>
		<path style="fill:#FBA789;" d="M129.792,308.771c-4.357,1.825-10.961,4.714-15.091,6.941c-0.187-6.011-3.116-13.957-6.643-17.456
			c5.768-1.904,11.21-3.79,15.28-6.091C126.878,295.513,129.024,304.746,129.792,308.771"/>
		<path style="fill:#D16A4B;" d="M79.808,319.422c3.615-12.817,9.239-14.746,20.886-18.729
			C101.202,314.065,92.923,319.706,79.808,319.422"/>
		<path d="M181.97,314.278C147.267,297.403-0.71,301.281,13.965,255.682c5.38-16.741,66.175-28.775,77.701-35.382l18.067,12.77
			l-35.241,19.237c36.566,1.593,102.23,40.773,112.784,42.493C187.918,301.79,186.472,308.95,181.97,314.278"/>
		<path style="fill:#463C3A;" d="M182.106,314.924l-0.364-0.177c-11.571-5.627-36.371-9.006-62.625-12.585
			c-43.227-5.891-92.223-12.566-104.023-31.304c-2.881-4.576-3.427-9.734-1.623-15.335c3.794-11.812,34.109-21.188,56.244-28.036
			c9.751-3.015,18.171-5.619,21.693-7.639l0.288-0.164l19.022,13.442l-34.381,18.768c25.186,1.877,62.552,19.967,87.479,32.034
			c11.342,5.49,20.301,9.829,23.546,10.356l0.398,0.065l0.038,0.402c0.718,7.818-1.211,14.872-5.428,19.862L182.106,314.924z
			 M91.634,220.916c-3.772,2.05-12.057,4.614-21.61,7.567c-21.916,6.778-51.933,16.063-55.561,27.358
			c-1.728,5.369-1.232,10.099,1.514,14.461c11.539,18.324,60.278,24.966,103.281,30.826c26.067,3.552,50.701,6.909,62.571,12.501
			c3.79-4.673,5.544-11.174,4.963-18.394c-3.637-0.787-12.008-4.84-23.43-10.37c-25.457-12.325-63.931-30.951-88.891-32.039
			l-1.871-0.082l36.15-19.735L91.634,220.916z"/>
		<g style="opacity:0.4;">
			<g>
				<defs>
					<rect id="SVGID_3_" x="43.8" y="232.732" width="30.889" height="22.256"/>
				</defs>
				<clipPath id="SVGID_4_">
					<use xlink:href="#SVGID_3_"  style="overflow:visible;"/>
				</clipPath>
				<path style="clip-path:url(#SVGID_4_);fill:#463C3A;" d="M71.009,232.733c-7.825,10.084-25.122,14.972-27.21,14.954
					c0,0,16.987,1.575,26.474,6.657C79.758,259.429,71.009,232.733,71.009,232.733"/>
			</g>
		</g>
		<path style="fill:#FEAE65;" d="M221.348,336.814c-3.546,0.495-8.801,2.16-8.801,5.723c-13.619-15.438-12.633-19.528-30.578-28.258
			c4.503-5.33,5.949-12.489,5.307-19.478c2.365,0.396,4.089,0.414,6.824,0.261c4.923,15.121,11.372,15.494,19.685,14.83
			C216.641,322.506,213.976,320.28,221.348,336.814"/>
		<path style="fill:#D16A4B;" d="M213.785,309.891c-8.283,0.663-14.749,0.326-19.685-14.828
			C202.919,294.553,209.64,291.428,213.785,309.891"/>
		<path style="fill:#FBA789;" d="M181.97,314.278c-5.225-2.541-10.888-4.668-13.087-5.272c4.362-4.146,6.728-13.137,7.138-18.547
			c7.522,3.659,7.968,3.805,11.255,4.34C187.918,301.79,186.472,308.95,181.97,314.278"/>
		<path style="fill:#D16A4B;" d="M225.102,352.627c-3.52,0-10.189-7.448-12.5-10.089c0-3.561,5.24-5.231,8.801-5.724
			C225.166,345.217,228.722,352.627,225.102,352.627"/>
		<path style="fill:#9C9FA0;" d="M201.588,271.508c-138.606,0-133.24,1.628-133.24-3.797c0-87.529-1.494-86.844,3.797-86.844
			c138.604,0,133.238-1.628,133.238,3.797v83.047C205.384,269.807,203.685,271.508,201.588,271.508"/>
		<path style="fill:#72787A;" d="M136.867,234.33c-11.369,0-11.38-17.207,0-17.207C148.236,217.123,148.247,234.33,136.867,234.33"
			/>
		<path style="fill:#1E62E2;" d="M144.037,113.842c6.738-3.239,11.894-11.141,22.31,1.384c35.158,42.274,4.524,38.436-1.151,41.133
			c-9.95,4.73-4.967,31.731-46.584,14.995c-14.839-5.966-3.612-12.949-2.854-19.221c1.359-11.291-18.436-15.047-8.923-27.806
			C116.04,111.987,132.269,119.499,144.037,113.842"/>
		<g>
			<path style="fill:#FFFFFF;" d="M124.625,138.077v-9.9h3.372c0.676,0,1.263,0.119,1.761,0.357s0.884,0.58,1.158,1.026
				c0.274,0.446,0.411,0.983,0.411,1.611c0,0.496-0.088,0.943-0.264,1.341c-0.176,0.398-0.428,0.733-0.756,1.005
				c-0.328,0.272-0.726,0.474-1.194,0.606l3.24,3.954h-2.466l-2.856-3.732h-0.462v3.732H124.625z M126.569,132.725h0.828
				c0.404,0,0.746-0.058,1.026-0.174c0.28-0.116,0.495-0.287,0.645-0.513s0.225-0.497,0.225-0.813c0-0.48-0.165-0.849-0.495-1.107
				s-0.797-0.387-1.401-0.387h-0.828V132.725z"/>
			<path style="fill:#FFFFFF;" d="M136.078,138.269c-0.664,0-1.259-0.143-1.785-0.429c-0.526-0.286-0.943-0.675-1.251-1.167
				c-0.308-0.492-0.462-1.048-0.462-1.668c0-0.456,0.087-0.882,0.261-1.278c0.174-0.396,0.417-0.743,0.729-1.041
				c0.312-0.298,0.674-0.53,1.086-0.696c0.412-0.166,0.858-0.249,1.338-0.249c0.64,0,1.201,0.133,1.683,0.399
				c0.482,0.266,0.858,0.635,1.128,1.107c0.27,0.472,0.405,1.022,0.405,1.65c0,0.052-0.001,0.097-0.003,0.135
				s-0.009,0.109-0.021,0.213h-4.71c0,0.312,0.071,0.584,0.213,0.816s0.341,0.413,0.597,0.543c0.256,0.13,0.554,0.195,0.894,0.195
				c0.32,0,0.603-0.062,0.849-0.186c0.246-0.124,0.483-0.322,0.711-0.594l1.326,0.666c-0.288,0.496-0.696,0.884-1.224,1.164
				C137.314,138.129,136.726,138.269,136.078,138.269z M134.542,134.225h2.856c-0.04-0.236-0.125-0.44-0.255-0.612
				s-0.295-0.304-0.495-0.396c-0.2-0.092-0.426-0.138-0.678-0.138c-0.268,0-0.504,0.046-0.708,0.138
				c-0.204,0.092-0.368,0.224-0.492,0.396S134.57,133.99,134.542,134.225z"/>
			<path style="fill:#FFFFFF;" d="M143.381,138.269c-0.564,0-1.077-0.141-1.539-0.423c-0.462-0.282-0.828-0.67-1.098-1.164
				c-0.27-0.494-0.405-1.057-0.405-1.689c0-0.616,0.13-1.169,0.39-1.659c0.26-0.49,0.619-0.878,1.077-1.164
				c0.458-0.286,0.983-0.429,1.575-0.429c0.436,0,0.843,0.083,1.221,0.249s0.687,0.397,0.927,0.693v-0.75h1.842v6.144h-1.842v-0.81
				c-0.28,0.324-0.603,0.572-0.966,0.744C144.199,138.183,143.805,138.269,143.381,138.269z M143.927,136.703
				c0.32,0,0.604-0.073,0.852-0.219s0.441-0.347,0.582-0.603c0.14-0.256,0.21-0.548,0.21-0.876c0-0.332-0.071-0.625-0.213-0.879
				c-0.143-0.254-0.336-0.454-0.582-0.6s-0.529-0.219-0.849-0.219c-0.316,0-0.598,0.073-0.846,0.219s-0.444,0.347-0.588,0.603
				c-0.144,0.256-0.216,0.548-0.216,0.876c0,0.328,0.071,0.62,0.213,0.876c0.142,0.256,0.337,0.457,0.585,0.603
				S143.607,136.703,143.927,136.703z"/>
			<path style="fill:#FFFFFF;" d="M152.41,138.269c-0.468,0-0.909-0.084-1.323-0.252s-0.779-0.401-1.095-0.699
				c-0.316-0.298-0.564-0.644-0.744-1.038s-0.271-0.817-0.271-1.269c0-0.436,0.085-0.85,0.256-1.242
				c0.17-0.392,0.409-0.74,0.72-1.044c0.31-0.304,0.674-0.544,1.092-0.72c0.418-0.176,0.871-0.264,1.359-0.264
				c0.396,0,0.776,0.056,1.143,0.168s0.661,0.256,0.885,0.432l-0.63,1.242c-0.3-0.22-0.672-0.33-1.116-0.33
				c-0.38,0-0.701,0.084-0.966,0.252c-0.264,0.168-0.465,0.386-0.603,0.654c-0.139,0.268-0.207,0.55-0.207,0.846
				c0,0.324,0.074,0.619,0.222,0.885c0.148,0.266,0.357,0.477,0.627,0.633c0.271,0.156,0.583,0.234,0.939,0.234
				c0.22,0,0.426-0.03,0.618-0.09c0.191-0.06,0.354-0.14,0.485-0.24l0.63,1.242c-0.228,0.172-0.521,0.315-0.882,0.429
				C153.191,138.212,152.81,138.269,152.41,138.269z"/>
			<path style="fill:#FFFFFF;" d="M157.978,138.269c-0.612,0-1.088-0.195-1.428-0.585s-0.51-0.935-0.51-1.635v-2.718h-0.822v-1.398
				h0.822v-2.304h1.842v2.304h1.35v1.398h-1.35v2.586c0,0.232,0.047,0.408,0.141,0.528c0.094,0.12,0.228,0.18,0.399,0.18
				c0.191,0,0.376-0.064,0.552-0.192l0.462,1.476c-0.208,0.112-0.44,0.2-0.699,0.264
				C158.479,138.238,158.226,138.269,157.978,138.269z"/>
			<path style="fill:#FFFFFF;" d="M121.04,152.477v-9.9h1.944l4.266,6.66v-6.66h1.944v9.9h-1.944l-4.266-6.66v6.66H121.04z"/>
			<path style="fill:#FFFFFF;" d="M134.192,152.669c-0.564,0-1.077-0.141-1.539-0.423c-0.462-0.282-0.828-0.67-1.098-1.164
				c-0.27-0.494-0.405-1.057-0.405-1.689c0-0.616,0.13-1.169,0.39-1.659c0.26-0.49,0.619-0.878,1.077-1.164
				c0.458-0.286,0.983-0.429,1.575-0.429c0.436,0,0.843,0.083,1.221,0.249s0.687,0.397,0.927,0.693v-0.75h1.842v6.144h-1.842v-0.81
				c-0.28,0.324-0.602,0.572-0.966,0.744C135.01,152.583,134.616,152.669,134.192,152.669z M134.738,151.103
				c0.32,0,0.604-0.073,0.852-0.219s0.442-0.347,0.582-0.603c0.14-0.256,0.21-0.548,0.21-0.876c0-0.332-0.071-0.625-0.213-0.879
				c-0.142-0.254-0.336-0.454-0.582-0.6s-0.529-0.219-0.849-0.219c-0.316,0-0.598,0.073-0.846,0.219s-0.444,0.347-0.588,0.603
				c-0.144,0.256-0.216,0.548-0.216,0.876c0,0.328,0.071,0.62,0.213,0.876c0.142,0.256,0.337,0.457,0.585,0.603
				S134.418,151.103,134.738,151.103z"/>
			<path style="fill:#FFFFFF;" d="M142.382,152.669c-0.612,0-1.088-0.195-1.428-0.585s-0.51-0.935-0.51-1.635v-2.718h-0.822v-1.398
				h0.822v-2.304h1.842v2.304h1.35v1.398h-1.35v2.586c0,0.232,0.047,0.408,0.141,0.528c0.094,0.12,0.227,0.18,0.399,0.18
				c0.192,0,0.376-0.064,0.552-0.192l0.462,1.476c-0.208,0.112-0.441,0.2-0.699,0.264
				C142.883,152.638,142.63,152.669,142.382,152.669z"/>
			<path style="fill:#FFFFFF;" d="M146.347,145.055c-0.2,0-0.383-0.049-0.549-0.147s-0.299-0.231-0.398-0.399
				c-0.101-0.168-0.15-0.352-0.15-0.552c0-0.2,0.05-0.382,0.15-0.546c0.1-0.164,0.232-0.295,0.398-0.393s0.349-0.147,0.549-0.147
				s0.382,0.049,0.546,0.147s0.295,0.229,0.394,0.393c0.098,0.164,0.146,0.346,0.146,0.546c0,0.2-0.049,0.384-0.146,0.552
				c-0.099,0.168-0.229,0.301-0.394,0.399S146.547,145.055,146.347,145.055z M145.423,152.477v-6.144h1.842v6.144H145.423z"/>
			<path style="fill:#FFFFFF;" d="M151.429,152.477l-3.228-6.144h2.172l1.674,3.708l1.674-3.708h2.172l-3.233,6.144H151.429z"/>
			<path style="fill:#FFFFFF;" d="M159.811,152.669c-0.664,0-1.259-0.143-1.785-0.429c-0.525-0.286-0.942-0.675-1.251-1.167
				c-0.308-0.492-0.462-1.048-0.462-1.668c0-0.456,0.087-0.882,0.261-1.278c0.175-0.396,0.417-0.743,0.729-1.041
				c0.312-0.298,0.674-0.53,1.086-0.696s0.858-0.249,1.338-0.249c0.64,0,1.201,0.133,1.684,0.399
				c0.481,0.266,0.857,0.635,1.128,1.107c0.27,0.472,0.404,1.022,0.404,1.65c0,0.052-0.001,0.097-0.003,0.135
				s-0.009,0.109-0.021,0.213h-4.71c0,0.312,0.07,0.584,0.213,0.816c0.142,0.232,0.341,0.413,0.597,0.543
				c0.256,0.13,0.554,0.195,0.895,0.195c0.319,0,0.603-0.062,0.849-0.186s0.483-0.322,0.711-0.594l1.326,0.666
				c-0.288,0.496-0.696,0.884-1.225,1.164C161.047,152.529,160.459,152.669,159.811,152.669z M158.275,148.625h2.856
				c-0.04-0.236-0.125-0.44-0.255-0.612s-0.295-0.304-0.495-0.396c-0.2-0.092-0.426-0.138-0.678-0.138
				c-0.269,0-0.505,0.046-0.708,0.138c-0.204,0.092-0.368,0.224-0.492,0.396S158.303,148.389,158.275,148.625z"/>
		</g>
	</g>
</g>
<g id="Layer_2">
	<g>
		<path style="fill:#104CBA;" d="M38.438,281.763H26.184c-6.871,0-6.803-10.365,0-10.365c10.577,0,17.436-1.326,17.436,5.182
			C43.621,279.444,41.301,281.763,38.438,281.763"/>
		<path style="fill:#EEE4D9;" d="M222.981,130.277h-24.809c-0.316,0-0.57-0.255-0.57-0.572c0-0.316,0.255-0.572,0.57-0.572h24.809
			c0.317,0,0.572,0.256,0.572,0.572C223.553,130.022,223.298,130.277,222.981,130.277"/>
		<path style="fill:#EEE4D9;" d="M233.115,117.578h-20.266c-0.316,0-0.572-0.255-0.572-0.572c0-0.316,0.256-0.572,0.572-0.572
			h20.266c0.316,0,0.572,0.256,0.572,0.572C233.687,117.323,233.43,117.578,233.115,117.578"/>
		<path style="fill:#EEE4D9;" d="M245.567,100.719h-14.234c-0.317,0-0.572-0.255-0.572-0.572c0-0.316,0.255-0.572,0.572-0.572
			h14.234c0.316,0,0.572,0.256,0.572,0.572C246.139,100.464,245.883,100.719,245.567,100.719"/>
		<path style="fill:#9EBFD8;" d="M229.965,134.266c-22.722,0-23.221,0.519-23.221-1.368c0-6.161-0.402-7.754,1.37-7.754
			c22.72,0,23.219-0.517,23.219,1.37C231.333,132.673,231.735,134.266,229.965,134.266"/>
		<path style="fill:#D6723A;" d="M227.962,235.77c-5.096,0-7.485,0.513-7.485-1.74c0-5.099-0.511-7.487,1.743-7.487
			c5.096,0,7.484-0.513,7.484,1.742C229.703,233.382,230.216,235.77,227.962,235.77"/>
		<path style="fill:#D6723A;" d="M227.962,256.06c-5.096,0-7.485,0.513-7.485-1.74c0-5.099-0.511-7.487,1.743-7.487
			c5.096,0,7.484-0.513,7.484,1.742C229.703,253.672,230.216,256.06,227.962,256.06"/>
		<path style="fill:#D6723A;" d="M227.962,277.667c-5.096,0-7.485,0.513-7.485-1.742c0-5.098-0.511-7.485,1.743-7.485
			c5.096,0,7.484-0.513,7.484,1.742C229.703,275.279,230.216,277.667,227.962,277.667"/>
		<path style="fill:#D6723A;" d="M227.962,295.372c-5.096,0-7.485,0.513-7.485-1.742c0-5.098-0.511-7.485,1.743-7.485
			c5.096,0,7.484-0.513,7.484,1.74C229.703,292.984,230.216,295.372,227.962,295.372"/>
		<path style="fill:#D6723A;" d="M227.962,316.081c-5.096,0-7.485,0.513-7.485-1.742c0-5.098-0.511-7.485,1.743-7.485
			c5.096,0,7.484-0.513,7.484,1.742C229.703,313.693,230.216,316.081,227.962,316.081"/>
		<path style="fill:#9E653B;" d="M61.376,401.588c-3.904-1.503-3.2,0.558,19.284-76.879l14.184,5.008l-29.382,70.127
			C64.086,403.129,60.233,401.148,61.376,401.588"/>
		<path style="fill:#9E653B;" d="M222.862,400.211l-19.12-73.586l-14.32,4.603l27.381,70.933
			C218.249,405.907,223.856,404.035,222.862,400.211"/>
		<path style="fill:#568FFF;" d="M53.553,333.668c-62.341-27.51-59.794-99.467-23.389-107.323
			c19.704-4.251,36.218,13.624,52.715,25.205c29.905,20.992,72.238,22.535,103.592,3.772c16.071-9.617,59.603-45.204,87.268-19.789
			c30.578,28.091-11.639,108.755-79.876,104.455C147.527,337.07,97.675,353.142,53.553,333.668"/>
		<path style="fill:#E6EFFF;" d="M107.617,343.793c-18.536,0-36.881-2.169-54.201-9.814c-37.43-16.517-51.606-49.214-49.052-74.29
			c1.807-17.738,11.665-30.64,25.727-33.674c15.852-3.426,29.605,7.297,42.906,17.664c3.307,2.579,6.73,5.246,10.075,7.595
			c29.67,20.827,72.116,22.374,103.223,3.758c2.136-1.276,4.749-3.01,7.775-5.016c19.475-12.909,55.725-36.936,79.898-14.73
			c11.686,10.737,13.463,30.27,4.633,50.978c-6.492,15.23-17.732,29.012-31.65,38.806c-15.871,11.171-34.235,16.444-53.111,15.258
			c-16.091-1.01-32.914,0.291-49.184,1.552C132.396,342.83,119.963,343.793,107.617,343.793 M36.134,226.046
			c-1.937,0-3.901,0.2-5.899,0.631c-13.765,2.969-23.42,15.646-25.195,33.079c-2.531,24.834,11.532,57.223,48.649,73.6
			c28.699,12.666,60.327,10.216,90.915,7.847c16.292-1.264,33.141-2.572,49.279-1.552c40.959,2.576,72.309-26.005,84.095-53.651
			c8.711-20.439,6.998-39.679-4.469-50.214c-23.784-21.85-59.743,1.987-79.063,14.795c-3.033,2.01-5.653,3.747-7.803,5.034
			c-31.329,18.747-74.078,17.19-103.959-3.785c-3.362-2.361-6.789-5.031-10.104-7.614C61.098,235.263,49.27,226.046,36.134,226.046"
			/>
		<path style="fill:#E6EFFF;" d="M76.6,313.174c-46.48-20.51-44.579-74.16-17.438-80.014c14.69-3.171,27.002,10.157,39.302,18.793
			c22.296,15.651,53.858,16.801,77.234,2.811c11.982-7.171,44.438-33.703,65.065-14.754c22.796,20.942-8.678,81.082-59.553,77.877
			C146.662,315.711,109.496,327.693,76.6,313.174"/>
		<path style="fill:#568FFF;" d="M42.547,190.592c-8.679-20.446-17.527-42.752-12.022-64.27
			c13.279-51.904,112.881-81.568,191.479-41.126c102.767,52.878-1.415,140.526-20.536,181.731
			c-6.204,13.375-8.751,18.56-28.155,19.327C62.498,290.628,74.219,265.215,42.547,190.592"/>
		<path style="fill:#E6EFFF;" d="M151.443,287.062c-32.812,0-52.46-3.797-65.48-12.277c-15.695-10.218-21.9-26.939-31.294-52.251
			c-3.479-9.376-7.423-20.002-12.436-31.809c-7.513-17.703-17.803-41.947-12.037-64.488c4.862-19.002,21.267-35.64,46.193-46.847
			c43.787-19.689,101.005-17.529,145.769,5.504c24.476,12.595,39.083,28.319,43.412,46.73
			c8.073,34.343-19.729,72.171-42.068,102.566c-9.417,12.812-17.55,23.879-21.727,32.882c-6.15,13.254-8.696,18.739-28.449,19.521
			C165.443,286.903,158.165,287.062,151.443,287.062 M42.858,190.46c5.019,11.823,8.965,22.456,12.446,31.84
			c18.68,50.332,24.97,67.298,117.995,63.613c19.339-0.76,21.658-5.762,27.86-19.126c4.205-9.065,12.357-20.155,21.796-32.997
			c22.256-30.283,49.956-67.972,41.953-102.008c-4.28-18.211-18.77-33.783-43.063-46.283C177.261,62.556,120.275,60.4,76.669,80.008
			c-24.735,11.122-41.005,27.599-45.815,46.398C25.144,148.724,35.382,172.848,42.858,190.46"/>
		<path style="fill:#E6EFFF;" d="M63.508,187.791c-6.95-16.373-14.033-34.232-9.626-51.464
			c10.633-41.56,90.387-65.313,153.322-32.931c82.29,42.341-1.132,112.525-16.441,145.519c-4.969,10.709-7.009,14.86-22.544,15.473
			C79.483,267.893,88.869,247.543,63.508,187.791"/>
		<path style="fill:#FBA789;" d="M167.782,98.102c1.784,0.942,2.244,3.272,1.02,4.876c-13.486,17.659-45.169,10.781-55.439,0.432
			c-5.114-6.278,12.044-4.917,11.978-10.172c-0.29-22.49-2.529-23.358,3.888-23.766c5.782-0.369,14.831,0.918,20.316-1.042
			c1.06-0.378,1.663-3.098,2.18-0.566C154.075,79.398,157.425,92.635,167.782,98.102"/>
		<path style="fill:#FBA789;" d="M130.147,87.678c16.734-7.563,25.568-21.534,27.809-39.14c2.899-22.781-5.826-28.828-19.974-30.629
			C91.981,12.053,109.349,97.078,130.147,87.678"/>
		<path style="fill:#95563A;" d="M138.151,9.906c3.653-5.293,18.58-4.695,24.673,7.598c7.135,14.397-10.941,53.613-11.087,50.622
			c-0.346-7.12-1.206-27.528-7.998-42.774C142.209,21.92,135.516,13.724,138.151,9.906"/>
		<path style="fill:#FBA789;" d="M154.594,52.789c5.597-16.527-7.777-22.516-4.656,4.09
			C150.792,64.16,153.758,55.259,154.594,52.789"/>
		<path style="fill:#382823;" d="M132.565,56.441c1.673,0.03,3.096-6.311-0.963-6.384C129.436,50.02,129.827,56.393,132.565,56.441"
			/>
		<path style="fill:#382823;" d="M116.693,56.122c1.673,0.03,3.096-6.311-0.963-6.384C113.561,49.7,113.954,56.073,116.693,56.122"
			/>
		<path style="fill:#95563A;" d="M129.482,46.004c-0.666,0.341-0.52,1.349,0.214,1.493C150.187,51.51,141.617,39.797,129.482,46.004
			"/>
		<path style="fill:#95563A;" d="M121.249,46.578c0.564,0.493,0.176,1.435-0.572,1.394C99.826,46.863,110.998,37.597,121.249,46.578
			"/>
		<path style="fill:#95563A;" d="M130.725,34.025c-2.138,0.404-4.278-0.62-6.451-0.705c-4.503-0.177-13.372,6.267-16.559,0.422
			c-1.461-2.676,0.417-5.868,0.813-8.892c1.021-7.806-2.679-5.932,13.014-16.91c10.43-7.297,11.853-1.422,15.511-0.473
			c3.681,0.954,8.423-3.442,10.203,5.665c0.44,2.247,3.982,12.751,2.76,14.396c-1.029,1.382-2.254-0.161-3.749-0.96
			C137.427,21.838,138.058,32.803,130.725,34.025"/>
		<path style="fill:#7D3B1A;" d="M142.67,23.016c-0.099,0-0.197-0.026-0.288-0.079c-4.648-2.726-6.824-8.824-4.955-13.877
			c0.109-0.296,0.438-0.448,0.734-0.337c0.297,0.109,0.448,0.438,0.338,0.733c-1.655,4.476,0.346,10.081,4.46,12.495
			c0.273,0.159,0.363,0.51,0.203,0.783C143.057,22.916,142.865,23.016,142.67,23.016"/>
		<path style="fill:#7D3B1A;" d="M156.593,15.121c-0.187,0-0.369-0.091-0.479-0.258c-4.125-6.308-12.331-5.29-15.607-3.379
			c-0.272,0.159-0.622,0.065-0.783-0.206c-0.158-0.273-0.065-0.624,0.208-0.783c4.345-2.534,12.952-2.661,17.139,3.741
			c0.173,0.264,0.099,0.617-0.165,0.79C156.81,15.09,156.699,15.121,156.593,15.121"/>
		<path style="fill:#7D3B1A;" d="M149.174,17.088c-0.147,0-0.294-0.058-0.407-0.17c-1.038-1.054-2.93-1.758-4.65-1.742
			c-0.777,0.014-1.851,0.187-2.546,0.941c-0.215,0.234-0.577,0.246-0.809,0.033c-0.232-0.214-0.247-0.577-0.033-0.807
			c0.769-0.834,1.933-1.288,3.37-1.311c2.021-0.035,4.222,0.804,5.483,2.081c0.221,0.226,0.218,0.587-0.006,0.81
			C149.464,17.033,149.319,17.088,149.174,17.088"/>
		<path style="fill:#7D3B1A;" d="M154.456,32.522c-0.272,0-0.511-0.193-0.561-0.47c-0.616-3.383-3.635-9.553-6.785-11.142
			c-0.921-0.464-1.758-0.498-2.561-0.105c-0.284,0.141-0.625,0.023-0.765-0.261c-0.14-0.284-0.023-0.627,0.261-0.765
			c1.129-0.555,2.335-0.52,3.58,0.109c3.773,1.904,6.819,8.798,7.394,11.959c0.056,0.309-0.15,0.608-0.461,0.664
			C154.524,32.52,154.49,32.522,154.456,32.522"/>
		<path style="fill:#7D3B1A;" d="M158.966,44.647c-0.049,0-0.097-0.006-0.147-0.02c-0.305-0.08-0.487-0.393-0.405-0.698
			c1.467-5.544,2.553-11.246,3.228-16.948c0.038-0.314,0.322-0.539,0.634-0.501c0.314,0.036,0.539,0.322,0.501,0.634
			c-0.68,5.756-1.777,11.51-3.259,17.107C159.45,44.478,159.22,44.647,158.966,44.647"/>
		<path style="fill:#7D3B1A;" d="M153.141,64.488c-0.1,0-0.203-0.027-0.296-0.083c-0.272-0.164-0.357-0.516-0.193-0.786
			c0.959-1.578,2.754-6.604,3.244-8.819c0.07-0.308,0.376-0.496,0.684-0.434c0.308,0.068,0.502,0.373,0.434,0.681
			c-0.52,2.341-2.358,7.478-3.385,9.166C153.522,64.391,153.334,64.488,153.141,64.488"/>
		<path style="fill:#7D3B1A;" d="M118.545,14.567c-0.284,0-0.529-0.211-0.567-0.501c-0.039-0.313,0.184-0.599,0.496-0.639
			c1.505-0.191,2.829-1.473,4.23-2.831c2.785-2.699,6.254-6.058,12.486-0.957c0.244,0.2,0.281,0.56,0.08,0.804
			c-0.199,0.244-0.558,0.281-0.806,0.08c-5.443-4.454-8.124-1.857-10.964,0.894c-1.541,1.494-2.998,2.905-4.882,3.145
			C118.594,14.565,118.57,14.567,118.545,14.567"/>
		<path style="fill:#7D3B1A;" d="M127.662,18.987c-0.261,0-0.539-0.026-0.834-0.079c-0.31-0.058-0.516-0.357-0.46-0.666
			c0.058-0.311,0.352-0.519,0.666-0.46c1.59,0.291,2.408-0.513,3.356-1.446c1.271-1.249,2.711-2.664,5.9-0.863
			c0.275,0.155,0.372,0.504,0.215,0.778c-0.156,0.275-0.505,0.37-0.78,0.217c-2.438-1.378-3.316-0.513-4.533,0.683
			C130.348,17.981,129.327,18.987,127.662,18.987"/>
		<path style="fill:#7D3B1A;" d="M128.25,29.639c-0.303,0-0.611-0.049-0.922-0.155c-0.3-0.1-0.46-0.425-0.36-0.725
			c0.103-0.297,0.428-0.458,0.727-0.357c1.725,0.586,3.696-1.824,5.436-3.948c1.672-2.039,3.244-3.958,4.906-3.762
			c0.314,0.038,0.537,0.323,0.499,0.637c-0.039,0.313-0.322,0.534-0.637,0.499c-1.026-0.141-2.48,1.642-3.884,3.351
			C132.289,27.287,130.359,29.639,128.25,29.639"/>
		<path style="fill:#7D3B1A;" d="M114.562,32.114c-0.812,0-1.646-0.252-2.391-0.739c-1.177-0.771-1.904-1.984-1.943-3.247
			c-0.044-1.373,0.539-2.487,1.156-3.665c0.754-1.44,1.61-3.072,1.628-5.672c0.002-0.316,0.238-0.611,0.575-0.567
			c0.316,0.001,0.57,0.259,0.567,0.575c-0.02,2.876-0.983,4.718-1.757,6.196c-0.593,1.132-1.06,2.025-1.027,3.098
			c0.029,0.891,0.563,1.76,1.428,2.326c0.866,0.567,1.877,0.709,2.702,0.378c0.294-0.118,0.627,0.026,0.742,0.32
			c0.118,0.293-0.026,0.625-0.319,0.743C115.493,32.029,115.032,32.114,114.562,32.114"/>
		<path style="fill:#7D3B1A;" d="M149.932,41.024c-0.259,0-0.495-0.177-0.555-0.441c-0.482-2.053,0.455-4.371,2.226-5.513
			c0.265-0.17,0.619-0.096,0.792,0.171c0.17,0.265,0.094,0.619-0.171,0.79c-1.379,0.889-2.107,2.693-1.733,4.29
			c0.071,0.308-0.12,0.616-0.426,0.687C150.02,41.019,149.976,41.024,149.932,41.024"/>
		<path style="fill:#EC795C;" d="M123.969,95.713c-1.145,0.68,2.908,6.269,4.21,6.543c1.192,0.252,2.672-2.688,3.165-3.8
			c3.461-7.803,15.192-15.186,19.879-29.337c-6.557,12.217-18.97,17.555-25.993,18.803
			C125.232,92.545,125.993,94.511,123.969,95.713"/>
		<path style="fill:#FFFFFF;" d="M118.56,74.244l11.257,0.002c2.034,0-6.254,10.025-11.639,0.649
			C118.012,74.607,118.227,74.244,118.56,74.244"/>
		<path style="fill:#EC795C;" d="M125.221,66.813c-0.03,0-0.062-0.001-0.094-0.008l-0.935-0.147
			c-1.469-0.225-2.276-0.349-2.705-0.98c-0.467-0.687-0.249-1.632,0.225-3.703c0.363-1.581,0.859-3.744,1.353-6.942
			c0.049-0.311,0.332-0.52,0.652-0.476c0.313,0.049,0.526,0.341,0.478,0.652c-0.501,3.238-1.023,5.515-1.368,7.021
			c-0.337,1.47-0.58,2.531-0.393,2.805c0.149,0.22,0.935,0.34,1.933,0.493l0.947,0.149c0.311,0.052,0.522,0.346,0.472,0.657
			C125.738,66.615,125.497,66.813,125.221,66.813"/>
		<path style="fill:#EC795C;" d="M151.223,54.51c-0.319-0.001-0.573-0.258-0.572-0.573c0.003-0.795,0.458-1.657,0.939-2.568
			c0.916-1.74,1.863-3.538,0.264-5.289c-0.212-0.234-0.196-0.595,0.036-0.807c0.234-0.212,0.595-0.199,0.809,0.036
			c2.141,2.344,0.848,4.8-0.097,6.592c-0.414,0.784-0.806,1.526-0.807,2.04C151.793,54.257,151.537,54.51,151.223,54.51"/>
		<path style="fill:#104CBA;" d="M97.589,102.271c20.92-5.732,4.292,53.463-0.36,91.754c-4.21-0.25-17.027-4.732-20.082-8.071
			C77.148,185.954,77.066,107.894,97.589,102.271"/>
		<path style="fill:#104CBA;" d="M97.732,194.629l-0.537-0.033c-4.072-0.243-17.222-4.705-20.469-8.253l-0.149-0.165v-0.222
			c-0.003-3.204,0.155-78.563,20.862-84.237c2.966-0.813,5.375-0.402,7.159,1.221c7.404,6.73,2.813,33.116-2.047,61.047
			c-1.787,10.271-3.635,20.889-4.755,30.106L97.732,194.629z M77.721,185.726c2.998,2.99,14.405,7.135,19.008,7.678
			c1.129-9.115,2.942-19.531,4.695-29.613c4.594-26.399,9.344-53.698,2.405-60.005c-1.496-1.361-3.488-1.678-6.088-0.963
			C78.41,108.118,77.742,181.054,77.721,185.726"/>
		<path style="fill:#104CBA;" d="M123.969,95.713c10.805,11.753,35.479,6.193,38.771-1.387c10.511,4.752,11.416,5.689,21.739,9.858
			c6.266,40.739,18.462,92.515,5.578,129.348c-35.314,8.871-91.865,2.653-98.708-1.532c-4.049,2.549-4.651-93.494,6.24-129.729
			C97.59,102.271,118.579,96.119,123.969,95.713"/>
		<path style="fill:#104CBA;" d="M145.574,238.584c-25.656,0-49.411-3.339-54.295-5.965c-0.209,0.026-0.425-0.038-0.611-0.184
			c-4.286-3.26-4.001-95.817,6.373-130.33l0.09-0.296l0.297-0.088c0.86-0.252,21.109-6.173,26.498-6.58l0.278-0.02l0.187,0.203
			c5.034,5.474,13.954,7.746,23.864,6.076c6.962-1.171,12.572-4.107,13.962-7.303l0.231-0.533l0.529,0.24
			c4.046,1.828,6.654,3.086,8.956,4.193c3.588,1.73,6.423,3.095,12.762,5.654l0.302,0.123l0.049,0.32
			c0.957,6.22,2.034,12.595,3.175,19.345c6.254,36.998,13.342,78.934,2.377,110.279l-0.102,0.291l-0.299,0.076
			C177.092,237.378,160.988,238.584,145.574,238.584 M91.346,231.327l0.302,0.185c6.768,4.142,62.907,10.231,97.973,1.541
			c10.721-31.037,3.684-72.673-2.528-109.422c-1.123-6.637-2.183-12.912-3.128-19.038c-6.163-2.496-8.978-3.852-12.528-5.563
			c-2.2-1.059-4.679-2.253-8.429-3.955c-1.869,3.329-7.595,6.284-14.563,7.457c-10.169,1.71-19.375-0.614-24.702-6.225
			c-5.293,0.534-23.16,5.691-25.695,6.427c-10.456,35.3-9.94,123.665-6.797,128.655L91.346,231.327z"/>
		<path style="fill:#104CBA;" d="M194.536,178.928c-25.177,6.994-46.424,17.498-51.303,20.95l5.064,21.422
			c80.222-14.316,78.691-21.561,79.081-31.799c0.608-16.066-25.01-80.586-42.898-85.317
			C180.106,103.028,193.052,174.918,194.536,178.928"/>
		<path style="fill:#104CBA;" d="M147.864,221.959l-5.278-22.326l0.316-0.223c4.579-3.239,25.665-13.794,50.918-20.877
			c-2.072-7.719-13.521-70.892-10.145-74.61c0.253-0.278,0.601-0.384,0.953-0.291c11.347,3.001,23.892,28.079,28.759,38.721
			c8.608,18.826,14.869,39.104,14.563,47.169l-0.024,0.663c-0.347,10.215-0.598,17.594-79.526,31.679L147.864,221.959z
			 M143.879,200.126l4.85,20.516c77.491-13.86,77.725-20.842,78.054-30.496l0.023-0.668c0.628-16.523-25.154-79.887-42.344-84.708
			c-2.288,3.655,8.343,67.83,10.611,73.958l0.215,0.583l-0.599,0.167C169.866,186.374,149.037,196.663,143.879,200.126"/>
		<path style="fill:#FBA789;" d="M68.725,140.3l-13.067,6.194c-5.298-18.632-4.824-19.104-7.787-20.132
			c-8.393-2.914-37.901-18.08-29.042-19.082c7.443-0.84,13.838,8.308,25.749,8.962c8.796,0.482,12.351,3.116,14.381,5.592
			C59.894,122.976,59.836,123.116,68.725,140.3"/>
		<path style="fill:#EF7952;" d="M46.005,125.245c-0.073,0-0.149-0.014-0.222-0.044c-8.699-3.646-14.413-7.555-14.555-9.963
			c-0.032-0.557,0.22-1.016,0.712-1.294c2.069-1.176,8.083,1.13,14.624,5.6c0.261,0.179,0.328,0.534,0.149,0.795
			c-0.177,0.261-0.533,0.328-0.795,0.149c-7.947-5.43-12.469-6.082-13.413-5.548c-0.121,0.068-0.14,0.129-0.134,0.232
			c0.074,1.256,3.902,4.803,13.856,8.975c0.291,0.121,0.428,0.457,0.306,0.748C46.442,125.113,46.228,125.245,46.005,125.245"/>
		<path style="fill:#104CBA;" d="M94.358,200.978c9.001-9.306-3.008-31.955-30.705-75.134l-13.98,7.549
			C51.604,142.325,77.617,218.286,94.358,200.978"/>
		<path style="fill:#104CBA;" d="M89.004,204.107c-0.702,0-1.42-0.105-2.153-0.314c-16.64-4.747-36.082-62.627-37.737-70.279
			l-0.091-0.42l14.824-8.004l0.287,0.446c28.096,43.798,39.846,66.318,30.635,75.839l-0.411-0.396l0.411,0.396
			C93.011,203.192,91.08,204.107,89.004,204.107 M50.328,133.689c2.142,8.811,21.232,64.553,36.836,69.003
			c2.499,0.715,4.718,0.023,6.783-2.11c8.646-8.939-2.931-30.99-30.49-73.981L50.328,133.689z"/>
		<path d="M113.701,316.712c-0.188-6.011-3.116-13.957-6.643-17.456c5.251-1.733,12.936-4.272,17.365-7.391
			c51.81-36.106,41.593-27.851,55.499-48.516c6.534-9.711,10.101-21.008,10.063-32.832c22.594,11.658,59.507,13.455,74.498,37.132
			C290.761,289.161,188.116,276.599,113.701,316.712"/>
		<path style="fill:#463C3A;" d="M113.206,317.573l-0.026-0.845c-0.187-5.965-3.157-13.797-6.489-17.101l-0.604-0.601l0.807-0.264
			c5.122-1.692,12.861-4.246,17.228-7.325c4.94-3.441,9.312-6.478,13.197-9.177c30.801-21.393,30.801-21.393,37.315-31.714
			c1.25-1.978,2.804-4.442,4.855-7.49c6.562-9.749,10.01-21.001,9.974-32.536l-0.003-0.862l0.763,0.394
			c7.472,3.855,16.409,6.593,25.87,9.491c19.037,5.83,38.721,11.858,48.83,27.825c4.219,6.663,5.31,12.173,3.333,16.843
			c-4.853,11.468-28.068,16.314-57.458,22.449c-29.265,6.108-65.687,13.712-96.851,30.509L113.206,317.573z M107.998,299.495
			c3.15,3.599,5.786,10.564,6.184,16.368c31.134-16.597,67.301-24.148,96.405-30.223c29.091-6.073,52.071-10.87,56.708-21.834
			c1.833-4.331,0.769-9.526-3.253-15.878c-9.902-15.641-29.399-21.613-48.253-27.387c-9.192-2.814-17.891-5.48-25.286-9.177
			c-0.13,11.45-3.63,22.591-10.148,32.277c-2.042,3.033-3.591,5.489-4.838,7.464c-6.627,10.498-6.627,10.498-37.6,32.013
			c-3.885,2.697-8.259,5.735-13.194,9.176C120.448,295.302,113.156,297.788,107.998,299.495"/>
		<path style="fill:#FEAE65;" d="M113.701,316.712c-9.614,5.208-22.719,21.69-36.88,35.237c-1.733-2.573-5.126-5.378-8.367-6.038
			c10.183-15.273,6.37-11.53,10.344-25.489c13.657,0,21.413-5.11,20.895-18.727c2.464-0.839,4.946-1.643,7.364-2.438
			C110.588,302.758,113.513,310.706,113.701,316.712"/>
		<path style="fill:#D16A4B;" d="M76.822,351.948c-5.524,5.272-10.353,9.162-13.466,9.74c-6.31,1.171-0.569-7.276,5.099-15.777
			C71.696,346.57,75.09,349.376,76.822,351.948"/>
		<path style="fill:#FCBDA9;" d="M128.792,309.771c-4.357,1.825-10.961,4.714-15.091,6.941c-0.187-6.011-3.116-13.957-6.643-17.456
			c5.768-1.904,11.21-3.79,15.28-6.091C125.878,296.513,128.024,305.746,128.792,309.771"/>
		<path style="fill:#FBA789;" d="M128.792,309.771c-4.357,1.825-10.961,4.714-15.091,6.941c-0.187-6.011-3.116-13.957-6.643-17.456
			c5.768-1.904,11.21-3.79,15.28-6.091C125.878,296.513,128.024,305.746,128.792,309.771"/>
		<path style="fill:#D16A4B;" d="M78.808,320.422c3.615-12.817,9.239-14.746,20.886-18.729
			C100.202,315.065,91.923,320.706,78.808,320.422"/>
		<path d="M180.97,315.278C146.267,298.403-1.71,302.281,12.965,256.682c5.38-16.741,66.175-28.775,77.701-35.382l18.067,12.77
			l-35.241,19.237c36.566,1.593,102.23,40.773,112.784,42.493C186.918,302.79,185.472,309.95,180.97,315.278"/>
		<path style="fill:#463C3A;" d="M181.106,315.924l-0.364-0.177c-11.571-5.627-36.371-9.006-62.625-12.585
			c-43.227-5.891-92.223-12.566-104.023-31.304c-2.881-4.576-3.427-9.734-1.623-15.335c3.794-11.812,34.109-21.188,56.244-28.036
			c9.751-3.015,18.171-5.619,21.693-7.639l0.288-0.164l19.022,13.442l-34.381,18.768c25.186,1.877,62.552,19.967,87.479,32.034
			c11.342,5.49,20.301,9.829,23.546,10.356l0.398,0.065l0.038,0.402c0.718,7.818-1.211,14.872-5.428,19.862L181.106,315.924z
			 M90.634,221.916c-3.772,2.05-12.057,4.614-21.61,7.567c-21.916,6.778-51.933,16.063-55.561,27.358
			c-1.728,5.369-1.232,10.099,1.514,14.461c11.539,18.324,60.278,24.966,103.281,30.826c26.067,3.552,50.701,6.909,62.571,12.501
			c3.79-4.673,5.544-11.174,4.963-18.394c-3.637-0.787-12.008-4.84-23.43-10.37c-25.457-12.325-63.931-30.951-88.891-32.039
			l-1.871-0.082l36.15-19.735L90.634,221.916z"/>
		<g style="opacity:0.4;">
			<g>
				<defs>
					<rect id="SVGID_5_" x="42.8" y="233.732" width="30.889" height="22.256"/>
				</defs>
				<clipPath id="SVGID_6_">
					<use xlink:href="#SVGID_5_"  style="overflow:visible;"/>
				</clipPath>
				<path style="clip-path:url(#SVGID_6_);fill:#463C3A;" d="M70.009,233.733c-7.825,10.084-25.122,14.972-27.21,14.954
					c0,0,16.987,1.575,26.474,6.657C78.758,260.429,70.009,233.733,70.009,233.733"/>
			</g>
		</g>
		<path style="fill:#FEAE65;" d="M220.348,337.814c-3.546,0.495-8.801,2.16-8.801,5.723c-13.619-15.438-12.633-19.528-30.578-28.258
			c4.503-5.33,5.949-12.489,5.307-19.478c2.365,0.396,4.089,0.414,6.824,0.261c4.923,15.121,11.372,15.494,19.685,14.83
			C215.641,323.506,212.976,321.28,220.348,337.814"/>
		<path style="fill:#D16A4B;" d="M212.785,310.891c-8.283,0.663-14.749,0.326-19.685-14.828
			C201.919,295.553,208.64,292.428,212.785,310.891"/>
		<path style="fill:#FBA789;" d="M180.97,315.278c-5.225-2.541-10.888-4.668-13.087-5.272c4.362-4.146,6.728-13.137,7.138-18.547
			c7.522,3.659,7.968,3.805,11.255,4.34C186.918,302.79,185.472,309.95,180.97,315.278"/>
		<path style="fill:#D16A4B;" d="M224.102,353.627c-3.52,0-10.189-7.448-12.5-10.089c0-3.561,5.24-5.231,8.801-5.724
			C224.166,346.217,227.722,353.627,224.102,353.627"/>
		<path style="fill:#9C9FA0;" d="M200.588,272.508c-138.606,0-133.24,1.628-133.24-3.797c0-87.529-1.494-86.844,3.797-86.844
			c138.604,0,133.238-1.628,133.238,3.797v83.047C204.384,270.807,202.685,272.508,200.588,272.508"/>
	</g>
	<g style="display:none;">
		<path style="display:inline;fill:#FFFFFF;" d="M114.875,223.703v-13.2h4.496c0.901,0,1.684,0.159,2.348,0.477
			s1.179,0.773,1.544,1.367c0.365,0.595,0.548,1.312,0.548,2.148c0,0.661-0.117,1.258-0.352,1.788
			c-0.234,0.53-0.57,0.978-1.008,1.34c-0.438,0.363-0.968,0.632-1.592,0.808l4.32,5.272h-3.288l-3.808-4.976h-0.616v4.976H114.875z
			 M117.467,216.568h1.104c0.539,0,0.995-0.077,1.368-0.232c0.374-0.154,0.66-0.383,0.86-0.684c0.2-0.302,0.3-0.663,0.3-1.084
			c0-0.641-0.22-1.132-0.66-1.477c-0.44-0.344-1.063-0.516-1.868-0.516h-1.104V216.568z"/>
		<path style="display:inline;fill:#FFFFFF;" d="M130.147,223.959c-0.885,0-1.679-0.19-2.38-0.572
			c-0.701-0.381-1.257-0.899-1.668-1.556s-0.616-1.397-0.616-2.224c0-0.608,0.116-1.177,0.348-1.704
			c0.232-0.528,0.556-0.991,0.972-1.389c0.416-0.396,0.898-0.706,1.448-0.928c0.549-0.221,1.144-0.332,1.784-0.332
			c0.854,0,1.601,0.178,2.244,0.532c0.643,0.354,1.144,0.847,1.503,1.476c0.36,0.63,0.54,1.363,0.54,2.2
			c0,0.069-0.001,0.13-0.004,0.181c-0.002,0.051-0.012,0.145-0.027,0.283h-6.28c0,0.416,0.095,0.779,0.284,1.088
			c0.189,0.31,0.455,0.551,0.796,0.725c0.341,0.173,0.738,0.26,1.192,0.26c0.427,0,0.804-0.083,1.132-0.248
			c0.328-0.165,0.644-0.429,0.948-0.792l1.768,0.888c-0.384,0.662-0.928,1.179-1.632,1.553
			C131.795,223.773,131.011,223.959,130.147,223.959z M128.099,218.568h3.808c-0.053-0.314-0.167-0.587-0.34-0.816
			c-0.173-0.229-0.394-0.405-0.66-0.528c-0.267-0.122-0.568-0.184-0.904-0.184c-0.357,0-0.672,0.062-0.944,0.184
			c-0.272,0.123-0.491,0.299-0.656,0.528C128.238,217.981,128.136,218.253,128.099,218.568z"/>
		<path style="display:inline;fill:#FFFFFF;" d="M139.883,223.959c-0.752,0-1.437-0.188-2.053-0.563
			c-0.615-0.376-1.104-0.894-1.464-1.553c-0.359-0.658-0.54-1.409-0.54-2.252c0-0.821,0.174-1.559,0.521-2.212
			s0.825-1.17,1.436-1.552c0.611-0.381,1.311-0.572,2.101-0.572c0.581,0,1.124,0.111,1.628,0.332
			c0.504,0.222,0.916,0.529,1.235,0.924v-1h2.456v8.192h-2.456v-1.08c-0.373,0.432-0.803,0.763-1.287,0.992
			C140.974,223.845,140.449,223.959,139.883,223.959z M140.611,221.871c0.427,0,0.806-0.098,1.136-0.292
			c0.331-0.194,0.59-0.463,0.776-0.804c0.187-0.342,0.28-0.73,0.28-1.168c0-0.443-0.095-0.834-0.284-1.172
			c-0.189-0.339-0.448-0.605-0.776-0.801c-0.327-0.194-0.705-0.292-1.132-0.292c-0.421,0-0.797,0.098-1.128,0.292
			c-0.331,0.195-0.592,0.463-0.784,0.805c-0.191,0.341-0.288,0.73-0.288,1.168s0.095,0.826,0.284,1.168
			c0.189,0.341,0.449,0.609,0.78,0.804S140.184,221.871,140.611,221.871z"/>
		<path style="display:inline;fill:#FFFFFF;" d="M151.923,223.959c-0.624,0-1.212-0.112-1.765-0.336
			c-0.552-0.224-1.038-0.534-1.46-0.932c-0.421-0.397-0.752-0.859-0.991-1.385c-0.24-0.524-0.36-1.089-0.36-1.691
			c0-0.581,0.113-1.134,0.34-1.656s0.547-0.986,0.96-1.392s0.898-0.726,1.456-0.96c0.558-0.235,1.161-0.353,1.813-0.353
			c0.527,0,1.035,0.075,1.523,0.225s0.882,0.341,1.18,0.575l-0.84,1.656c-0.399-0.293-0.896-0.439-1.487-0.439
			c-0.507,0-0.937,0.111-1.288,0.336c-0.353,0.224-0.62,0.515-0.805,0.872c-0.184,0.357-0.275,0.733-0.275,1.128
			c0,0.432,0.099,0.825,0.296,1.18s0.476,0.636,0.836,0.844s0.777,0.313,1.252,0.313c0.293,0,0.568-0.04,0.824-0.12
			s0.472-0.187,0.647-0.32l0.84,1.656c-0.304,0.229-0.695,0.42-1.176,0.572C152.963,223.883,152.456,223.959,151.923,223.959z"/>
		<path style="display:inline;fill:#FFFFFF;" d="M159.348,223.959c-0.816,0-1.451-0.26-1.904-0.78c-0.453-0.52-0.68-1.246-0.68-2.18
			v-3.624h-1.097v-1.864h1.097v-3.071h2.455v3.071h1.801v1.864h-1.801v3.448c0,0.31,0.063,0.544,0.188,0.704s0.303,0.24,0.532,0.24
			c0.256,0,0.501-0.086,0.735-0.257l0.616,1.969c-0.277,0.149-0.588,0.267-0.932,0.352S159.678,223.959,159.348,223.959z"/>
		<path style="display:inline;fill:#FFFFFF;" d="M110.095,242.904v-13.2h2.592l5.688,8.88v-8.88h2.592v13.2h-2.592l-5.688-8.88v8.88
			H110.095z"/>
		<path style="display:inline;fill:#FFFFFF;" d="M127.631,243.16c-0.752,0-1.436-0.188-2.052-0.563s-1.104-0.894-1.464-1.553
			c-0.36-0.658-0.54-1.409-0.54-2.252c0-0.821,0.173-1.559,0.52-2.212s0.825-1.17,1.436-1.552c0.61-0.381,1.311-0.572,2.1-0.572
			c0.582,0,1.124,0.111,1.628,0.332c0.504,0.222,0.916,0.529,1.236,0.924v-1h2.456v8.192h-2.456v-1.08
			c-0.374,0.432-0.803,0.763-1.288,0.992S128.196,243.16,127.631,243.16z M128.359,241.072c0.427,0,0.806-0.098,1.136-0.292
			s0.589-0.463,0.776-0.804c0.187-0.342,0.28-0.73,0.28-1.168c0-0.443-0.095-0.834-0.284-1.172
			c-0.189-0.339-0.448-0.605-0.776-0.801c-0.328-0.194-0.706-0.292-1.132-0.292c-0.421,0-0.797,0.098-1.128,0.292
			c-0.331,0.195-0.592,0.463-0.784,0.805c-0.192,0.341-0.288,0.73-0.288,1.168s0.095,0.826,0.284,1.168
			c0.189,0.341,0.45,0.609,0.78,0.804S127.932,241.072,128.359,241.072z"/>
		<path style="display:inline;fill:#FFFFFF;" d="M138.551,243.16c-0.816,0-1.451-0.26-1.904-0.78c-0.453-0.52-0.68-1.246-0.68-2.18
			v-3.624h-1.097v-1.864h1.097v-3.071h2.455v3.071h1.801v1.864h-1.801v3.448c0,0.31,0.063,0.544,0.188,0.704s0.303,0.24,0.532,0.24
			c0.256,0,0.501-0.086,0.735-0.257l0.616,1.969c-0.277,0.149-0.588,0.267-0.932,0.352S138.881,243.16,138.551,243.16z"/>
		<path style="display:inline;fill:#FFFFFF;" d="M143.839,233.007c-0.267,0-0.511-0.064-0.731-0.195
			c-0.222-0.131-0.399-0.309-0.532-0.532c-0.134-0.224-0.2-0.469-0.2-0.736c0-0.267,0.066-0.509,0.2-0.728
			c0.133-0.219,0.311-0.394,0.532-0.524c0.221-0.13,0.465-0.195,0.731-0.195s0.51,0.065,0.729,0.195
			c0.218,0.131,0.393,0.306,0.523,0.524s0.196,0.461,0.196,0.728c0,0.268-0.065,0.513-0.196,0.736s-0.306,0.401-0.523,0.532
			C144.349,232.943,144.106,233.007,143.839,233.007z M142.608,242.904v-8.192h2.456v8.192H142.608z"/>
		<path style="display:inline;fill:#FFFFFF;" d="M150.615,242.904l-4.304-8.192h2.896l2.232,4.944l2.231-4.944h2.896l-4.313,8.192
			H150.615z"/>
		<path style="display:inline;fill:#FFFFFF;" d="M161.79,243.16c-0.885,0-1.679-0.19-2.38-0.572
			c-0.701-0.381-1.257-0.899-1.668-1.556s-0.616-1.397-0.616-2.224c0-0.608,0.116-1.177,0.349-1.704
			c0.231-0.528,0.556-0.991,0.972-1.389c0.416-0.396,0.898-0.706,1.448-0.928c0.549-0.221,1.144-0.332,1.784-0.332
			c0.853,0,1.601,0.178,2.243,0.532s1.145,0.847,1.504,1.476c0.36,0.63,0.54,1.363,0.54,2.2c0,0.069-0.001,0.13-0.004,0.181
			c-0.002,0.051-0.012,0.145-0.027,0.283h-6.28c0,0.416,0.095,0.779,0.284,1.088c0.189,0.31,0.454,0.551,0.796,0.725
			c0.341,0.173,0.738,0.26,1.191,0.26c0.427,0,0.805-0.083,1.133-0.248s0.644-0.429,0.947-0.792l1.769,0.888
			c-0.384,0.662-0.928,1.179-1.632,1.553C163.439,242.973,162.655,243.16,161.79,243.16z M159.743,237.768h3.808
			c-0.053-0.314-0.166-0.587-0.34-0.816c-0.173-0.229-0.394-0.405-0.66-0.528c-0.267-0.122-0.567-0.184-0.903-0.184
			c-0.357,0-0.672,0.062-0.944,0.184c-0.271,0.123-0.49,0.299-0.656,0.528C159.881,237.181,159.78,237.453,159.743,237.768z"/>
	</g>
	<g id="reactjs-icon" transform="translate(1.465 1.66)" style="display:none;">
		<circle id="Ellipse_67" style="display:inline;fill:#FFFFFF;" cx="140.869" cy="143.887" r="3.347"/>
		<g id="Group_568" transform="translate(0.035 0.011)" style="display:inline;">
			<path id="Path_298" style="fill:none;stroke:#FCFCFC;stroke-width:2;" d="M140.834,137.071c4.493,0,8.668,0.645,11.816,1.728
				c3.794,1.306,6.124,3.284,6.124,5.077c0,1.867-2.471,3.97-6.543,5.319c-3.079,1.02-7.131,1.553-11.396,1.553
				c-4.373,0-8.515-0.498-11.628-1.564c-3.939-1.346-6.312-3.476-6.312-5.308c0-1.777,2.226-3.741,5.965-5.045
				C132.018,137.73,136.296,137.071,140.834,137.071L140.834,137.071z"/>
			<path id="Path_299" style="fill:none;stroke:#FCFCFC;stroke-width:2;" d="M134.91,140.493c2.245-3.893,4.889-7.187,7.4-9.372
				c3.025-2.633,5.906-3.664,7.457-2.769c1.617,0.933,2.204,4.125,1.339,8.326c-0.654,3.177-2.217,6.952-4.348,10.648
				c-2.184,3.789-4.687,7.127-7.164,9.291c-3.134,2.74-6.165,3.731-7.751,2.816c-1.54-0.887-2.129-3.798-1.39-7.688
				C131.077,148.459,132.643,144.424,134.91,140.493L134.91,140.493z"/>
			<path id="Path_300" style="fill:none;stroke:#FCFCFC;stroke-width:2;" d="M134.915,147.335
				c-2.251-3.888-3.784-7.825-4.424-11.092c-0.77-3.936-0.226-6.945,1.325-7.843c1.616-0.936,4.675,0.15,7.882,2.998
				c2.426,2.153,4.916,5.394,7.053,9.084c2.191,3.785,3.832,7.62,4.472,10.846c0.809,4.084,0.153,7.204-1.431,8.122
				c-1.538,0.891-4.353-0.052-7.354-2.635C139.902,154.634,137.188,151.262,134.915,147.335L134.915,147.335z"/>
		</g>
	</g>
</g>
</svg>
