<svg xmlns="http://www.w3.org/2000/svg" width="349.999" height="273.559" viewBox="0 0 349.999 273.559">
  <g id="Both" transform="translate(-5277.645 -5418.301)">
    <path id="Path_13419" data-name="Path 13419" d="M602.2,79.716h26.653v26.653H602.2Zm0,39.979h26.653v26.649H602.2ZM562.222,79.716h26.67v26.653H562.24Zm0,39.979h26.67v26.649H562.24Z" transform="translate(4998.789 5458.887)" fill="#104cba"/>
    <path id="Path_13420" data-name="Path 13420" d="M566.144,124a10,10,0,1,0-10-10A10,10,0,0,0,566.144,124Z" transform="translate(4978.21 5541.203)"/>
    <path id="Path_13421" data-name="Path 13421" d="M645.469,258.695h-86.62a13.335,13.335,0,0,1-13.326-13.326V85.45a13.335,13.335,0,0,1,13.326-13.326h86.62V85.45h-86.62V245.368h86.62V192.062H658.8v53.306a13.335,13.335,0,0,1-13.326,13.326Z" transform="translate(4942.212 5433.165)"/>
    <path id="Path_13422" data-name="Path 13422" d="M705.537,148.622V196.6h-191.9V68.659h95.949V52.669H513.635a15.99,15.99,0,0,0-15.99,15.99V196.6a15.99,15.99,0,0,0,15.99,15.99H577.6v31.976H545.619v15.99H673.553v-15.99H641.568V212.587h63.969a15.99,15.99,0,0,0,15.99-15.99V148.622Zm-79.959,95.94H593.594V212.587h31.984Z" transform="translate(4780 5367.251)"/>
    <path id="Path_13423" data-name="Path 13423" d="M570.2,52.3h26.653V78.953H570.2Zm0,39.979h26.653v26.653H570.2ZM530.223,52.3h26.666V78.953H530.236Zm0,39.979h26.666v26.653H530.236Z" transform="translate(4890.375 5366)" fill="#104cba"/>
  </g>
</svg>
