<svg xmlns="http://www.w3.org/2000/svg" width="350" height="338.871" viewBox="0 0 350 338.871">
  <g id="Web" transform="translate(-5071.875 -5416.875)">
    <path id="Path_13429" data-name="Path 13429" d="M401.75,50.875h50v50h-50Zm0,75h50v50h-50Zm-75-75h50v50h-50Zm0,75h50v50h-50Z" transform="translate(4970.125 5366)" fill="#104cba"/>
    <path id="Path_13430" data-name="Path 13430" d="M616.875,203.028v74.981h-300v-200h150V53.028h-150a25,25,0,0,0-25,25v200a25,25,0,0,0,25,25h100v50h-50v24.981h200V353.028h-50v-50h100a25,25,0,0,0,25-25v-75Zm-125,150h-50v-50h50Z" transform="translate(4780 5377.737)"/>
  </g>
</svg>
