<svg xmlns="http://www.w3.org/2000/svg" width="262.5" height="350" viewBox="0 0 262.5 350">
  <g id="Mobile" transform="translate(-4861.688 -5421.563)">
    <path id="Path_13425" data-name="Path 13425" d="M176.285,64.469h50v50h-50Zm0,75h50v50h-50Zm-75-75h50v50h-50Zm0,75h50v50h-50Z" transform="translate(4897.902 5419.592)" fill="#104cba"/>
    <path id="Path_13426" data-name="Path 13426" d="M112.907,130.471A18.751,18.751,0,1,0,94.156,111.72a18.751,18.751,0,0,0,18.751,18.751Z" transform="translate(4855.027 5591.093)"/>
    <path id="Path_13427" data-name="Path 13427" d="M269.183,405.564h-162.5a25.032,25.032,0,0,1-25-25v-300a25.025,25.025,0,0,1,25-25h162.5v25H106.685v300h162.5V280.56h25v100a25.039,25.039,0,0,1-25,25Z" transform="translate(4780 5366)"/>
  </g>
</svg>
