<svg xmlns="http://www.w3.org/2000/svg" width="29.468" height="22.446" viewBox="0 0 29.468 22.446">
  <g id="email" transform="translate(0 -61)">
    <g id="Group_152" data-name="Group 152" transform="translate(0 61)">
      <path id="Path_209" data-name="Path 209" d="M26.878,61H2.59A2.594,2.594,0,0,0,0,63.59V80.856a2.594,2.594,0,0,0,2.59,2.59H26.878a2.594,2.594,0,0,0,2.59-2.59V63.59A2.594,2.594,0,0,0,26.878,61Zm-.358,1.727L14.789,74.458,2.956,62.727ZM1.727,80.5V63.939l8.315,8.244ZM2.948,81.72,11.268,73.4l2.916,2.89a.863.863,0,0,0,1.218,0l2.843-2.843L26.52,81.72ZM27.741,80.5l-8.276-8.276,8.276-8.276Z" transform="translate(0 -61)" fill="#104cba"/>
    </g>
  </g>
</svg>
