<svg xmlns="http://www.w3.org/2000/svg" width="29.468" height="29.468" viewBox="0 0 29.468 29.468">
  <g id="Group_3817" data-name="Group 3817" transform="translate(-382 -3587.947)">
    <path id="Path_474" data-name="Path 474" d="M28.945,14.887A13.957,13.957,0,0,0,14.89,1.03a14.381,14.381,0,0,0-2.4.2A8.2,8.2,0,0,0,8.152,0,8.093,8.093,0,0,0,0,8.037,7.92,7.92,0,0,0,1.12,12.1a13.747,13.747,0,0,0-.285,2.785A13.958,13.958,0,0,0,14.889,28.746a14.458,14.458,0,0,0,2.575-.232,8.215,8.215,0,0,0,3.855.954,8.094,8.094,0,0,0,8.15-8.035,7.915,7.915,0,0,0-.847-3.569A13.684,13.684,0,0,0,28.945,14.887Z" transform="translate(382 3587.947)" fill="#104cba"/>
    <path id="Path_475" data-name="Path 475" d="M130.277,105.651a6.37,6.37,0,0,1-2.857,2.135,11.59,11.59,0,0,1-4.391.764A10.839,10.839,0,0,1,118,107.508a6.533,6.533,0,0,1-2.313-2.026,4.356,4.356,0,0,1-.9-2.5,1.726,1.726,0,0,1,.586-1.306,2.073,2.073,0,0,1,1.468-.538,1.879,1.879,0,0,1,1.238.424,3.2,3.2,0,0,1,.823,1.188,6.853,6.853,0,0,0,.8,1.409,3.126,3.126,0,0,0,1.181.9,4.938,4.938,0,0,0,2.041.359,5.013,5.013,0,0,0,2.831-.727,2.024,2.024,0,0,0,1.041-1.729,1.7,1.7,0,0,0-.541-1.313,3.875,3.875,0,0,0-1.5-.818c-.639-.2-1.507-.409-2.578-.63a20.458,20.458,0,0,1-3.683-1.087,6.088,6.088,0,0,1-2.415-1.74,4.3,4.3,0,0,1-.91-2.779,4.459,4.459,0,0,1,.954-2.8,5.916,5.916,0,0,1,2.729-1.869,12.078,12.078,0,0,1,4.124-.639,11.266,11.266,0,0,1,3.28.427,7.261,7.261,0,0,1,2.321,1.14,4.976,4.976,0,0,1,1.367,1.516,3.308,3.308,0,0,1,.44,1.58,1.869,1.869,0,0,1-.576,1.337,1.95,1.95,0,0,1-1.444.593,1.8,1.8,0,0,1-1.21-.372,4.508,4.508,0,0,1-.84-1.1,4.617,4.617,0,0,0-1.262-1.54,4,4,0,0,0-2.348-.532,4.445,4.445,0,0,0-2.435.593,1.581,1.581,0,0,0-.871,1.328,1.2,1.2,0,0,0,.282.8,2.488,2.488,0,0,0,.838.628,6.235,6.235,0,0,0,1.131.433c.39.107,1.044.267,1.945.471,1.138.239,2.182.51,3.107.8a9.958,9.958,0,0,1,2.407,1.081,4.768,4.768,0,0,1,1.584,1.648,4.893,4.893,0,0,1,.571,2.442A5.217,5.217,0,0,1,130.277,105.651Z" transform="translate(273.822 3503.806)" fill="#fafafa"/>
  </g>
</svg>
