<svg xmlns="http://www.w3.org/2000/svg" xmlns:xlink="http://www.w3.org/1999/xlink" width="1309.778" height="763.942" viewBox="0 0 1309.778 763.942">
  <defs>
    <clipPath id="clip-path">
      <path id="Clip_8" data-name="Clip 8" d="M0,0H56.932V57.012H0Z" fill="none"/>
    </clipPath>
    <clipPath id="clip-path-2">
      <path id="Clip_20" data-name="Clip 20" d="M0,43.479,364.992,190.094l17.391-43.479L17.391,0Z" fill="none"/>
    </clipPath>
    <linearGradient id="linear-gradient" x1="0.023" y1="0.114" x2="0.977" y2="0.886" gradientUnits="objectBoundingBox">
      <stop offset="0" stop-color="#d4eeff"/>
      <stop offset="1" stop-color="#d4eeff"/>
    </linearGradient>
    <clipPath id="clip-path-3">
      <path id="Clip_23" data-name="Clip 23" d="M0,35.54,303.889,157.611l14.217-35.541L14.216,0Z" fill="none"/>
    </clipPath>
    <linearGradient id="linear-gradient-2" x1="0.022" y1="0.113" x2="0.978" y2="0.887" xlink:href="#linear-gradient"/>
    <clipPath id="clip-path-4">
      <path id="Clip_90" data-name="Clip 90" d="M0,0H247.226V247.752H0Z" fill="none"/>
    </clipPath>
    <clipPath id="clip-path-5">
      <path id="Clip_124" data-name="Clip 124" d="M0,0H970.109V3.669H0Z" fill="none" opacity="0.5"/>
    </clipPath>
    <linearGradient id="linear-gradient-3" x1="0.52" y1="-0.258" x2="0.495" y2="0.687" gradientUnits="objectBoundingBox">
      <stop offset="0" stop-color="#151686"/>
      <stop offset="1" stop-color="#2438b6"/>
    </linearGradient>
    <clipPath id="clip-path-6">
      <path id="Clip_142" data-name="Clip 142" d="M87.33,0V14.869A124.754,124.754,0,0,0,70.212,25.807h0q-34.029,25.8-52.12,73.887h0Q0,147.79,0,214.047H0Q0,279.732,18.333,328.1h0Q36.666,376.492,70.694,402h0A126.3,126.3,0,0,0,87.33,412.57h0v14.939H150.55q45.833,0,79.616-25.51h0q33.772-25.511,52.12-73.9h0q18.332-48.378,18.333-114.057h0q0-66.256-18.093-114.352h0q-18.1-48.072-51.877-73.887h0Q196.866,0,150.55,0H87.33Z" fill="none"/>
    </clipPath>
    <linearGradient id="linear-gradient-5" x1="0.516" y1="0.943" x2="0.494" y2="0.337" xlink:href="#linear-gradient-3"/>
    <clipPath id="clip-path-7">
      <path id="Clip_166" data-name="Clip 166" d="M0,70.89l4.911,68.255L30.96,119.1,24.153,0Z" fill="none"/>
    </clipPath>
  </defs>
  <g id="_404_error" data-name="404 error" transform="translate(-309.63 -157.725)">
    <g id="BG" transform="translate(309.63 194.953)">
      <path id="Fill_1" data-name="Fill 1" d="M56.932,28.506A28.466,28.466,0,1,1,28.467,0,28.486,28.486,0,0,1,56.932,28.506" transform="translate(286.402 0)" fill="#c3e4ff"/>
      <path id="Fill_3" data-name="Fill 3" d="M56.932,28.506A28.466,28.466,0,1,1,28.466,0,28.485,28.485,0,0,1,56.932,28.506" transform="translate(1081.958 300.012)" fill="#c3e4ff"/>
      <path id="Fill_5" data-name="Fill 5" d="M56.932,28.506A28.466,28.466,0,1,1,28.466,0,28.486,28.486,0,0,1,56.932,28.506" transform="translate(1217.365 0)" fill="#d6eeff"/>
      <g id="Group_9" data-name="Group 9" transform="translate(0 260.239)">
        <path id="Clip_8-2" data-name="Clip 8" d="M0,0H56.932V57.012H0Z" transform="translate(0 0)" fill="none"/>
        <g id="Group_9-2" data-name="Group 9" transform="translate(0 0)" clip-path="url(#clip-path)">
          <path id="Fill_7" data-name="Fill 7" d="M56.932,28.506A28.466,28.466,0,1,1,28.467,0,28.486,28.486,0,0,1,56.932,28.506" transform="translate(0)" fill="#d6eeff"/>
        </g>
      </g>
      <path id="Fill_10" data-name="Fill 10" d="M56.93,28.5A28.482,28.482,0,0,1,31.962,56.8a28.9,28.9,0,0,1-3.5.211A28.5,28.5,0,0,1,28.372,0h.093A28.481,28.481,0,0,1,56.93,28.5" transform="translate(556.118 468.376)" fill="#c3e4ff"/>
      <path id="Fill_12" data-name="Fill 12" d="M25.365.78A28.5,28.5,0,0,1,.678,25.058,19.908,19.908,0,0,1,19.867,0a19.677,19.677,0,0,1,5.5.78" transform="translate(587.402 500.117)" fill="#d6eeff"/>
      <path id="Fill_14" data-name="Fill 14" d="M22.375,1.56a13.126,13.126,0,0,1-1.628,6.348,13.173,13.173,0,0,1-5.67,5.42A13.012,13.012,0,0,1,9.26,14.693,13.118,13.118,0,0,1,0,10.872,28.426,28.426,0,0,1,22.281,0a12.809,12.809,0,0,1,.093,1.56" transform="translate(562.208 468.376)" fill="#d6eeff"/>
      <path id="Fill_16" data-name="Fill 16" d="M10.134,5.075A5.067,5.067,0,1,1,5.067,0a5.071,5.071,0,0,1,5.068,5.075" transform="translate(577.27 476.246)" fill="#d6eeff"/>
    </g>
    <g id="Object" transform="translate(318.415 157.725)">
      <g id="Group_21" data-name="Group 21" transform="translate(296.391 269.095)">
        <path id="Clip_20-2" data-name="Clip 20" d="M0,43.479,364.992,190.094l17.391-43.479L17.391,0Z" transform="translate(0 0)" fill="none"/>
        <g id="Group_21-2" data-name="Group 21" transform="translate(0 0)" clip-path="url(#clip-path-2)">
          <path id="Fill_19" data-name="Fill 19" d="M0,43.479,364.992,190.094l17.391-43.479L17.391,0Z" fill="url(#linear-gradient)"/>
        </g>
      </g>
      <g id="Group_24" data-name="Group 24" transform="translate(554.96 263.587)">
        <path id="Clip_23-2" data-name="Clip 23" d="M0,35.54,303.889,157.611l14.217-35.541L14.216,0Z" transform="translate(0 0)" fill="none"/>
        <g id="Group_24-2" data-name="Group 24" transform="translate(0 0)" clip-path="url(#clip-path-3)">
          <path id="Fill_22" data-name="Fill 22" d="M0,35.54,303.889,157.611l14.217-35.541L14.216,0Z" fill="url(#linear-gradient-2)"/>
        </g>
      </g>
      <g id="Group_122" data-name="Group 122" transform="translate(0 0)">
        <path id="Fill_25" data-name="Fill 25" d="M36.842,26.273A19.11,19.11,0,1,1,26.218,1.38,19.091,19.091,0,0,1,36.842,26.273" transform="translate(846.848 384.278)" fill="#d6eeff"/>
        <path id="Fill_27" data-name="Fill 27" d="M45.071,32.141a23.378,23.378,0,1,1-13-30.454,23.355,23.355,0,0,1,13,30.454" transform="translate(646.7 414.022)" fill="#d6eeff"/>
        <path id="Fill_29" data-name="Fill 29" d="M25.952,18.507A13.461,13.461,0,1,1,18.468.972a13.447,13.447,0,0,1,7.484,17.535" transform="translate(656.617 423.96)" fill="#aad5ff"/>
        <path id="Fill_31" data-name="Fill 31" d="M19.812,14.128A10.276,10.276,0,1,1,14.1.742a10.266,10.266,0,0,1,5.713,13.386" transform="translate(855.681 393.13)" fill="#aad5ff"/>
        <path id="Fill_33" data-name="Fill 33" d="M19.5,29.637c-5.382,0-9.748,13.27-9.748,29.637C9.748,42.907,5.385,29.637,0,29.637c5.385,0,9.748-13.27,9.748-29.637,0,16.367,4.366,29.637,9.748,29.637" transform="translate(289.333 374.109)" fill="#d6eeff"/>
        <path id="Fill_35" data-name="Fill 35" d="M14.06,7.045A7.03,7.03,0,1,1,7.03,0a7.038,7.038,0,0,1,7.03,7.045" transform="translate(118.941 460.179)" fill="#c3e4ff"/>
        <path id="Fill_37" data-name="Fill 37" d="M14.06,7.045A7.03,7.03,0,1,1,7.03,0a7.038,7.038,0,0,1,7.03,7.045" transform="translate(436.711 443.894)" fill="#c3e4ff"/>
        <path id="Fill_39" data-name="Fill 39" d="M23.784,11.917A11.892,11.892,0,1,1,11.892,0,11.9,11.9,0,0,1,23.784,11.917" transform="translate(363.757 208.692)" fill="#aad5ff"/>
        <path id="Fill_41" data-name="Fill 41" d="M14.06,7.045A7.03,7.03,0,1,1,7.03,0a7.037,7.037,0,0,1,7.03,7.045" transform="translate(463.762 37.156)" fill="#d6eeff"/>
        <path id="Fill_43" data-name="Fill 43" d="M14.06,7.045A7.03,7.03,0,1,1,7.03,0a7.037,7.037,0,0,1,7.03,7.045" transform="translate(292.051 108.02)" fill="#d6eeff"/>
        <path id="Fill_45" data-name="Fill 45" d="M14.06,7.045A7.03,7.03,0,1,1,7.03,0a7.037,7.037,0,0,1,7.03,7.045" transform="translate(0 41.557)" fill="#d6eeff"/>
        <path id="Fill_47" data-name="Fill 47" d="M14.06,7.045A7.03,7.03,0,1,1,7.03,0a7.037,7.037,0,0,1,7.03,7.045" transform="translate(1194.61 20.423)" fill="#d6eeff"/>
        <path id="Fill_49" data-name="Fill 49" d="M14.06,7.045A7.03,7.03,0,1,1,7.03,0a7.037,7.037,0,0,1,7.03,7.045" transform="translate(1277.954 141.828)" fill="#d6eeff"/>
        <path id="Fill_51" data-name="Fill 51" d="M14.06,7.045A7.03,7.03,0,1,1,7.03,0a7.037,7.037,0,0,1,7.03,7.045" transform="translate(913.464 238.47)" fill="#d6eeff"/>
        <path id="Fill_53" data-name="Fill 53" d="M14.06,7.045A7.03,7.03,0,1,1,7.03,0a7.038,7.038,0,0,1,7.03,7.045" transform="translate(936.099 34.513)" fill="#d6eeff"/>
        <path id="Fill_55" data-name="Fill 55" d="M14.06,7.045A7.03,7.03,0,1,1,7.03,0a7.038,7.038,0,0,1,7.03,7.045" transform="translate(1237.124 466.295)" fill="#c3e4ff"/>
        <path id="Fill_57" data-name="Fill 57" d="M23.344,35.486c-6.444,0-11.672,15.889-11.672,35.485,0-19.6-5.224-35.485-11.672-35.485C6.447,35.486,11.672,19.6,11.672,0c0,19.6,5.228,35.486,11.672,35.486" transform="translate(571.456 13.117)" fill="#e8f6ff"/>
        <path id="Fill_59" data-name="Fill 59" d="M28.245,42.936c-7.8,0-14.123,19.225-14.123,42.935C14.122,62.161,7.8,42.936,0,42.936,7.8,42.936,14.122,23.71,14.122,0c0,23.71,6.325,42.936,14.123,42.936" transform="translate(936.037 437.449)" fill="#e8f6ff"/>
        <path id="Fill_61" data-name="Fill 61" d="M25.967,39.474c-7.168,0-12.984,17.675-12.984,39.474,0-21.8-5.812-39.474-12.984-39.474C7.171,39.474,12.984,21.8,12.984,0c0,21.8,5.815,39.474,12.984,39.474" transform="translate(381.159 523.32)" fill="#d6eeff"/>
        <path id="Fill_63" data-name="Fill 63" d="M22.142,33.66c-6.113,0-11.072,15.072-11.072,33.66C11.071,48.732,6.115,33.66,0,33.66,6.115,33.66,11.071,18.588,11.071,0c0,18.588,4.958,33.66,11.072,33.66" transform="translate(1262.841 288.161)" fill="#d6eeff"/>
        <path id="Fill_65" data-name="Fill 65" d="M12.028,6.027A6.014,6.014,0,1,1,6.013,0a6.021,6.021,0,0,1,6.015,6.027" transform="translate(722.346 580.841)" fill="#d6eeff"/>
        <path id="Fill_67" data-name="Fill 67" d="M17.035,8.536A8.517,8.517,0,1,1,8.518,0a8.526,8.526,0,0,1,8.517,8.536" transform="translate(638.228 157.409)" fill="#d6eeff"/>
        <path id="Fill_69" data-name="Fill 69" d="M10.5,5.263A5.252,5.252,0,1,1,5.252,0,5.257,5.257,0,0,1,10.5,5.263" transform="translate(511.384 117.923)" fill="#c3e4ff"/>
        <path id="Fill_71" data-name="Fill 71" d="M30.818,15.442A15.409,15.409,0,1,1,15.409,0,15.425,15.425,0,0,1,30.818,15.442" transform="translate(711.6 41.514)" fill="#d6eeff"/>
        <path id="Fill_73" data-name="Fill 73" d="M15.521,7.777A7.76,7.76,0,1,1,7.761,0a7.769,7.769,0,0,1,7.76,7.777" transform="translate(1130.226 585.119)" fill="#aad5ff"/>
        <path id="Fill_75" data-name="Fill 75" d="M9.76,4.891A4.88,4.88,0,1,1,4.88,0,4.885,4.885,0,0,1,9.76,4.891" transform="translate(246.738 571.061)" fill="#aad5ff"/>
        <path id="Fill_77" data-name="Fill 77" d="M9.759,4.89A4.88,4.88,0,1,1,4.88,0a4.885,4.885,0,0,1,4.88,4.89" transform="translate(771.335 264.845)" fill="#aad5ff"/>
        <path id="Fill_79" data-name="Fill 79" d="M9.759,4.89A4.88,4.88,0,1,1,4.88,0a4.884,4.884,0,0,1,4.88,4.89" transform="translate(557.91 316.931)" fill="#d6eeff"/>
        <path id="Fill_81" data-name="Fill 81" d="M9.76,4.89A4.88,4.88,0,1,1,4.88,0,4.884,4.884,0,0,1,9.76,4.89" transform="translate(395.268 232.839)" fill="#d6eeff"/>
        <path id="Fill_83" data-name="Fill 83" d="M9.76,4.891A4.88,4.88,0,1,1,4.88,0,4.885,4.885,0,0,1,9.76,4.891" transform="translate(15.366 497.881)" fill="#d6eeff"/>
        <path id="Fill_85" data-name="Fill 85" d="M9.76,4.89A4.88,4.88,0,1,1,4.88,0,4.884,4.884,0,0,1,9.76,4.89" transform="translate(344.948 316.931)" fill="#d6eeff"/>
        <path id="Fill_87" data-name="Fill 87" d="M11.849,5.937A5.924,5.924,0,1,1,5.924,0a5.93,5.93,0,0,1,5.924,5.937" transform="translate(133.002 349.544)" fill="#d6eeff"/>
        <g id="Group_91" data-name="Group 91" transform="translate(20.232 0)">
          <path id="Clip_90-2" data-name="Clip 90" d="M0,0H247.226V247.752H0Z" transform="translate(0)" fill="none"/>
          <g id="Group_91-2" data-name="Group 91" transform="translate(0)" clip-path="url(#clip-path-4)">
            <path id="Fill_89" data-name="Fill 89" d="M107.887,246.732c67.707,8.7,129.636-39.245,138.321-107.1S207.046,9.724,139.339,1.02,9.7,40.265,1.018,108.116,40.18,238.028,107.887,246.732" transform="translate(0 0)" fill="#d6eeff"/>
          </g>
        </g>
        <path id="Fill_92" data-name="Fill 92" d="M16.337,37.363A18.756,18.756,0,1,0,.154,16.372a18.725,18.725,0,0,0,16.183,20.99" transform="translate(171.514 34.251)" fill="#e8f6ff"/>
        <path id="Fill_94" data-name="Fill 94" d="M6.513,14.9A7.477,7.477,0,1,0,.061,6.527,7.466,7.466,0,0,0,6.513,14.9" transform="translate(182.702 85.398)" fill="#e8f6ff"/>
        <path id="Fill_96" data-name="Fill 96" d="M6.513,14.9A7.477,7.477,0,1,0,.061,6.527,7.465,7.465,0,0,0,6.513,14.9" transform="translate(99.234 184.056)" fill="#e8f6ff"/>
        <path id="Fill_98" data-name="Fill 98" d="M46.006,144.516c38.6,31.472,69.764-16.57,69.764-16.57-53.378,16.373-68.149-34.9-6.131-55.239C148.1,60.087,143.708,25.2,134.82.523,68.9-5.538,9.511,41.768,1.019,108.113a123.505,123.505,0,0,0,7.82,61.781,43.628,43.628,0,0,0,5.592-9.962c4.507-12.58,3.31-38.461,31.575-15.416" transform="translate(20.231 0.006)" fill="#c3e4ff"/>
        <path id="Fill_100" data-name="Fill 100" d="M75.1,161.616c67.711,8.7,129.637-39.25,138.322-107.1A123.675,123.675,0,0,0,208.251,0c-4.03,6.648-12.01,12.952-27.082,4.629C155.452-9.563,150.2,30.17,171.046,44.1c11.761,7.86,22.145,22.257,7.609,32.744-15.968,11.523-43.339-39.206-68.666-20.564-34.014,25.037,25.631,62.652,2.87,73.883-14.228,7.02-24.428-12.671-24.428-12.671s-31.093,29.013-59.254,4.816c-9.368-8.05-22.349-8.984-29.178.465a123.025,123.025,0,0,0,75.1,38.842" transform="translate(53.019 85.119)" fill="#c3e4ff"/>
        <path id="Fill_102" data-name="Fill 102" d="M246.518,145.508C234.9,213.225,170.7,258.683,103.132,247.041S-9.8,171.068,1.815,103.351,77.628-9.822,145.2,1.819s112.934,75.973,101.317,143.69" transform="translate(927.525 41.514)" fill="#d6eeff"/>
        <path id="Fill_104" data-name="Fill 104" d="M221.852,87.8C195.2,93.094,129.026,102.2,77.108,76,28.375,51.4,23.517,27.578,0,13.933A122.247,122.247,0,0,1,12.751,0a203.061,203.061,0,0,1,106.6,37.111c34.938,24.567,72.485,29.216,99.934,28.2A123.851,123.851,0,0,1,221.852,87.8" transform="translate(953.971 75.244)" fill="#e8f6ff"/>
        <path id="Fill_106" data-name="Fill 106" d="M84.794,51.934C82.972,52.66,49.21,65.579,0,46.208A125.913,125.913,0,0,1,8.588,0C26.12,18.926,66,58.8,84.794,51.934" transform="translate(927.524 120.461)" fill="#e8f6ff"/>
        <path id="Fill_108" data-name="Fill 108" d="M235.445,28.457a123.561,123.561,0,0,1-21.12,35.66C183.318,52.61,124.456,34.7,80.3,44.832a212.929,212.929,0,0,1-66.2,4.423A124.509,124.509,0,0,1,0,17.161C26.616,16.8,77.335,14.477,119.6,3.025,162.96-8.724,204.827,16.739,235.445,28.457" transform="translate(932.095 182.266)" fill="#e8f6ff"/>
        <path id="Fill_110" data-name="Fill 110" d="M107.86,13.67A124.076,124.076,0,0,1,90.772,24.225C60.217,11.923,21.105-1.363,0,2.358,2.609,1.8,46.57-7.066,107.86,13.67" transform="translate(1017.307 252.56)" fill="#e8f6ff"/>
        <path id="Fill_112" data-name="Fill 112" d="M118.525,58.866C94.742,57.243,45.689,49.41,6.111,13.781-15.679-5.831,23.673-1.985,78.689,9.67a124.975,124.975,0,0,1,39.836,49.2" transform="translate(1046.314 55.845)" fill="#e8f6ff"/>
        <path id="Fill_114" data-name="Fill 114" d="M102.48,36.417a123.877,123.877,0,0,1-35-1.038A123.406,123.406,0,0,1,0,0C21.5,1.4,64.723,7.9,102.48,36.417" transform="translate(963.18 253.178)" fill="#e8f6ff"/>
        <path id="Fill_116" data-name="Fill 116" d="M32.346,17.826C28.4,17.467,12.331,15.65,0,8.706A124.021,124.021,0,0,1,20.007,0c4.484,8.6,9.4,16.765,12.339,17.826" transform="translate(992.552 47.853)" fill="#e8f6ff"/>
        <path id="Fill_118" data-name="Fill 118" d="M.894.287A1.565,1.565,0,0,1,0,.217c.576.047.894.07.894.07" transform="translate(1024.914 65.462)" fill="#e8f6ff"/>
        <path id="Stroke_120" data-name="Stroke 120" d="M399.34,52.518c53.7,17.309,86.854,35.371,84.547,48.818-4.045,23.581-115.621,24.04-249.212,1.025S-3.932,41.572.113,17.991C2.483,4.177,41.753-1.7,100.732.424" transform="translate(808.184 115.064)" fill="none" stroke="#aad5ff" stroke-linecap="round" stroke-miterlimit="10" stroke-width="17.64"/>
      </g>
      <g id="Group_136" data-name="Group 136" transform="translate(138.816 181.849)">
        <g id="Group_125" data-name="Group 125" transform="translate(0 578.424)">
          <path id="Clip_124-2" data-name="Clip 124" d="M0,0H970.109V3.669H0Z" transform="translate(0 0)" fill="none" opacity="0.5"/>
          <g id="Group_125-2" data-name="Group 125" transform="translate(0 0)" clip-path="url(#clip-path-5)">
            <path id="Fill_123" data-name="Fill 123" d="M970.109,1.835c0,1.013-217.167,1.835-485.055,1.835S0,2.848,0,1.835,217.166,0,485.054,0,970.109.821,970.109,1.835" fill="rgba(18,18,116,0.23)"/>
          </g>
        </g>
        <path id="Fill_126" data-name="Fill 126" d="M233.55,409.914v0H158.273v-90.9H0V265.065L161.168,0H233.55V250.4h49.7v68.611h-49.7v90.9Zm-64.66-303.77L82.032,250.4H168.89Z" transform="translate(70.118 8.8)" fill="#2438b7"/>
        <path id="Fill_128" data-name="Fill 128" d="M150.552,427.505a151.386,151.386,0,0,1-22.184-1.594,132.08,132.08,0,0,1-20.7-4.783,124.152,124.152,0,0,1-19.225-7.972A126.918,126.918,0,0,1,70.692,402a134.036,134.036,0,0,1-16.03-14.184,147.47,147.47,0,0,1-14.069-17.043,190.54,190.54,0,0,1-22.257-42.662A269.94,269.94,0,0,1,4.582,275.4,388.892,388.892,0,0,1,0,214.045a397.341,397.341,0,0,1,4.524-61.719A269.566,269.566,0,0,1,18.095,99.693,189.592,189.592,0,0,1,40.171,57.181,148.694,148.694,0,0,1,54.2,40.1,136.306,136.306,0,0,1,70.209,25.8,125.859,125.859,0,0,1,87.988,14.515,123.6,123.6,0,0,1,107.3,6.452,132.184,132.184,0,0,1,128.16,1.613a156.134,156.134,0,0,1,44.77,0,131.35,131.35,0,0,1,20.809,4.839,122.384,122.384,0,0,1,19.241,8.063A124.335,124.335,0,0,1,230.653,25.8,136.229,136.229,0,0,1,246.56,40.1a149.264,149.264,0,0,1,13.949,17.081,191.114,191.114,0,0,1,22.018,42.512A269.558,269.558,0,0,1,296.1,152.327a397.337,397.337,0,0,1,4.524,61.719,388.79,388.79,0,0,1-4.585,61.357,270.185,270.185,0,0,1-13.751,52.7,192.258,192.258,0,0,1-22.2,42.662,148.046,148.046,0,0,1-13.993,17.043A133.9,133.9,0,0,1,230.171,402a125.312,125.312,0,0,1-17.644,11.16,122.949,122.949,0,0,1-19.151,7.972,131.278,131.278,0,0,1-20.658,4.783A151.037,151.037,0,0,1,150.552,427.505Zm0-344.233c-24.335,0-43.248,11.838-56.216,35.186s-19.543,55.9-19.543,96.76c0,40.483,6.656,72.644,19.784,95.588s31.955,34.6,55.975,34.6,42.846-11.64,55.975-34.6,19.784-55.122,19.784-95.588c0-40.858-6.575-73.413-19.543-96.76S174.886,83.272,150.552,83.272Z" transform="translate(375.084 0.004)" fill="#2438b7"/>
        <path id="Fill_130" data-name="Fill 130" d="M233.549,409.914v0H158.273v-90.9H0V265.065L161.168,0h72.381V250.4h49.7v68.611h-49.7v90.9ZM168.89,106.144,82.031,250.4H168.89Z" transform="translate(697.415 8.8)" fill="#2438b7"/>
        <path id="Fill_132" data-name="Fill 132" d="M0,427.509H64.135V0H0Z" transform="translate(462.419 0)" fill="#2438b7"/>
        <path id="Fill_134" data-name="Fill 134" d="M233.55,409.914v0H158.273v-90.9H0V265.065L161.168,0H233.55V250.4h49.7v68.611h-49.7v90.9Zm-64.66-303.77L82.032,250.4H168.89Z" transform="translate(70.118 8.8)" fill="#2438b7"/>
        <path id="Fill_135" data-name="Fill 135" d="M233.549,409.914v0H158.273v-90.9H0V265.065L161.168,0h72.381V250.4h49.7v68.611h-49.7v90.9ZM168.89,106.144,82.031,250.4H168.89Z" transform="translate(697.415 8.8)" fill="#2438b7"/>
      </g>
      <path id="Fill_137" data-name="Fill 137" d="M0,90.9H62.159V0H0Z" transform="translate(1007.62 509.665)" fill="url(#linear-gradient-3)"/>
      <path id="Fill_139" data-name="Fill 139" d="M0,90.9H62.158V0H0Z" transform="translate(380.318 509.665)" fill="url(#linear-gradient-3)"/>
      <g id="Group_143" data-name="Group 143" transform="translate(513.901 181.85)">
        <path id="Clip_142-2" data-name="Clip 142" d="M87.33,0V14.869A124.754,124.754,0,0,0,70.212,25.807h0q-34.029,25.8-52.12,73.887h0Q0,147.79,0,214.047H0Q0,279.732,18.333,328.1h0Q36.666,376.492,70.694,402h0A126.3,126.3,0,0,0,87.33,412.57h0v14.939H150.55q45.833,0,79.616-25.51h0q33.772-25.511,52.12-73.9h0q18.332-48.378,18.333-114.057h0q0-66.256-18.093-114.352h0q-18.1-48.072-51.877-73.887h0Q196.866,0,150.55,0H87.33Z" transform="translate(0 0)" fill="none"/>
        <g id="Group_143-2" data-name="Group 143" transform="translate(0 0)" clip-path="url(#clip-path-6)">
          <path id="Fill_141" data-name="Fill 141" d="M87.33,0V14.869A124.754,124.754,0,0,0,70.212,25.807h0q-34.029,25.8-52.12,73.887h0Q0,147.79,0,214.047H0Q0,279.732,18.333,328.1h0Q36.666,376.492,70.694,402h0A126.3,126.3,0,0,0,87.33,412.57h0v14.939H150.55q45.833,0,79.616-25.51h0q33.772-25.511,52.12-73.9h0q18.332-48.378,18.333-114.057h0q0-66.256-18.093-114.352h0q-18.1-48.072-51.877-73.887h0Q196.866,0,150.55,0H87.33Z" fill="url(#linear-gradient-5)"/>
        </g>
      </g>
      <g id="Group_164" data-name="Group 164" transform="translate(146.775 181.85)">
        <path id="Fill_144" data-name="Fill 144" d="M151.516,131.945q0,61-19.781,95.591-19.793,34.6-55.981,34.6t-55.974-34.6Q-.011,192.945,0,131.945,0,70.38,19.54,35.184,39.087.008,75.754,0t56.221,35.184q19.536,35.188,19.541,96.761" transform="translate(379.761 83.272)" fill="#0d0d0f"/>
        <path id="Fill_146" data-name="Fill 146" d="M10.262,12.625c-2.834,0-5.132,5.653-5.132,12.625,0-6.972-2.3-12.625-5.13-12.625C2.834,12.625,5.13,6.973,5.13,0c0,6.973,2.3,12.625,5.132,12.625" transform="translate(438.848 99.62)" fill="#fff"/>
        <path id="Fill_148" data-name="Fill 148" d="M16.877,20.762c-4.661,0-8.439,9.3-8.439,20.762C8.438,30.057,4.661,20.762,0,20.762c4.661,0,8.438-9.3,8.438-20.762,0,11.467,3.778,20.762,8.439,20.762" transform="translate(471.898 117.023)" fill="#fff"/>
        <path id="Fill_150" data-name="Fill 150" d="M12.559,15.451c-3.469,0-6.28,6.918-6.28,15.451,0-8.533-2.812-15.451-6.279-15.451C3.467,15.451,6.279,8.533,6.279,0c0,8.533,2.811,15.451,6.28,15.451" transform="translate(424.118 174.772)" fill="#fff"/>
        <path id="Fill_152" data-name="Fill 152" d="M7.631,9.387c-2.107,0-3.815,4.2-3.815,9.387C3.815,13.59,2.107,9.387,0,9.387c2.107,0,3.815-4.2,3.815-9.387,0,5.185,1.708,9.387,3.815,9.387" transform="translate(504.876 183.44)" fill="#fff"/>
        <path id="Fill_154" data-name="Fill 154" d="M14.963,18.407c-4.133,0-7.482,8.241-7.482,18.407,0-10.166-3.35-18.407-7.481-18.407,4.131,0,7.481-8.241,7.481-18.407,0,10.166,3.349,18.407,7.482,18.407" transform="translate(458.247 266.087)" fill="#fff"/>
        <path id="Fill_156" data-name="Fill 156" d="M11.462,14.1C8.3,14.1,5.73,20.415,5.73,28.2c0-7.788-2.566-14.1-5.73-14.1C3.165,14.1,5.73,7.788,5.73,0c0,7.788,2.566,14.1,5.732,14.1" transform="translate(399.699 225.729)" fill="#fff"/>
        <path id="Fill_158" data-name="Fill 158" d="M233.55,409.914v0H158.273v-90.9H0V265.065L161.168,0H233.55V250.4h49.7v68.611h-49.7v90.9Zm-64.66-303.77L82.032,250.4H168.89Z" transform="translate(0 8.798)" fill="#104cba"/>
        <path id="Fill_160" data-name="Fill 160" d="M150.551,427.509a151.375,151.375,0,0,1-22.183-1.594,132.085,132.085,0,0,1-20.7-4.783,124.145,124.145,0,0,1-19.224-7.972A126.891,126.891,0,0,1,70.694,402a134.054,134.054,0,0,1-16.029-14.185A147.47,147.47,0,0,1,40.6,370.771,190.511,190.511,0,0,1,18.341,328.1a252.508,252.508,0,0,1-9.261-30.186A308.432,308.432,0,0,1,3.043,264.7,402.661,402.661,0,0,1,0,214.048c0-13.8.6-27.208,1.791-39.866a328.9,328.9,0,0,1,6.026-39.377A254.52,254.52,0,0,1,18.1,99.695,189.47,189.47,0,0,1,40.173,57.184,148.674,148.674,0,0,1,54.2,40.1a136.258,136.258,0,0,1,16.014-14.3A125.869,125.869,0,0,1,87.988,14.517,123.574,123.574,0,0,1,107.3,6.453a132.141,132.141,0,0,1,20.854-4.839,156.115,156.115,0,0,1,44.771,0,131.35,131.35,0,0,1,20.81,4.839,122.376,122.376,0,0,1,19.242,8.065,124.309,124.309,0,0,1,17.674,11.289,141.907,141.907,0,0,1,29.857,31.377,191.041,191.041,0,0,1,22.014,42.511A269.581,269.581,0,0,1,296.1,152.331a397.2,397.2,0,0,1,4.525,61.717A388.6,388.6,0,0,1,296.04,275.4a270.253,270.253,0,0,1-13.754,52.7,192.275,192.275,0,0,1-22.2,42.667,148.019,148.019,0,0,1-13.992,17.044A133.88,133.88,0,0,1,230.174,402a125.349,125.349,0,0,1-17.644,11.161,122.95,122.95,0,0,1-19.151,7.972,131.29,131.29,0,0,1-20.659,4.783A151.073,151.073,0,0,1,150.551,427.509Zm0-344.237c-24.327,0-43.24,11.838-56.214,35.185S74.8,174.363,74.8,215.217c0,40.49,6.655,72.651,19.781,95.591,13.125,22.959,31.957,34.6,55.973,34.6s42.848-11.641,55.98-34.6,19.782-55.129,19.782-95.591c0-40.849-6.574-73.4-19.54-96.76S174.882,83.272,150.551,83.272Z" transform="translate(304.964 0)" fill="#104cba"/>
        <path id="Fill_162" data-name="Fill 162" d="M233.549,409.914v0H158.273v-90.9H0V265.065L161.168,0h72.381V250.4h49.7v68.611h-49.7v90.9ZM168.89,106.144,82.031,250.4H168.89Z" transform="translate(627.297 8.798)" fill="#104cba"/>
      </g>
      <g id="Group_167" data-name="Group 167" transform="translate(680.64 451.137)">
        <path id="Clip_166-2" data-name="Clip 166" d="M0,70.89l4.911,68.255L30.96,119.1,24.153,0Z" transform="translate(0 0)" fill="none"/>
        <g id="Group_167-2" data-name="Group 167" transform="translate(0 0)" clip-path="url(#clip-path-7)">
          <path id="Fill_165" data-name="Fill 165" d="M0,70.89l4.911,68.255L30.96,119.1,24.153,0Z" fill="none"/>
        </g>
      </g>
    </g>
    <g id="Man" transform="translate(691.381 385.58)">
      <path id="Fill_168" data-name="Fill 168" d="M0,24.769,9.336,0,28.514,12.173,18.193,34.348Z" transform="translate(7.042 488.008)" fill="#ef3c86"/>
      <path id="Fill_170" data-name="Fill 170" d="M8.135,0,0,23.544l82.676.179s-14.65-16.24-52.832-20.9Z" transform="translate(0 509.629)" fill="#0b096f"/>
      <path id="Fill_172" data-name="Fill 172" d="M62.45,0,53.764,128.938,0,261.282l36.217,4.372L95.534,147.761,120.693,13.512Z" transform="translate(2.915 243.19)" fill="#131318"/>
      <path id="Fill_174" data-name="Fill 174" d="M0,18.166,90.174,0a8.55,8.55,0,0,1,6.59,6.475c1.658,5.83-.945,9.193-.945,9.193L3,53.979Z" transform="translate(107.797 87.71)" fill="#ff77ca"/>
      <path id="Fill_176" data-name="Fill 176" d="M5.747,23.148l56.1,16.47L74.066,0,86.859,4.919,78.551,71.028,0,58.1Z" transform="translate(92.414 107.724)" fill="#ff77ca"/>
      <path id="Fill_178" data-name="Fill 178" d="M60.463,0,0,15.929,72.583,34.043Z" transform="translate(49.405 103.377)" fill="#fe7a00"/>
      <path id="Stroke_180" data-name="Stroke 180" d="M10.692,0l5.086,13.065-4.571,3.43L0,8.795" transform="translate(6.064 31.256)" fill="none" stroke="#0b096f" stroke-miterlimit="10" stroke-width="5.67"/>
      <path id="Fill_182" data-name="Fill 182" d="M0,0S25.028,18.978,1.811,32.317Z" transform="translate(91.434 29.234)" fill="#0b096f"/>
      <path id="Fill_184" data-name="Fill 184" d="M22.465,45.116C19.149,40.211.664,38.047.016,51.3-.819,68.384,31.1,68.368,31.1,68.368l5.225,23.145,28.4-3.708-5.5-20.365s26.893-5.264,31.6-9.66c0,0-2.929-26.974-11.938-44.172L51.865,0,17.689,12.28Z" transform="translate(14.275 33.071)" fill="#ff77ca"/>
      <path id="Fill_186" data-name="Fill 186" d="M9.985,75.16S-8.858,72.943,5.226,46.938s34.6-20.247,34.6-20.247S39.032,4.405,52.776.649C72.357-4.7,83.736,24.826,83.736,24.826S89.046,5.569,95.3,6.372s21.51,55.617-63.664,50.517c0,0,10.855,13.269-6.127,21.3,0,0-4.886-5.592-15.524-3.028" transform="translate(11.23 0)" fill="#0b096f"/>
      <path id="Fill_188" data-name="Fill 188" d="M.216,7.042C-.893,4.542,2.39.7,7.317.1c7.3-.89,12.194,4.517,9.639,8.469-2.446,3.784-7.265-.062-11.361.7C3.367,9.677,1.058,8.943.216,7.042" transform="translate(75.152 80.803)" fill="#fff"/>
      <path id="Fill_190" data-name="Fill 190" d="M18.346,0,0,1.083l20.456,6.91Z" transform="translate(55.151 100.51)" fill="#ef3c86"/>
      <path id="Fill_192" data-name="Fill 192" d="M0,0,10.032,13.041,2.885,15.127Z" transform="translate(86.302 63.702)" fill="#285fd7"/>
      <path id="Fill_194" data-name="Fill 194" d="M19.076,28.728,0,0,10.623,32.217Z" transform="translate(110.519 105.203)" fill="#ef3c86"/>
      <path id="Fill_196" data-name="Fill 196" d="M7.293,33.473,1.35,0,0,32.273Z" transform="translate(123.189 138.616)" fill="#ef3c86"/>
      <path id="Fill_198" data-name="Fill 198" d="M7.152,2.141A3.765,3.765,0,1,1,.373,5.422,3.765,3.765,0,1,1,7.152,2.141" transform="translate(73.167 63.418)" fill="#0b096f"/>
      <path id="Fill_200" data-name="Fill 200" d="M7.151,2.141A3.765,3.765,0,1,1,.374,5.422,3.765,3.765,0,1,1,7.151,2.141" transform="translate(91.213 58.965)" fill="#0b096f"/>
      <path id="Fill_202" data-name="Fill 202" d="M31.693,132.3S-27.849,43.947,16.291,2.37C26.57-7.312,91.671,15.8,91.671,15.8L89.5,67.8,76.754,65.146,101.3,103.874l13.363,34.355s-34.206-7.757-72.43-5.639c-2.634.146-10.544-.295-10.544-.295" transform="translate(33.115 116.936)" fill="#ffc100"/>
      <path id="Fill_204" data-name="Fill 204" d="M14.482,33.368,0,17.6,16.9,0,28.571,20.449Z" transform="translate(286.979 254.574)" fill="#ef3c86"/>
      <path id="Fill_206" data-name="Fill 206" d="M236.926,87.887,168.143,7.747a23.855,23.855,0,0,0-34.5-.719L64.88,58.848S55.13,85.769,0,88.007c0,0,20.91,48.439,69.4,31.272,21.842-7.733,83.652-60.908,83.652-60.908l69.529,67.768Z" transform="translate(69.539 161.963)" fill="#2d2d32"/>
      <path id="Stroke_208" data-name="Stroke 208" d="M6.5,0,0,5.986" transform="translate(66.667 56.477)" fill="none" stroke="#0b096f" stroke-miterlimit="10" stroke-width="4.41"/>
      <path id="Stroke_210" data-name="Stroke 210" d="M0,0,10.644,1.718" transform="translate(90.596 52.509)" fill="none" stroke="#0b096f" stroke-miterlimit="10" stroke-width="4.41"/>
      <path id="Fill_212" data-name="Fill 212" d="M0,65.623,14.09,80.491,29.093,0S18.146,15.21,8.371,39.562Z" transform="translate(301.46 222.319)" fill="#0b096f"/>
      <path id="Fill_214" data-name="Fill 214" d="M30.554,7.73,0,0,37.742,19.069Z" transform="translate(79.314 174.352)" fill="#fe7a00"/>
      <path id="Fill_216" data-name="Fill 216" d="M14.739,1.031A11.091,11.091,0,0,0,13.6,3.516,56.747,56.747,0,0,0,1.056,18.278C-4.157,27.307,11.621,30.8,11.621,30.8s4.87.879,6.265-.325S21,29.86,22.014,29.212s1.786-4.049,4.388-5.52.835-6.687-.292-7.57-8-3.083-6.374-8.566c1.456-4.917-2.26-9.718-5-6.524" transform="translate(166.037 87.709)" fill="#ff77ca"/>
      <path id="Stroke_218" data-name="Stroke 218" d="M0,28.916,3.877,15.883S3.881,7.977,17,0" transform="translate(163.609 91.392)" fill="none" stroke="#ef3c86" stroke-miterlimit="10" stroke-width="1.89"/>
      <path id="Stroke_220" data-name="Stroke 220" d="M.141,0s1.144,1.753,0,6.113,5,5.971,6.589,7.508A5.392,5.392,0,0,1,8.285,17.26" transform="translate(185.416 90.21)" fill="none" stroke="#ef3c86" stroke-miterlimit="10" stroke-width="1.89"/>
      <path id="Stroke_222" data-name="Stroke 222" d="M0,7.091.8,0" transform="translate(178.47 111.984)" fill="none" stroke="#ef3c86" stroke-miterlimit="10" stroke-width="1.89"/>
    </g>
  </g>
</svg>
