<svg width="149" height="91" viewBox="0 0 149 91" fill="none" xmlns="http://www.w3.org/2000/svg">
<g clip-path="url(#clip0_196_6197)">
<path d="M146.249 90.9099C147.707 90.9099 148.889 89.7279 148.889 88.2699C148.889 86.8119 147.707 85.6299 146.249 85.6299C144.791 85.6299 143.609 86.8119 143.609 88.2699C143.609 89.7279 144.791 90.9099 146.249 90.9099Z" fill="#104CBA"/>
<path d="M122.312 90.9099C123.77 90.9099 124.952 89.7279 124.952 88.2699C124.952 86.8119 123.77 85.6299 122.312 85.6299C120.854 85.6299 119.672 86.8119 119.672 88.2699C119.672 89.7279 120.854 90.9099 122.312 90.9099Z" fill="#104CBA"/>
<path d="M98.3822 90.9104C98.9067 90.9123 99.4201 90.7586 99.8572 90.4686C100.294 90.1787 100.636 89.7654 100.838 89.2814C101.04 88.7973 101.094 88.2642 100.993 87.7495C100.891 87.2348 100.64 86.7617 100.27 86.3901C99.8994 86.0185 99.4273 85.7651 98.913 85.662C98.3986 85.5589 97.8653 85.6108 97.3805 85.8111C96.8957 86.0114 96.4812 86.3511 96.1896 86.7871C95.8979 87.2231 95.7422 87.7358 95.7422 88.2603C95.7422 88.9614 96.0201 89.6339 96.5149 90.1306C97.0097 90.6273 97.6811 90.9077 98.3822 90.9104V90.9104Z" fill="#104CBA"/>
<path d="M74.4508 90.9104C74.9749 90.9104 75.4873 90.7549 75.9231 90.4638C76.3589 90.1726 76.6985 89.7587 76.899 89.2745C77.0996 88.7903 77.1521 88.2574 77.0498 87.7434C76.9476 87.2293 76.6952 86.7572 76.3246 86.3865C75.954 86.0159 75.4818 85.7635 74.9678 85.6613C74.4537 85.559 73.9209 85.6115 73.4366 85.8121C72.9524 86.0127 72.5386 86.3523 72.2474 86.7881C71.9563 87.2239 71.8008 87.7362 71.8008 88.2603C71.8008 88.6083 71.8693 88.953 72.0024 89.2745C72.1356 89.596 72.3308 89.8881 72.5769 90.1342C72.823 90.3802 73.1151 90.5755 73.4366 90.7087C73.7582 90.8419 74.1028 90.9104 74.4508 90.9104V90.9104Z" fill="#104CBA"/>
<path d="M50.5111 90.9099C51.9691 90.9099 53.1511 89.7279 53.1511 88.2699C53.1511 86.8119 51.9691 85.6299 50.5111 85.6299C49.0531 85.6299 47.8711 86.8119 47.8711 88.2699C47.8711 89.7279 49.0531 90.9099 50.5111 90.9099Z" fill="#104CBA"/>
<path d="M27.5901 90.5952C28.9386 90.0408 29.5823 88.4982 29.0279 87.1497C28.4735 85.8012 26.9308 85.1575 25.5823 85.7119C24.2338 86.2664 23.5901 87.809 24.1445 89.1575C24.6989 90.506 26.2416 91.1497 27.5901 90.5952Z" fill="#104CBA"/>
<path d="M2.65212 85.6602C2.12715 85.6582 1.61349 85.8122 1.17617 86.1026C0.738848 86.393 0.397631 86.8068 0.195821 87.2915C-0.0059898 87.7761 -0.0593093 88.3097 0.0426225 88.8247C0.144554 89.3397 0.39712 89.8128 0.768331 90.184C1.13954 90.5552 1.6126 90.8078 2.12758 90.9097C2.64256 91.0116 3.17628 90.9583 3.66091 90.7565C4.14554 90.5547 4.55933 90.2135 4.84975 89.7762C5.14018 89.3389 5.29411 88.8252 5.29213 88.3002C5.2895 87.6008 5.01054 86.9308 4.51601 86.4363C4.02149 85.9418 3.35148 85.6628 2.65212 85.6602V85.6602Z" fill="#104CBA"/>
<path d="M146.249 69.4997C147.707 69.4997 148.889 68.3178 148.889 66.8597C148.889 65.4017 147.707 64.2197 146.249 64.2197C144.791 64.2197 143.609 65.4017 143.609 66.8597C143.609 68.3178 144.791 69.4997 146.249 69.4997Z" fill="#104CBA"/>
<path d="M122.312 69.4997C123.77 69.4997 124.952 68.3178 124.952 66.8597C124.952 65.4017 123.77 64.2197 122.312 64.2197C120.854 64.2197 119.672 65.4017 119.672 66.8597C119.672 68.3178 120.854 69.4997 122.312 69.4997Z" fill="#104CBA"/>
<path d="M98.3822 69.5002C98.9072 69.5022 99.421 69.3482 99.8583 69.0578C100.296 68.7673 100.637 68.3535 100.839 67.8689C101.04 67.3843 101.094 66.8506 100.992 66.3357C100.89 65.8207 100.637 65.3475 100.266 64.9763C99.8949 64.6051 99.4217 64.3526 98.9068 64.2506C98.3918 64.1487 97.8582 64.202 97.3736 64.4038C96.8889 64.6056 96.4751 64.9469 96.1847 65.3842C95.8943 65.8215 95.7402 66.3352 95.7422 66.8602C95.7448 67.5595 96.0239 68.2295 96.5185 68.724C97.013 69.2185 97.6829 69.4976 98.3822 69.5002V69.5002Z" fill="#104CBA"/>
<path d="M74.4508 69.5002C74.9754 69.5002 75.4881 69.3445 75.9241 69.0529C76.3601 68.7612 76.6998 68.3468 76.9 67.862C77.1003 67.3772 77.1522 66.8438 77.0491 66.3295C76.946 65.8152 76.6927 65.343 76.3211 64.9728C75.9495 64.6026 75.4763 64.351 74.9616 64.2499C74.4469 64.1488 73.9138 64.2027 73.4297 64.4048C72.9457 64.6069 72.5326 64.9481 72.2426 65.3852C71.9526 65.8223 71.7988 66.3356 71.8008 66.8602C71.8008 67.2077 71.8694 67.5518 72.0027 67.8728C72.136 68.1937 72.3313 68.4852 72.5775 68.7305C72.8237 68.9758 73.1159 69.17 73.4374 69.3021C73.7589 69.4342 74.1033 69.5015 74.4508 69.5002V69.5002Z" fill="#104CBA"/>
<path d="M50.5111 69.4997C51.9691 69.4997 53.1511 68.3178 53.1511 66.8597C53.1511 65.4017 51.9691 64.2197 50.5111 64.2197C49.0531 64.2197 47.8711 65.4017 47.8711 66.8597C47.8711 68.3178 49.0531 69.4997 50.5111 69.4997Z" fill="#104CBA"/>
<path d="M27.5901 69.193C28.9386 68.6385 29.5823 67.0959 29.0279 65.7474C28.4735 64.3989 26.9308 63.7551 25.5823 64.3096C24.2338 64.864 23.5901 66.4067 24.1445 67.7552C24.699 69.1037 26.2416 69.7474 27.5901 69.193Z" fill="#104CBA"/>
<path d="M2.65004 69.5002C3.17459 69.5002 3.68731 69.3445 4.12331 69.0529C4.55931 68.7612 4.89899 68.3468 5.09926 67.862C5.29954 67.3772 5.3515 66.8438 5.24843 66.3295C5.14537 65.8152 4.89189 65.343 4.52028 64.9728C4.14867 64.6026 3.67561 64.351 3.16091 64.2499C2.6462 64.1488 2.11309 64.2027 1.62905 64.4048C1.145 64.6069 0.731771 64.9481 0.441791 65.3852C0.151812 65.8223 -0.00196055 66.3356 1.88721e-05 66.8602C1.63788e-05 67.2077 0.0686259 67.5518 0.201923 67.8728C0.33522 68.1937 0.530667 68.4852 0.776874 68.7305C1.02308 68.9758 1.31528 69.17 1.63674 69.3021C1.95819 69.4342 2.30251 69.5015 2.65004 69.5002Z" fill="#104CBA"/>
<path d="M146.249 48.0896C147.707 48.0896 148.889 46.9076 148.889 45.4496C148.889 43.9915 147.707 42.8096 146.249 42.8096C144.791 42.8096 143.609 43.9915 143.609 45.4496C143.609 46.9076 144.791 48.0896 146.249 48.0896Z" fill="#104CBA"/>
<path d="M122.312 48.0896C123.77 48.0896 124.952 46.9076 124.952 45.4496C124.952 43.9915 123.77 42.8096 122.312 42.8096C120.854 42.8096 119.672 43.9915 119.672 45.4496C119.672 46.9076 120.854 48.0896 122.312 48.0896Z" fill="#104CBA"/>
<path d="M98.3822 48.0998C98.9067 48.1018 99.4201 47.9481 99.8572 47.6581C100.294 47.3681 100.636 46.9549 100.838 46.4708C101.04 45.9868 101.094 45.4537 100.993 44.939C100.891 44.4243 100.64 43.9512 100.27 43.5795C99.8994 43.2079 99.4273 42.9545 98.913 42.8515C98.3986 42.7484 97.8653 42.8003 97.3805 43.0006C96.8957 43.2008 96.4812 43.5405 96.1896 43.9765C95.8979 44.4125 95.7422 44.9252 95.7422 45.4498C95.7422 46.1509 96.0201 46.8234 96.5149 47.3201C97.0097 47.8168 97.6811 48.0972 98.3822 48.0998V48.0998Z" fill="#104CBA"/>
<path d="M74.4508 48.0998C74.9749 48.0998 75.4873 47.9444 75.9231 47.6532C76.3589 47.362 76.6985 46.9482 76.899 46.4639C77.0996 45.9797 77.1521 45.4469 77.0498 44.9328C76.9476 44.4188 76.6952 43.9465 76.3246 43.5759C75.954 43.2053 75.4818 42.953 74.9678 42.8507C74.4537 42.7485 73.9209 42.801 73.4366 43.0015C72.9524 43.2021 72.5386 43.5418 72.2474 43.9776C71.9563 44.4133 71.8008 44.9257 71.8008 45.4498C71.8008 45.7978 71.8693 46.1424 72.0024 46.4639C72.1356 46.7855 72.3308 47.0775 72.5769 47.3236C72.823 47.5697 73.1151 47.7649 73.4366 47.8981C73.7582 48.0313 74.1028 48.0998 74.4508 48.0998V48.0998Z" fill="#104CBA"/>
<path d="M50.5111 48.0896C51.9691 48.0896 53.1511 46.9076 53.1511 45.4496C53.1511 43.9915 51.9691 42.8096 50.5111 42.8096C49.0531 42.8096 47.8711 43.9915 47.8711 45.4496C47.8711 46.9076 49.0531 48.0896 50.5111 48.0896Z" fill="#104CBA"/>
<path d="M27.5901 47.7915C28.9386 47.2371 29.5823 45.6944 29.0279 44.3459C28.4735 42.9974 26.9308 42.3538 25.5823 42.9082C24.2338 43.4626 23.5901 45.0052 24.1445 46.3537C24.6989 47.7022 26.2416 48.346 27.5901 47.7915Z" fill="#104CBA"/>
<path d="M2.65002 48.0998C3.17414 48.0998 3.68652 47.9444 4.12231 47.6532C4.5581 47.362 4.89769 46.9482 5.09827 46.4639C5.29884 45.9797 5.3514 45.4469 5.24915 44.9328C5.14689 44.4188 4.89453 43.9465 4.52393 43.5759C4.15332 43.2053 3.68104 42.953 3.16699 42.8507C2.65294 42.7485 2.12021 42.801 1.63599 43.0015C1.15176 43.2021 0.737841 43.5418 0.446655 43.9776C0.15547 44.4133 0 44.9257 0 45.4498C0 46.1526 0.279274 46.8266 0.776245 47.3236C1.27322 47.8206 1.9472 48.0998 2.65002 48.0998V48.0998Z" fill="#104CBA"/>
<path d="M146.249 26.6902C147.707 26.6902 148.889 25.5082 148.889 24.0502C148.889 22.5921 147.707 21.4102 146.249 21.4102C144.791 21.4102 143.609 22.5921 143.609 24.0502C143.609 25.5082 144.791 26.6902 146.249 26.6902Z" fill="#104CBA"/>
<path d="M122.312 26.6902C123.77 26.6902 124.952 25.5082 124.952 24.0502C124.952 22.5921 123.77 21.4102 122.312 21.4102C120.854 21.4102 119.672 22.5921 119.672 24.0502C119.672 25.5082 120.854 26.6902 122.312 26.6902Z" fill="#104CBA"/>
<path d="M98.3822 26.6604C98.9072 26.6623 99.421 26.5083 99.8583 26.2179C100.296 25.9275 100.637 25.5137 100.839 25.0291C101.04 24.5444 101.094 24.0108 100.992 23.4958C100.89 22.9808 100.637 22.5078 100.266 22.1366C99.8949 21.7653 99.4217 21.5127 98.9068 21.4108C98.3918 21.3089 97.8582 21.3622 97.3736 21.564C96.8889 21.7658 96.4751 22.107 96.1847 22.5443C95.8943 22.9817 95.7402 23.4954 95.7422 24.0203C95.7448 24.7197 96.0239 25.3897 96.5185 25.8842C97.013 26.3788 97.6829 26.6577 98.3822 26.6604V26.6604Z" fill="#104CBA"/>
<path d="M74.4508 26.6604C74.9754 26.6604 75.4881 26.5047 75.9241 26.213C76.3601 25.9214 76.6998 25.507 76.9 25.0222C77.1003 24.5374 77.1522 24.004 77.0491 23.4897C76.946 22.9754 76.6927 22.5032 76.3211 22.133C75.9495 21.7628 75.4763 21.5112 74.9616 21.4101C74.4469 21.3089 73.9138 21.3629 73.4297 21.565C72.9457 21.7671 72.5326 22.1083 72.2426 22.5454C71.9526 22.9825 71.7988 23.4958 71.8008 24.0203C71.8008 24.3679 71.8694 24.712 72.0027 25.033C72.136 25.3539 72.3313 25.6454 72.5775 25.8906C72.8237 26.1359 73.1159 26.3302 73.4374 26.4623C73.7589 26.5944 74.1033 26.6617 74.4508 26.6604V26.6604Z" fill="#104CBA"/>
<path d="M50.5111 26.6902C51.9691 26.6902 53.1511 25.5082 53.1511 24.0502C53.1511 22.5921 51.9691 21.4102 50.5111 21.4102C49.0531 21.4102 47.8711 22.5921 47.8711 24.0502C47.8711 25.5082 49.0531 26.6902 50.5111 26.6902Z" fill="#104CBA"/>
<path d="M27.594 26.3892C28.9425 25.8348 29.5863 24.2922 29.0318 22.9437C28.4774 21.5952 26.9347 20.9514 25.5862 21.5059C24.2377 22.0603 23.594 23.603 24.1484 24.9515C24.7029 26.3 26.2455 26.9437 27.594 26.3892Z" fill="#104CBA"/>
<path d="M2.65004 26.6604C3.17459 26.6604 3.68731 26.5047 4.12331 26.213C4.55931 25.9214 4.89899 25.507 5.09926 25.0222C5.29954 24.5374 5.3515 24.004 5.24843 23.4897C5.14537 22.9754 4.89189 22.5032 4.52028 22.133C4.14867 21.7628 3.67561 21.5112 3.16091 21.4101C2.6462 21.3089 2.11309 21.3629 1.62905 21.565C1.145 21.7671 0.731771 22.1083 0.441791 22.5454C0.151812 22.9825 -0.00196055 23.4958 1.88721e-05 24.0203C1.63788e-05 24.3679 0.0686259 24.712 0.201923 25.033C0.33522 25.3539 0.530667 25.6454 0.776874 25.8906C1.02308 26.1359 1.31528 26.3302 1.63674 26.4623C1.95819 26.5944 2.30251 26.6617 2.65004 26.6604V26.6604Z" fill="#104CBA"/>
<path d="M146.249 5.28C147.707 5.28 148.889 4.09803 148.889 2.64C148.889 1.18197 147.707 0 146.249 0C144.791 0 143.609 1.18197 143.609 2.64C143.609 4.09803 144.791 5.28 146.249 5.28Z" fill="#104CBA"/>
<path d="M122.312 5.28C123.77 5.28 124.952 4.09803 124.952 2.64C124.952 1.18197 123.77 0 122.312 0C120.854 0 119.672 1.18197 119.672 2.64C119.672 4.09803 120.854 5.28 122.312 5.28Z" fill="#104CBA"/>
<path d="M98.3822 5.29024C98.9067 5.29222 99.4201 5.13851 99.8572 4.84853C100.294 4.55855 100.636 4.14532 100.838 3.66127C101.04 3.17723 101.094 2.64412 100.993 2.12941C100.891 1.61471 100.64 1.14159 100.27 0.769978C99.8994 0.398368 99.4273 0.144953 98.913 0.0418894C98.3986 -0.0611745 97.8653 -0.00927669 97.3805 0.190998C96.8957 0.391273 96.4812 0.730946 96.1896 1.16695C95.8979 1.60295 95.7422 2.11567 95.7422 2.64022C95.7422 3.34131 96.0201 4.01383 96.5149 4.51052C97.0097 5.0072 97.6811 5.2876 98.3822 5.29024V5.29024Z" fill="#104CBA"/>
<path d="M74.4508 5.29023C74.9749 5.29023 75.4873 5.13483 75.9231 4.84364C76.3589 4.55245 76.6985 4.13859 76.899 3.65437C77.0996 3.17015 77.1521 2.63729 77.0498 2.12324C76.9476 1.60919 76.6952 1.13698 76.3246 0.76637C75.954 0.395761 75.4818 0.143401 74.9678 0.04115C74.4537 -0.0611008 73.9209 -0.00860433 73.4366 0.191968C72.9524 0.39254 72.5386 0.732191 72.2474 1.16798C71.9563 1.60377 71.8008 2.11609 71.8008 2.64021C71.8008 2.98821 71.8693 3.33286 72.0024 3.65437C72.1356 3.97588 72.3308 4.26798 72.5769 4.51405C72.823 4.76013 73.1151 4.95534 73.4366 5.08851C73.7582 5.22169 74.1028 5.29023 74.4508 5.29023V5.29023Z" fill="#104CBA"/>
<path d="M50.5111 5.28C51.9691 5.28 53.1511 4.09803 53.1511 2.64C53.1511 1.18197 51.9691 0 50.5111 0C49.0531 0 47.8711 1.18197 47.8711 2.64C47.8711 4.09803 49.0531 5.28 50.5111 5.28Z" fill="#104CBA"/>
<path d="M27.5901 4.97708C28.9386 4.42265 29.5823 2.87999 29.0279 1.53149C28.4735 0.182988 26.9308 -0.460681 25.5823 0.0937553C24.2338 0.648191 23.5901 2.19079 24.1445 3.53929C24.6989 4.88779 26.2416 5.53152 27.5901 4.97708Z" fill="#104CBA"/>
<path d="M2.65002 5.29023C3.17414 5.29023 3.68652 5.13483 4.12231 4.84364C4.5581 4.55245 4.89769 4.13859 5.09827 3.65437C5.29884 3.17015 5.3514 2.63729 5.24915 2.12324C5.14689 1.60919 4.89453 1.13698 4.52393 0.76637C4.15332 0.395761 3.68104 0.143401 3.16699 0.04115C2.65294 -0.0611008 2.12021 -0.00860433 1.63599 0.191968C1.15176 0.39254 0.737841 0.732191 0.446655 1.16798C0.15547 1.60377 0 2.11609 0 2.64021C0 3.34303 0.279274 4.01708 0.776245 4.51405C1.27322 5.01102 1.9472 5.29023 2.65002 5.29023V5.29023Z" fill="#104CBA"/>
</g>
<defs>
<clipPath id="clip0_196_6197">
<rect width="148.89" height="90.91" fill="white"/>
</clipPath>
</defs>
</svg>
